<svg width="100" height="100" viewBox="0 0 100 100" fill="none" xmlns="http://www.w3.org/2000/svg">
<path d="M43.4668 1.05773C41.7525 1.91534 41.1083 3.20064 40.638 4.26737C40.1678 5.3341 39.8567 6.1939 39.0234 7.14823C38.1902 8.10256 36.7802 9.19509 33.9811 10.3221C31.182 11.449 29.4052 11.6362 28.138 11.5265C26.8708 11.4167 26.0427 11.0074 24.9609 10.5662C23.6493 10.0311 22.3665 9.70377 20.6934 10.2244C19.0202 10.7451 17.3165 11.9646 14.9479 14.2836C12.5793 16.6027 11.3177 18.2796 10.765 19.9412C10.1691 21.7327 10.6234 23.1265 11.0482 24.212C11.473 25.2975 11.8681 26.1128 11.9564 27.3728C12.0446 28.6329 11.8198 30.4004 10.6413 33.1671C9.46271 35.9338 8.34936 37.3236 7.36979 38.1508C6.39023 38.978 5.48692 39.2894 4.39128 39.7882C3.29564 40.287 2.00934 41.0094 1.1556 42.7537C0.364467 44.3701 0.0283475 46.5322 1.06385e-06 49.9868C-5.56291e-05 49.9914 0.00327042 49.995 0.00325782 50C0.00327042 50.0047 -6.82275e-05 50.0082 1.06385e-06 50.0132C0.0283475 53.4679 0.364474 55.63 1.1556 57.2464C2.00934 58.9907 3.29564 59.7131 4.39128 60.2119C5.48692 60.7106 6.39023 61.022 7.36979 61.8492C8.34936 62.6764 9.46271 64.0663 10.6413 66.833C11.8198 69.5997 12.0446 71.3672 11.9564 72.6272C11.8681 73.8872 11.473 74.7025 11.0482 75.788C10.6234 76.8735 10.1691 78.2674 10.765 80.0589C11.3177 81.7205 12.5793 83.3973 14.9479 85.7164C17.3165 88.0355 19.0202 89.255 20.6934 89.7757C22.3665 90.2963 23.6493 89.969 24.9609 89.4339C26.0427 88.9926 26.8708 88.5833 28.138 88.4736C29.4052 88.3639 31.182 88.5511 33.9811 89.678C36.7802 90.805 38.1902 91.8975 39.0234 92.8518C39.8567 93.8062 40.1678 94.666 40.638 95.7327C41.1083 96.7994 41.7525 98.0847 43.4668 98.9423C44.9596 99.6892 46.9473 99.9971 50 100C53.0527 99.9969 55.0404 99.6891 56.5332 98.9423C58.2475 98.0847 58.8917 96.7994 59.362 95.7327C59.8322 94.666 60.1433 93.8062 60.9766 92.8518C61.8098 91.8975 63.2198 90.805 66.0189 89.678C68.818 88.5511 70.5948 88.3639 71.862 88.4736C73.1292 88.5832 73.9573 88.9926 75.0391 89.4339C76.3507 89.969 77.6335 90.2963 79.3066 89.7757C80.9798 89.255 82.6835 88.0355 85.0521 85.7164C87.4207 83.3973 88.6823 81.7205 89.235 80.0589C89.8309 78.2674 89.3766 76.8735 88.9518 75.788C88.527 74.7025 88.1319 73.8872 88.0436 72.6272C87.9554 71.3672 88.1802 69.5997 89.3587 66.833C90.5373 64.0662 91.6507 62.6764 92.6302 61.8492C93.6098 61.022 94.5131 60.7106 95.6087 60.2119C96.7044 59.7131 97.9907 58.9907 98.8444 57.2464C99.6355 55.63 99.9717 53.4679 100 50.0003C99.9717 46.5326 99.6355 44.3705 98.8444 42.7541C97.9907 41.0098 96.7044 40.2874 95.6087 39.7886C94.5131 39.2898 93.6098 38.9784 92.6302 38.1512C91.6506 37.3241 90.5373 35.9342 89.3587 33.1675C88.1802 30.4008 87.9554 28.6333 88.0436 27.3733C88.1319 26.1132 88.527 25.2979 88.9518 24.2124C89.3766 23.1269 89.8309 21.7331 89.235 19.9416C88.6823 18.28 87.4207 16.6031 85.0521 14.2841C82.6835 11.965 80.9798 10.7455 79.3066 10.2248C77.6335 9.70418 76.3507 10.0315 75.0391 10.5666C73.9573 11.0079 73.1292 11.4172 71.862 11.5269C70.5948 11.6366 68.818 11.4494 66.0189 10.3225C63.2198 9.1955 61.8098 8.10298 60.9766 7.14864C60.1433 6.19431 59.8322 5.33452 59.362 4.26779C58.8917 3.20107 58.2475 1.91576 56.5332 1.05815C55.0404 0.311332 53.0527 0.00354016 50 0C46.9473 0.00292283 44.9596 0.31091 43.4668 1.05773V1.05773ZM50 3.34288C52.8024 3.3517 54.3387 3.67939 55.0456 4.033C55.6483 4.33454 55.9153 4.70896 56.3119 5.60851C56.7085 6.50806 57.2237 7.91201 58.4668 9.33573C59.7099 10.7594 61.6364 12.1572 64.7754 13.421C67.9144 14.6849 70.273 15.0132 72.1582 14.85C74.0434 14.6868 75.3918 14.0281 76.3053 13.6554C77.0185 13.3646 77.5297 13.161 78.3236 13.408C79.0926 13.6141 80.5159 14.5168 82.7148 16.6697C84.9138 18.8227 85.8141 20.2074 86.0742 20.9894C86.3343 21.7714 86.0824 22.4082 85.8529 22.9946C85.4946 23.9099 84.852 25.2547 84.7201 27.1385C84.5882 29.0223 84.9596 31.3667 86.2826 34.4725C87.6056 37.5782 89.0353 39.4777 90.4785 40.6964C91.9218 41.9152 93.3256 42.4188 94.2188 42.8253C95.1119 43.2319 95.5233 43.5354 95.8561 44.2153C96.2789 45.0791 96.5552 46.6345 96.6081 48.3331L96.6667 49.9998C96.6667 49.9998 96.6667 51.6665 96.6081 51.6665C96.5552 53.3651 96.2789 54.9206 95.8561 55.7843C95.5234 56.4642 95.1119 56.7677 94.2188 57.1743C93.3256 57.5808 91.9218 58.0844 90.4785 59.3032C89.0353 60.522 87.6056 62.4214 86.2826 65.5272C84.9596 68.6329 84.5881 70.9774 84.7201 72.8611C84.852 74.7449 85.4946 76.0897 85.8529 77.005C86.0824 77.5914 86.3343 78.2283 86.0742 79.0102C85.8141 79.7922 84.9138 81.1769 82.7148 83.3299C80.5159 85.4828 79.0926 86.3855 78.3236 86.5916C77.5297 86.8386 77.0185 86.6351 76.3053 86.3442C75.3918 85.9716 74.0434 85.3128 72.1582 85.1496C70.273 84.9864 67.9144 85.3147 64.7754 86.5786C61.6364 87.8424 59.7099 89.2402 58.4668 90.6639C57.2237 92.0876 56.7084 93.4916 56.3119 94.3911C55.9153 95.2907 55.6483 95.6651 55.0456 95.9666C54.3387 96.3203 52.8024 96.6476 50 96.6567C47.1976 96.6467 45.6613 96.3203 44.9544 95.9666C44.3517 95.6652 44.0847 95.2907 43.6882 94.3911C43.2916 93.4916 42.7763 92.0876 41.5332 90.6639C40.2901 89.2402 38.3636 87.8424 35.2246 86.5786C32.0856 85.3148 29.727 84.9864 27.8418 85.1496C25.9566 85.3127 24.6082 85.9716 23.6947 86.3442C22.9815 86.6351 22.4703 86.8387 21.6764 86.5916C20.9074 86.3855 19.4841 85.4828 17.2852 83.3299C15.0862 81.1769 14.1859 79.7922 13.9258 79.0102C13.6657 78.2283 13.9176 77.5914 14.1471 77.005C14.5054 76.0897 15.148 74.7449 15.2799 72.8611C15.4118 70.9774 15.0404 68.6329 13.7174 65.5272C12.3945 62.4215 10.9647 60.522 9.52148 59.3032C8.07822 58.0845 6.67438 57.5809 5.78124 57.1743C4.8881 56.7677 4.47664 56.4642 4.14387 55.7843C3.72113 54.9206 3.44476 53.3651 3.39191 51.6665L3.33333 49.9868L3.39191 48.3331C3.44483 46.6346 3.72111 45.0791 4.14387 44.2153C4.47666 43.5354 4.8881 43.2319 5.78124 42.8253C6.67438 42.4188 8.07822 41.9152 9.52148 40.6964C10.9647 39.4777 12.3945 37.5782 13.7174 34.4725C15.0404 31.3667 15.4118 29.0223 15.2799 27.1385C15.148 25.2547 14.5054 23.9099 14.1471 22.9946C13.9176 22.4082 13.6657 21.7714 13.9258 20.9894C14.1859 20.2074 15.0862 18.8227 17.2852 16.6697C19.4841 14.5168 20.9074 13.6141 21.6764 13.408C22.4703 13.161 22.9815 13.3646 23.6947 13.6554C24.6082 14.028 25.9566 14.6869 27.8418 14.85C29.727 15.0133 32.0856 14.6848 35.2246 13.421C38.3636 12.1572 40.2901 10.7595 41.5332 9.33573C42.7763 7.91203 43.2916 6.50806 43.6882 5.60851C44.0847 4.70896 44.3517 4.33448 44.9544 4.033C45.6613 3.67929 47.1976 3.3529 50 3.34288V3.34288ZM50 16.6665C31.5549 16.6665 16.6732 31.6099 16.6732 49.9998C16.6732 68.3896 31.5841 83.3299 50 83.3299C68.4159 83.3299 83.3301 68.3896 83.3301 49.9998C83.3301 31.6099 68.4451 16.6665 50 16.6665V16.6665ZM50 19.9998C62.4305 19.9998 73.1004 27.554 77.6497 38.3364C76.1634 38.3364 74.6407 38.3364 73.1673 38.3364C72.3148 38.4218 71.6658 39.1397 71.6667 39.9965V41.673C67.0419 41.673 62.036 38.6264 55.0814 38.3364C54.2461 38.3017 53.3727 38.2534 52.5326 38.2942C50.0058 38.3534 47.9034 39.0318 45.3711 41.1197C44.9485 40.988 44.7466 40.9262 43.9486 40.7128C43.3504 40.5528 41.2745 39.994 39.9967 39.9966C38.0556 40.0006 35.5609 40.4434 33.0599 40.8592C31.3628 41.1415 29.6881 41.4062 28.3366 41.5526V39.9965C28.3329 39.0748 27.5819 38.3311 26.6602 38.3364H22.3535C26.902 27.554 37.5695 19.9998 50 19.9998V19.9998ZM50 25.003C49.0289 25.0213 48.3333 25.7396 48.3333 26.6632V29.9965C48.3333 31.1073 49.1669 31.665 50 31.6665C50.8331 31.665 51.6667 31.1073 51.6667 29.9965V26.6632C51.6667 25.7396 50.9711 25.0211 50 25.003ZM39.7917 32.1482L42.1549 34.4985C43.7994 36.0277 46.0388 33.7236 44.5182 32.1482L42.1549 29.7849C41.8412 29.4624 41.4363 29.3 40.9863 29.2999C39.4796 29.2886 38.7516 31.1165 39.7917 32.1482V32.1482ZM57.8451 29.785L55.4818 32.1482C53.9612 33.7236 56.2006 36.0277 57.8451 34.4985L60.2083 32.1482C61.2485 31.1165 60.5203 29.2883 59.0137 29.2999C58.5637 29.2999 58.1588 29.4624 57.8451 29.785V29.785ZM54.9479 41.6603C61.1289 41.918 66.4664 45.0066 71.6667 45.0066V56.67C68.0644 56.7348 65.8213 56.977 60.7129 59.5769L53.1217 50.8041C53.9577 49.2777 52.1914 47.6513 50.7389 48.6101C48.3666 50.1295 45.8681 51.5284 43.444 52.9298C42.4352 53.5122 41.3149 53.7868 40.5534 53.0014C39.8394 52.265 39.7958 51.0606 40.5761 50.3094L46.9367 44.1928C49.163 42.0315 51.1399 41.6162 52.8222 41.6113C53.4828 41.6093 54.1135 41.6249 54.9479 41.6602V41.6603ZM42.5358 43.7952L38.2747 47.8968C36.1987 49.8954 36.1108 53.2209 38.1543 55.3285C40.2495 57.4894 43.3204 57.1558 45.4232 55.6117C47.2158 54.6103 48.9052 53.6468 50.4004 52.7438L57.7507 61.2594C55.7412 62.5015 53.7218 63.7833 51.9824 64.7262C49.7312 65.9467 47.9041 66.6729 46.6667 66.6729C45.9722 66.6729 44.769 66.2201 43.3822 65.3545C41.9953 64.4889 40.43 63.263 38.8053 62.0081C35.556 59.4984 31.8602 56.6696 28.3366 56.6696V44.915C29.9461 44.7652 31.7693 44.448 33.6003 44.1436C36.1018 43.7276 38.6045 43.3358 39.9967 43.333C40.3264 43.3323 41.0626 43.4217 42.5358 43.7952V43.7952ZM28.3366 60.0029C30.5738 60.0029 33.5502 62.1645 36.7741 64.6546C38.386 65.8997 40.0039 67.1739 41.6211 68.1833C43.2383 69.1926 44.9458 70.0062 46.6667 70.0062C48.7366 70.0062 51.1426 68.9836 53.5677 67.6689C55.9764 66.3632 58.5389 64.6957 61.1198 63.1247C66.3549 60.3812 68.1139 60.0311 71.6667 60.0094V61.6631C71.6632 62.5835 72.4064 63.3326 73.3268 63.3363H76.8359C71.915 73.2081 61.7421 79.9964 50 79.9964C38.258 79.9964 28.0873 73.2081 23.1673 63.3363H26.6602C27.5869 63.3416 28.3401 62.5899 28.3366 61.6631V60.0029Z" fill="white"/>
</svg>
