<svg width="120" height="120" viewBox="0 0 120 120" fill="none" xmlns="http://www.w3.org/2000/svg">
<path d="M61.92 48C61.4 48.016 60.9 48.232 60.532 48.608L49.98 59.128L43.48 52.648C41.66 50.752 38.72 53.68 40.62 55.496L48.552 63.408C49.34 64.196 50.62 64.196 51.412 63.408L63.392 51.46C64.712 50.18 63.74 48 61.924 48H61.92ZM2 64H14C15.108 64 16 64.892 16 66C16 67.108 15.108 68 14 68H2C0.892 68 0 67.108 0 66C0 64.892 0.892 64 2 64ZM2 48H14C15.108 48 16 48.892 16 50C16 51.108 15.108 52 14 52H2C0.892 52 0 51.108 0 50C0 48.892 0.892 48 2 48ZM2 32H14C15.108 32 16 32.892 16 34C16 35.108 15.108 36 14 36H2C0.892 36 0 35.108 0 34C0 32.892 0.892 32 2 32ZM98 76C92.5 76 88 80.5 88 86C88 91.5 92.5 96 98 96C103.5 96 108 91.5 108 86C108 80.5 103.5 76 98 76ZM98 80C101.336 80 104 82.664 104 86C104 89.336 101.336 92 98 92C94.664 92 92 89.336 92 86C92 82.664 94.664 80 98 80ZM46 76C40.5 76 36 80.5 36 86C36 91.5 40.5 96 46 96C51.5 96 56 91.5 56 86C56 80.5 51.5 76 46 76ZM46 80C49.336 80 52 82.664 52 86C52 89.336 49.336 92 46 92C42.664 92 40 89.336 40 86C40 82.664 42.664 80 46 80ZM26 24C22.712 24 20 26.712 20 30V74C20 77.288 22.712 80 26 80H34C36.704 80.04 36.704 75.96 34 76H26C24.856 76 24 75.144 24 74V30C24 28.856 24.856 28 26 28H78C79.144 28 80 28.856 80 30V76H58C55.36 76 55.408 80.04 58 80H86C88.64 80 88.616 76 86 76H84V40H100.908L116 63.584V74C116 75.144 115.144 76 114 76H110C107.384 76 107.384 80 110 80H114C117.288 80 120 77.288 120 74V63C120 62.62 119.892 62.24 119.688 61.92L103.688 36.92C103.32 36.348 102.688 36 102 36H84V30C84 26.712 81.288 24 78 24H26Z" fill="white"/>
</svg>
