<svg width="150" height="90" viewBox="0 0 150 90" fill="none" xmlns="http://www.w3.org/2000/svg">
<path d="M77.4 30C76.75 30.02 76.125 30.29 75.665 30.76L62.475 43.91L54.35 35.81C52.075 33.44 48.4 37.1 50.775 39.37L60.69 49.26C61.675 50.245 63.275 50.245 64.265 49.26L79.24 34.325C80.89 32.725 79.675 30 77.405 30H77.4ZM2.5 50H17.5C18.885 50 20 51.115 20 52.5C20 53.885 18.885 55 17.5 55H2.5C1.115 55 0 53.885 0 52.5C0 51.115 1.115 50 2.5 50ZM2.5 30H17.5C18.885 30 20 31.115 20 32.5C20 33.885 18.885 35 17.5 35H2.5C1.115 35 0 33.885 0 32.5C0 31.115 1.115 30 2.5 30ZM2.5 10H17.5C18.885 10 20 11.115 20 12.5C20 13.885 18.885 15 17.5 15H2.5C1.115 15 0 13.885 0 12.5C0 11.115 1.115 10 2.5 10ZM122.5 65C115.625 65 110 70.625 110 77.5C110 84.375 115.625 90 122.5 90C129.375 90 135 84.375 135 77.5C135 70.625 129.375 65 122.5 65ZM122.5 70C126.67 70 130 73.33 130 77.5C130 81.67 126.67 85 122.5 85C118.33 85 115 81.67 115 77.5C115 73.33 118.33 70 122.5 70ZM57.5 65C50.625 65 45 70.625 45 77.5C45 84.375 50.625 90 57.5 90C64.375 90 70 84.375 70 77.5C70 70.625 64.375 65 57.5 65ZM57.5 70C61.67 70 65 73.33 65 77.5C65 81.67 61.67 85 57.5 85C53.33 85 50 81.67 50 77.5C50 73.33 53.33 70 57.5 70ZM32.5 0C28.39 0 25 3.39 25 7.5V62.5C25 66.61 28.39 70 32.5 70H42.5C45.88 70.05 45.88 64.95 42.5 65H32.5C31.07 65 30 63.93 30 62.5V7.5C30 6.07 31.07 5 32.5 5H97.5C98.93 5 100 6.07 100 7.5V65H72.5C69.2 65 69.26 70.05 72.5 70H107.5C110.8 70 110.77 65 107.5 65H105V20H126.135L145 49.48V62.5C145 63.93 143.93 65 142.5 65H137.5C134.23 65 134.23 70 137.5 70H142.5C146.61 70 150 66.61 150 62.5V48.75C150 48.275 149.865 47.8 149.61 47.4L129.61 16.15C129.15 15.435 128.36 15 127.5 15H105V7.5C105 3.39 101.61 0 97.5 0H32.5Z" fill="white"/>
</svg>
