<svg width="100" height="100" viewBox="0 0 100 100" fill="none" xmlns="http://www.w3.org/2000/svg">
<path d="M79.7259 66.9819L68.8421 76.5625L64.3735 72.2451C63.5329 71.4227 62.1172 71.3816 61.2323 72.2039C60.3474 72.9852 60.3032 74.301 61.188 75.1234L67.1609 80.9211C67.6033 81.3322 68.1784 81.5378 68.7536 81.5378C69.2845 81.5378 69.8597 81.3322 70.3021 80.9622L82.7786 69.9424C83.6635 69.1612 83.7077 67.8454 82.8671 67.023C82.0265 66.2007 80.6107 66.1595 79.7259 66.9819Z" fill="white"/>
<path d="M99.6794 69.7368L99.3697 68.0099H96.4055C95.8303 68.0099 95.2551 68.0099 94.68 68.0099C94.1933 66.3651 93.4854 64.8026 92.5563 63.3224C93.22 62.7056 93.8394 62.0888 94.503 61.5132L95.8745 60.2796L94.7685 58.8405C92.9545 56.5378 90.7866 54.523 88.309 52.8372L86.7605 51.8092L85.4332 53.0839C85.035 53.4539 84.5926 53.8651 84.1944 54.2352C83.9732 54.4408 83.7077 54.6875 83.4865 54.8931C81.8938 54.0707 80.1683 53.4128 78.3986 52.9605V51.6859C78.3986 51.2747 78.3986 50.8635 78.3986 50.3701V48.602L76.5404 48.3141C73.6203 47.8618 70.5233 47.8618 67.6033 48.3141L65.6566 48.6431L65.7451 50.4934C65.7451 50.9046 65.7451 51.3158 65.7451 51.727V52.3026V52.9605C63.9754 53.4128 62.2941 54.0707 60.6571 54.8931C60.3917 54.6464 60.1705 54.4408 59.905 54.1941C59.5068 53.824 59.0644 53.4539 58.6662 53.0428L57.3389 51.7681L55.7904 52.7961C53.2685 54.4408 51.1006 56.4556 49.3309 58.7993L48.2249 60.2385L49.5964 61.472C50.26 62.0888 50.9237 62.6645 51.5431 63.2812C50.6582 64.7615 49.9503 66.3651 49.4194 67.9687C48.8443 67.9687 48.2691 67.9687 47.6939 67.9687H44.7297L44.42 69.6957C44.1545 71.0937 44.066 72.5329 44.066 73.9309C44.066 75.3289 44.1987 76.7681 44.42 78.1661L44.6854 79.7286L46.6763 79.8931H46.8091C47.2073 79.8931 47.6497 79.8931 48.0479 79.8931C48.4903 79.8931 48.977 79.8931 49.4194 79.8931C49.9061 81.5789 50.6582 83.1414 51.5431 84.6628C51.2334 84.9507 50.9237 85.2385 50.6582 85.4852L49.8618 86.2253C49.7291 86.3487 49.5964 86.472 49.5079 86.5543L48.2691 87.7878L49.3309 89.1447C51.1006 91.4474 53.2685 93.4211 55.7462 95.0658L57.1619 96.0115L58.4892 94.9424L58.7104 94.7368C59.1971 94.2434 59.6838 93.7911 60.2147 93.3388C60.3474 93.2155 60.4802 93.0921 60.6129 92.9687C62.2499 93.7911 63.9311 94.449 65.7008 94.9013C65.7008 95.1891 65.7008 95.477 65.7008 95.8059C65.7008 96.3405 65.7008 96.875 65.7008 97.4507L65.8336 99.301L67.6033 99.5477C69.0633 99.7533 70.5676 99.8766 72.0718 99.8766C73.5761 99.8766 75.0803 99.7533 76.5404 99.5477L78.4428 99.1776L78.3986 97.3684C78.3986 96.8339 78.3986 96.3405 78.3986 95.8059C78.3986 95.5181 78.3986 95.1891 78.3986 94.9013C80.1683 94.449 81.8938 93.7911 83.4865 92.9687C83.6192 93.0921 83.752 93.2155 83.8404 93.2977C84.3271 93.75 84.858 94.2434 85.3447 94.6957L86.849 96.0115L88.309 95.0247C90.7866 93.3799 92.9545 91.3651 94.7242 89.1036L95.7861 87.7056L94.5473 86.472C94.4588 86.3898 94.326 86.2664 94.1933 86.1431L93.3969 85.403C93.0872 85.1151 92.8218 84.8684 92.5121 84.5806C93.4412 83.0592 94.1491 81.4556 94.6357 79.8109C94.7685 79.8109 94.9012 79.8109 95.0339 79.8109C95.7418 79.8109 96.4939 79.8109 97.2018 79.8109L99.3697 79.6464L99.6352 78.0839C99.9007 76.6859 99.9891 75.2878 99.9891 73.8487C100.033 72.574 99.9449 71.1349 99.6794 69.7368ZM95.5206 75.7812C95.3879 75.7812 95.2109 75.7812 95.0782 75.7812C94.4145 75.7812 93.7509 75.7812 93.0872 75.7812L91.0521 75.9868L90.7424 77.4671C90.2557 79.7697 89.2823 81.9079 87.8666 83.8405L87.0259 85.0329L87.9108 86.1842C88.0435 86.3487 88.2205 86.5543 88.3975 86.7187C88.9284 87.2122 89.4593 87.7056 89.9902 88.199C89.1496 89.1036 88.2205 89.9671 87.2472 90.7484C87.1587 90.6661 87.0702 90.5839 87.0259 90.5428C86.5835 90.1316 86.0968 89.6793 85.6544 89.2681C85.4774 89.1036 85.2562 88.9391 85.035 88.8158L83.7962 88.0757L82.5574 88.8158C80.478 90.0905 78.1773 90.9951 75.6997 91.4474L74.3282 91.6941L73.9743 92.9687C73.8858 93.2566 73.8858 93.5444 73.8858 93.8734C73.8858 94.5312 73.8858 95.2303 73.8858 95.8882C72.647 95.9704 71.3639 95.9704 70.1251 95.8882C70.1251 95.2303 70.1251 94.5312 70.1251 93.8734C70.1251 93.5444 70.0809 93.2566 70.0366 92.9687L69.6827 91.6941L68.3112 91.4474C65.8778 90.9951 63.5772 90.1316 61.4535 88.8158L60.2147 88.0757L58.9759 88.8158C58.7547 88.9391 58.5777 89.1036 58.4007 89.2681C57.9583 89.7204 57.4716 90.1316 57.0292 90.5839C56.9407 90.6661 56.8965 90.7072 56.808 90.7895C55.8346 90.0082 54.9055 89.1859 54.0649 88.2401C54.5958 87.7467 55.1268 87.2533 55.6577 86.7599C55.8789 86.5954 56.0116 86.3898 56.1443 86.2253L56.985 85.074L56.1443 83.9227C54.7286 81.9901 53.7552 79.8109 53.2686 77.5493L52.9589 76.0691L51.0564 75.8635H50.9237C50.5697 75.8635 50.2158 75.8635 49.8618 75.8635C49.3752 75.8635 48.9327 75.8635 48.4903 75.8635C48.4461 75.2467 48.4018 74.671 48.4018 74.0543C48.4018 73.4375 48.4461 72.8207 48.4903 72.2039C49.1982 72.2039 49.9061 72.2039 50.5697 72.2451C50.9237 72.2451 51.2776 72.2039 51.6316 72.1628L52.9589 71.8339L53.2243 70.5592C53.711 68.2977 54.6401 66.2007 56.0559 64.2681L56.8522 63.1579L56.1001 62.0066C55.8789 61.6776 55.6134 61.3898 55.348 61.1842L54.7728 60.6497C54.5074 60.403 54.2419 60.1562 53.9764 59.9095C54.8171 58.9638 55.7462 58.1003 56.7637 57.3191C57.2504 57.7714 57.7813 58.2237 58.268 58.7171C58.622 59.046 58.9759 59.2928 59.3298 59.4572L60.4359 59.9095L61.4535 59.2928C63.5329 58.0181 65.8336 57.1546 68.2669 56.7023L69.6385 56.4556L69.9924 55.222C70.0809 54.9342 70.0809 54.6464 70.0809 54.3586C70.0809 53.9062 70.0809 53.4539 70.0809 53.0016V52.3026C71.3197 52.2204 72.6027 52.2204 73.8415 52.3026V53.0016C73.8415 53.4539 73.8415 53.9062 73.8415 54.3586C73.8415 54.6875 73.8858 54.9342 73.93 55.222L74.284 56.4556L75.6555 56.7023C78.0889 57.1546 80.3895 58.0181 82.4689 59.2928L83.4865 59.9095L84.5926 59.4572C85.0793 59.2516 85.4332 58.9638 85.6544 58.7582C86.1411 58.3059 86.6278 57.8125 87.1587 57.3602C88.1763 58.1414 89.1054 59.0049 89.946 59.9507C89.6363 60.2385 89.3708 60.4852 89.0611 60.773L88.5745 61.2253C88.2648 61.5132 88.0435 61.7599 87.8223 62.0477L87.0259 63.199L87.8223 64.3092C89.1938 66.2418 90.1672 68.3388 90.6539 70.6003L90.9193 71.875L92.2909 72.2039C92.6006 72.2862 92.9545 72.3273 93.3527 72.2862C94.0606 72.2451 94.7685 72.2451 95.4321 72.2451C95.4764 72.8618 95.5206 73.4786 95.5206 74.0954C95.6091 74.5888 95.5648 75.2056 95.5206 75.7812Z" fill="white"/>
<path d="M21.4136 23.6431C28.4482 23.6431 34.1556 18.3388 34.1556 11.801C34.1556 5.26316 28.4482 0 21.4136 0C14.379 0 8.67162 5.30428 8.67162 11.801C8.67162 18.2977 14.4232 23.6431 21.4136 23.6431ZM21.4136 4.11184C25.9706 4.11184 29.687 7.56579 29.687 11.801C29.687 16.0362 25.9706 19.4901 21.4136 19.4901C16.8566 19.4901 13.1402 16.0362 13.1402 11.801C13.1402 7.56579 16.8566 4.11184 21.4136 4.11184Z" fill="white"/>
<path d="M36.7217 39.5559C35.4829 39.4737 34.421 40.3372 34.3326 41.4885L32.3859 67.9687C32.3859 68.051 32.3416 68.1332 32.3416 68.1743L30.5277 93.9145C30.4392 95.0247 29.4658 95.847 28.3155 95.847H14.5559C13.3614 95.847 12.388 94.9835 12.3438 93.9145L10.5298 68.1743C10.4856 67.3109 9.82194 66.5707 8.93708 66.324C6.37099 65.5839 6.37099 65.5839 6.14977 62.9523L4.51278 35.6497V35.4441C6.94615 34.7862 11.0165 33.5526 13.0517 32.977L19.9093 38.9391C20.75 39.6793 22.1215 39.6793 22.9621 38.9391L29.9083 32.8947L50.26 37.171C50.5697 37.2533 50.8794 37.2533 51.1891 37.171L70.3906 33.5115C71.5851 33.2648 72.3815 32.1957 72.1161 31.0855C71.8506 29.9753 70.7003 29.2352 69.5057 29.4819L50.7909 33.0592L29.7313 28.6184C29.0234 28.4539 28.2713 28.6595 27.6961 29.1118L21.4136 34.5806L15.1311 29.1118C14.5559 28.5773 13.7153 28.4128 12.9189 28.6595C12.9189 28.6595 6.41523 30.5921 3.09701 31.4967C1.10607 32.0724 0 33.4704 0 35.3618C0 35.5263 0 35.8141 0 35.8553L1.63699 62.7878L1.68123 63.2401C1.99093 67.352 2.74306 68.6678 6.14977 69.8191L7.87525 94.1612C8.09647 97.4095 11.0607 100 14.5559 100H28.3155C31.8107 100 34.775 97.4507 34.9962 94.1612L36.8102 68.6266C36.8102 68.5444 36.8102 68.5033 36.8544 68.4211L38.8453 41.7352C38.8896 40.625 37.9605 39.6382 36.7217 39.5559Z" fill="white"/>
</svg>
