<svg width="100" height="100" viewBox="0 0 100 100" fill="none" xmlns="http://www.w3.org/2000/svg">
<path d="M50.0002 0C22.3878 0 0 22.3878 0 50.0002C0 77.6122 22.3878 100 50.0002 100C77.6126 100 100 77.612 100 50.0002C100 22.3878 77.6126 0 50.0002 0ZM53.1255 93.5916V87.5H46.8752V93.5916C25.2505 92.0546 7.94707 74.7505 6.40898 53.1259H12.4999V46.8756H6.40898C7.94707 25.2503 25.2505 7.94687 46.8752 6.40877V12.4997H53.1255V6.40898C74.7503 7.94687 92.0533 25.2505 93.5912 46.8758H87.5007V53.1261H93.5912C92.0531 74.7505 74.7501 92.0546 53.1255 93.5916ZM73.0045 36.7187C73.4315 37.4638 73.1755 38.4223 72.4311 38.8555L55.9244 48.3828C56.0669 48.9139 56.2505 49.4268 56.2505 50.0002C56.2505 53.4548 53.4515 56.2499 50.0004 56.2499C46.5483 56.2499 43.7501 53.4548 43.7501 50.0002L26.7886 40.21C25.293 39.3438 24.7806 37.4331 25.6439 35.9378C26.5042 34.4364 28.4178 33.9241 29.9132 34.7909L46.9729 44.6419C47.8819 44.1293 48.877 43.7507 50.0004 43.7507C51.7463 43.7507 53.3169 44.4708 54.4529 45.6308L70.8681 36.1454C71.601 35.7118 72.5589 35.9681 73.0045 36.7187Z" fill="white"/>
</svg>
