<svg width="300" height="300" viewBox="0 0 300 300" fill="none" xmlns="http://www.w3.org/2000/svg">
<g clip-path="url(#clip0_11_2)">
<path d="M150 0C232.041 0 298.579 67.1748 298.579 150C298.579 232.825 232.041 300 150 300C67.9594 300 1.42148 232.825 1.42148 150C1.42148 67.1748 67.9594 0 150 0Z" fill="#00BCD5"/>
<path d="M204.486 212.563C204.486 212.944 204.673 213.329 204.673 213.71C204.673 224.425 178.141 233.035 145.355 233.035C112.761 233.035 86.2295 224.425 86.2295 213.71C86.2295 213.329 86.2295 212.944 86.2295 212.563C86.2295 212.371 86.2295 211.989 86.2295 211.605C86.2295 200.893 112.761 192.282 145.355 192.282C178.141 192.282 204.673 200.893 204.673 211.605C204.674 211.99 204.486 212.371 204.486 212.563Z" fill="#757575"/>
<path d="M204.486 212.563C204.486 212.944 204.673 213.329 204.673 213.71C204.673 224.425 178.141 233.035 145.355 233.035C144.029 233.035 142.512 233.035 141.186 233.035V192.282C142.512 192.282 144.029 192.282 145.355 192.282C178.141 192.282 204.673 200.893 204.673 211.605C204.674 211.99 204.486 212.371 204.486 212.563Z" fill="#696969"/>
<path d="M141.186 192.283C142.512 192.283 144.029 192.283 145.355 192.283C177.005 192.283 202.779 200.317 204.486 210.651C202.779 220.79 177.005 228.827 145.355 228.827C144.029 228.827 142.512 228.827 141.186 228.827V192.283Z" fill="#757575"/>
<path d="M145.355 190.179C178.013 190.179 204.486 198.831 204.486 209.501C204.486 220.175 178.013 228.826 145.355 228.826C112.701 228.826 86.2301 220.174 86.2301 209.501C86.2301 198.831 112.7 190.179 145.355 190.179Z" fill="#8D8D8D"/>
<path d="M145.355 190.179C178.141 190.179 204.674 198.789 204.674 209.501C204.674 220.216 178.141 228.826 145.355 228.826C144.029 228.826 142.512 228.826 141.186 228.826V190.179C142.512 190.179 144.029 190.179 145.355 190.179Z" fill="#7F7F7F"/>
<path d="M123.941 153.063H166.962V204.719H123.941V153.063Z" fill="#CCCCCC"/>
<path d="M166.962 180.803V204.719H141.186V180.803H166.962Z" fill="#B8B8B8"/>
<path d="M127.161 156.314H164.497V201.467H127.161V156.314Z" fill="#B8B8B8"/>
<path d="M164.497 180.803V201.467H141.186V180.803H164.497Z" fill="#A6A6A6"/>
<path d="M38.0912 32.1445H253.567C255.653 32.1445 257.55 33.8648 257.55 36.1617V176.786C257.55 179.082 255.653 180.803 253.567 180.803H38.0912C36.0094 180.803 34.3026 179.082 34.3026 176.786V36.1617C34.302 33.8648 36.0094 32.1445 38.0912 32.1445Z" fill="#A9ABAE"/>
<path d="M46.6201 38.0742H248.64C250.347 38.0742 251.674 39.4131 251.674 41.134V168.56C251.674 170.28 250.347 171.619 248.64 171.619H43.0213C41.3139 171.619 39.9879 170.28 39.9879 168.56V44.7721C39.9885 40.9441 43.0213 38.0742 46.6201 38.0742Z" fill="#4E5A62"/>
<path d="M145.926 172.576C147.599 172.576 148.959 173.947 148.959 175.639C148.959 177.328 147.599 178.699 145.926 178.699C144.25 178.699 142.893 177.328 142.893 175.639C142.893 173.947 144.25 172.576 145.926 172.576Z" fill="#CCCCCC"/>
<path d="M145.926 173.531C147.078 173.531 148.008 174.476 148.008 175.639C148.008 176.798 147.078 177.741 145.926 177.741C144.775 177.741 143.838 176.799 143.838 175.639C143.838 174.476 144.775 173.531 145.926 173.531Z" fill="#B3B3B3"/>
<path d="M52.4959 43.8141H63.2971V54.7213H52.4959V43.8141ZM65.3842 143.687H76.1854V154.591H65.3842V143.687ZM52.4959 143.687H63.2971V154.591H52.4959V143.687ZM65.3842 131.249H76.1854V142.155H65.3842V131.249ZM52.4959 131.249H63.2971V142.155H52.4959V131.249ZM65.3842 118.621H76.1854V129.72H65.3842V118.621ZM52.4959 118.621H63.2971V129.72H52.4959V118.621ZM65.3842 106.186H76.1854V117.09H65.3842V106.186ZM52.4959 106.186H63.2971V117.09H52.4959V106.186ZM65.3842 93.75H76.1854V104.654H65.3842V93.75ZM52.4959 93.75H63.2971V104.654H52.4959V93.75ZM65.3842 81.3146H76.1854V92.2189H65.3842V81.3146ZM52.4959 81.3146H63.2971V92.2189H52.4959V81.3146ZM65.3842 68.6877H76.1854V79.592H65.3842V68.6877ZM52.4959 68.6877H63.2971V79.592H52.4959V68.6877ZM65.3842 56.25H76.1854V67.1572H65.3842V56.25ZM52.4959 56.25H63.2971V67.1572H52.4959V56.25ZM65.3842 43.8141H76.1854V54.7213H65.3842V43.8141Z" fill="#C2C3C5"/>
<path d="M241.44 166.645H209.223V189.795H241.44V166.645Z" fill="#CBD0D4"/>
<path d="M238.701 169.515H212.066V187.036H238.701V169.515Z" fill="#51A8B1"/>
<path d="M278.583 158.418H246.369V181.568H278.583V158.418Z" fill="#CBD0D4"/>
<path d="M275.846 161.289H249.208V178.81H275.846V161.289Z" fill="#51A8B1"/>
<path d="M274.227 117.666H201.074V170.28H274.227V117.666Z" fill="#E6E7E8"/>
<path d="M267.783 123.98H207.329V163.774H267.783V123.98Z" fill="#51A8B1"/>
<path d="M133.038 3.25137H70.8797C65.5717 3.25137 61.4027 7.46075 61.4027 12.627V48.9803C61.4027 54.3363 65.5717 58.5457 70.8797 58.5457H118.635L132.469 76.5293V58.5463H133.038C138.155 58.5463 142.512 54.3369 142.512 48.9809V12.6275C142.512 7.46075 138.155 3.25137 133.038 3.25137Z" fill="#FFD54F"/>
<path d="M78.8044 37.9822H75.921V19.4508H78.8044V27.3926H82.081V19.4508H85.0171V37.9822H82.081V30.0404H78.8044V37.9822Z" fill="#373435"/>
<path d="M86.2763 19.4508H95.189V22.098H92.1743V37.9822H89.2909V22.098H86.2763V19.4508Z" fill="#373435"/>
<path d="M102.557 32.608L104.522 19.4508H108.533V37.9822H105.807V24.6926L103.815 37.9822H101.088L98.9384 24.8777V37.9822H96.4218V19.4508H100.433L102.557 32.608Z" fill="#373435"/>
<path d="M110.632 19.4508H113.515V35.335H118.26V37.9822H110.632V19.4508Z" fill="#373435"/>
<path d="M123.399 19.2387C126.204 19.2387 127.646 20.9332 127.646 23.8981V24.4805H124.919V23.7129C124.919 22.3892 124.395 21.8859 123.477 21.8859C122.56 21.8859 122.036 22.3887 122.036 23.7129C122.036 27.525 127.672 28.2398 127.672 33.5344C127.672 36.4992 126.204 38.1937 123.373 38.1937C120.542 38.1937 119.074 36.4992 119.074 33.5344V32.3959H121.8V33.7195C121.8 35.0431 122.377 35.5201 123.295 35.5201C124.212 35.5201 124.789 35.0437 124.789 33.7195C124.789 29.9074 119.153 29.1926 119.153 23.8981C119.153 20.9332 120.595 19.2387 123.399 19.2387Z" fill="#373435"/>
<path d="M158.243 137.946C158.621 138.904 158.811 139.669 159.002 140.624H163.171L163.361 145.791L159.192 145.983C159.002 146.938 158.811 147.896 158.433 148.853L162.035 150.957L159.379 155.548L155.968 153.443C155.401 154.209 154.641 154.782 153.884 155.548L155.968 158.991L151.421 161.67L149.524 158.226C148.579 158.609 147.63 158.8 146.681 158.991V162.819H141.376V159.183C140.43 158.991 139.482 158.8 138.533 158.418L136.639 161.67L132.092 158.991L133.986 155.739C133.228 155.166 132.66 154.59 131.902 153.824L128.869 155.739L126.216 151.146L129.249 149.234C128.869 148.276 128.678 147.321 128.488 146.364H124.89V141.197L128.488 141.008C128.678 140.051 128.869 138.904 129.249 137.946L126.026 136.034L128.678 131.44L132.092 133.355C132.66 132.587 133.418 132.016 134.174 131.44L132.092 127.997L136.829 125.319L138.723 128.763C139.669 128.571 140.43 128.378 141.376 128.189V124.17H146.681V128.189C147.63 128.378 148.388 128.763 149.337 128.954L151.421 125.319L155.969 127.996L153.884 131.632C154.453 132.206 155.023 132.779 155.591 133.547L159.192 131.248L161.845 135.841L158.243 137.946Z" fill="#E6E7E8"/>
<path d="M150.905 139.355C153.162 143.174 151.925 148.116 148.144 150.397C144.363 152.675 139.466 151.427 137.21 147.609C134.95 143.793 136.187 138.848 139.968 136.57C143.751 134.29 148.645 135.538 150.905 139.355Z" fill="#D2D3D5"/>
<path d="M149.396 140.264C151.157 143.243 150.193 147.097 147.245 148.874C144.296 150.651 140.476 149.678 138.718 146.702C136.955 143.725 137.919 139.869 140.868 138.094C143.818 136.314 147.635 137.287 149.396 140.264Z" fill="#BDBFC1"/>
<path d="M181.365 131.824C181.554 132.206 181.742 132.779 181.742 133.163H184.017V135.841H181.932C181.742 136.415 181.742 136.796 181.554 137.372L183.449 138.328L181.932 140.816L180.226 139.669C180.038 140.05 179.657 140.435 179.279 140.816L180.226 142.539L177.953 143.878L177.004 142.155C176.436 142.347 176.056 142.539 175.488 142.539V144.452H172.835V142.539C172.457 142.539 171.887 142.347 171.319 142.155L170.56 143.878L168.098 142.539L169.044 140.816C168.666 140.624 168.288 140.242 168.098 139.859L166.581 140.816L165.065 138.52L166.772 137.565C166.581 137.181 166.391 136.607 166.204 136.034H164.497V133.355H166.204C166.39 132.779 166.581 132.398 166.772 131.824L165.065 130.867L166.391 128.571L168.098 129.528C168.476 129.146 168.857 128.763 169.234 128.378L168.098 126.658L170.56 125.319L171.509 127.231C171.887 127.039 172.457 126.85 172.835 126.85V124.745H175.488V126.85C176.056 127.039 176.436 127.039 176.815 127.231L177.953 125.319L180.226 126.658L179.279 128.571C179.47 128.954 179.848 129.146 180.038 129.528L181.932 128.378L183.258 130.678L181.365 131.824Z" fill="#E6E7E8"/>
<path d="M177.701 132.52C178.85 134.463 178.223 136.978 176.297 138.138C174.375 139.297 171.884 138.662 170.735 136.721C169.586 134.777 170.216 132.265 172.139 131.102C174.064 129.946 176.555 130.579 177.701 132.52Z" fill="#D2D3D5"/>
<path d="M176.936 132.984C177.833 134.497 177.342 136.46 175.841 137.363C174.342 138.268 172.4 137.773 171.503 136.257C170.607 134.744 171.099 132.785 172.597 131.879C174.098 130.973 176.041 131.469 176.936 132.984Z" fill="#BDBFC1"/>
<path d="M138.343 95.8547C138.723 97.0043 138.913 97.9594 139.104 99.1061L144.409 98.9139V105.422L139.291 105.612C139.104 106.761 138.913 107.908 138.533 109.055L142.893 111.733L139.669 117.281L135.312 114.795C134.745 115.75 133.796 116.518 133.038 117.281L135.5 121.491L129.817 124.745L127.542 120.728C126.406 121.109 125.269 121.491 124.131 121.683V126.276H117.687V121.875C116.361 121.683 115.225 121.301 114.088 120.92L111.811 124.745L106.315 121.491L108.403 117.666C107.642 116.9 106.886 116.135 106.128 115.369L102.336 117.473L98.9256 111.926L102.717 109.631C102.336 108.482 101.959 107.332 101.769 106.185H97.4115L97.2211 99.682H101.769C101.959 98.3432 102.336 97.0037 102.717 95.8541L98.9256 93.5578L102.146 87.818L106.128 90.1143C106.886 89.3484 107.641 88.394 108.592 87.818L106.315 83.6086L111.811 80.3572L114.276 84.5666C115.414 84.1852 116.551 83.993 117.687 83.8008V78.8262H124.13V83.993C125.269 84.1852 126.215 84.3738 127.351 84.7559L129.816 80.3572L135.499 83.6086L132.847 88.2018C133.607 88.7754 134.363 89.5406 134.934 90.3064L139.481 87.6258L142.702 93.174L138.343 95.8547Z" fill="#E6E7E8"/>
<path d="M129.262 97.5105C132.03 102.189 130.513 108.246 125.882 111.041C121.245 113.836 115.245 112.305 112.477 107.626C109.708 102.947 111.225 96.8906 115.86 94.0957C120.494 91.3008 126.493 92.8318 129.262 97.5105Z" fill="#D2D3D5"/>
<path d="M127.414 98.6238C129.574 102.272 128.391 106.996 124.777 109.175C121.163 111.355 116.485 110.162 114.325 106.513C112.165 102.864 113.348 98.141 116.963 95.9613C120.577 93.7816 125.257 94.9752 127.414 98.6238Z" fill="#BDBFC1"/>
<path d="M272.52 12.8191H157.866V100.063H272.52V12.8191Z" fill="#E6E7E8"/>
<path d="M157.866 12.8191H272.52V24.4893H157.866V12.8191Z" fill="#0D3652"/>
<path d="M157.866 31.3764H272.52V24.4893H157.866V31.3764Z" fill="#699392"/>
<path d="M212.006 72.7049H166.962V77.7317H212.006V72.7049Z" fill="#607D8B"/>
<path d="M231.043 72.7049H215.096V77.7317H231.043V72.7049Z" fill="#607D8B"/>
<path d="M263.503 72.7049H234.428V77.7317H263.503V72.7049Z" fill="#607D8B"/>
<path d="M257.678 79.7842H212.634V84.8109H257.678V79.7842Z" fill="#607D8B"/>
<path d="M209.626 79.7842H193.682V84.8109H209.626V79.7842Z" fill="#607D8B"/>
<path d="M190.351 79.7842H161.276V84.8109H190.351V79.7842Z" fill="#607D8B"/>
<path d="M267.913 86.2869H222.867V91.316H267.913V86.2869Z" fill="#607D8B"/>
<path d="M219.862 86.2869H203.915V91.316H219.862V86.2869Z" fill="#607D8B"/>
<path d="M200.583 86.2869H171.509V91.316H200.583V86.2869Z" fill="#607D8B"/>
<path d="M166.204 25.8281C167.353 25.8281 168.289 26.7727 168.289 27.9357C168.289 29.0988 167.353 30.0375 166.204 30.0375C165.052 30.0375 164.119 29.0982 164.119 27.9357C164.119 26.7732 165.052 25.8281 166.204 25.8281Z" fill="#F48884"/>
<path d="M171.887 25.8281C173.039 25.8281 173.972 26.7727 173.972 27.9357C173.972 29.0988 173.039 30.0375 171.887 30.0375C170.738 30.0375 169.802 29.0982 169.802 27.9357C169.802 26.7732 170.739 25.8281 171.887 25.8281Z" fill="#5CC6D0"/>
<path d="M177.195 25.8281C178.346 25.8281 179.28 26.7727 179.28 27.9357C179.28 29.0988 178.346 30.0375 177.195 30.0375C176.044 30.0375 175.11 29.0982 175.11 27.9357C175.11 26.7732 176.044 25.8281 177.195 25.8281Z" fill="#A7C4D2"/>
<path d="M185.534 29.8482H270.813V26.2125H185.534V29.8482Z" fill="#537473"/>
<path d="M267.214 35.3959H163.362V68.3039H267.214V35.3959Z" fill="#E84E40"/>
<path d="M278.583 155.356H277.256V117.666C277.256 115.943 275.93 114.604 274.226 114.604H260.579V103.124H272.52C274.227 103.124 275.554 101.784 275.554 100.064V12.8191C275.554 11.0988 274.227 9.75938 272.52 9.75938H157.866C156.159 9.75938 154.833 11.0988 154.833 12.8191V29.0818H145.546V12.6275C145.546 5.74043 139.86 0 133.038 0H70.8797C63.8678 0 58.3717 5.74043 58.3717 12.6275V29.0824H38.0912C34.3025 29.0824 31.2691 32.3338 31.2691 36.1623V176.786C31.2691 180.803 34.3019 183.865 38.0912 183.865H120.911V188.84C112.382 189.987 103.095 192.092 95.5148 195.728C90.2092 198.213 83.1978 202.615 83.1978 209.502C83.1978 209.886 83.1978 210.268 83.1978 210.652C83.1978 211.033 83.1978 211.225 83.1978 211.607C83.1978 211.99 83.1978 212.372 83.1978 212.564C83.1978 212.946 83.1978 213.33 83.1978 213.711C83.1978 222.321 94.3787 227.488 101.201 229.782C113.518 234.184 128.113 235.714 141.187 236.099C142.513 236.099 144.03 236.099 145.356 236.099C159.38 236.099 174.921 234.567 188.187 230.358C195.199 227.87 207.707 222.705 207.707 213.711C207.707 213.33 207.707 212.946 207.517 212.564C207.707 212.372 207.707 211.99 207.707 211.607C207.707 211.226 207.707 211.033 207.517 210.652C207.707 210.268 207.707 209.886 207.707 209.502C207.707 202.615 200.695 198.213 195.199 195.728C187.619 192.092 178.332 189.987 169.993 188.84V183.865H206.19V189.795C206.19 191.518 207.706 192.857 209.224 192.857H241.441C243.145 192.857 244.661 191.519 244.661 189.795V184.058C245.04 184.439 245.797 184.821 246.369 184.821H278.583C280.29 184.821 281.616 183.292 281.616 181.569V158.419C281.616 156.695 280.29 155.356 278.583 155.356ZM278.583 181.568H246.369V180.803H241.441V189.795H209.224V180.803H166.963V191.518C188.946 194.196 204.674 201.274 204.674 209.501C204.674 209.885 204.486 210.267 204.486 210.65C204.486 210.84 204.674 211.224 204.674 211.605C204.674 211.989 204.486 212.371 204.486 212.563C204.486 212.944 204.674 213.329 204.674 213.71C204.674 224.425 178.141 233.035 145.355 233.035C144.029 233.035 142.512 233.035 141.186 233.035C110.485 232.27 86.2301 223.852 86.2301 213.71C86.2301 213.329 86.2301 212.944 86.2301 212.563C86.2301 212.371 86.2301 211.989 86.2301 211.605C86.2301 211.225 86.2301 210.84 86.2301 210.65C86.2301 210.267 86.2301 209.885 86.2301 209.501C86.2301 201.274 101.959 194.196 123.941 191.518V180.803H38.0912C36.0094 180.803 34.3025 179.082 34.3025 176.786V36.1617C34.3025 33.8648 36.01 32.1445 38.0912 32.1445H61.4027V12.627C61.4027 7.46016 65.5717 3.25137 70.8797 3.25137H133.038C138.155 3.25137 142.512 7.46074 142.512 12.627V32.1445H157.865V31.3764V24.4893V12.8191H272.52V24.4893V31.3764V100.064H257.55V117.666H274.227V158.418H278.583V181.568H278.583Z" fill="#4E5A62"/>
<path d="M40.7443 242.22C58.9371 242.22 77.3209 242.22 95.5148 242.22C113.708 242.22 132.092 242.22 150.283 242.22C168.667 242.22 186.86 242.22 205.243 242.22C223.434 242.22 241.819 242.22 260.012 242.22C263.046 246.429 266.075 250.446 269.109 254.655C272.33 258.864 275.173 262.881 278.204 267.091C281.238 271.11 284.459 275.319 287.49 279.529C290.522 283.546 293.556 287.755 296.586 291.964C272.141 291.964 247.695 291.964 223.246 291.964C198.799 291.964 174.352 291.964 149.904 291.964C125.647 291.964 101.2 291.964 76.7525 291.964C52.3055 291.964 27.8578 291.964 3.60117 291.964C6.63398 287.755 9.66738 283.546 12.8853 279.529C15.9182 275.319 18.9516 271.11 22.1748 267.091C25.2053 262.881 28.4256 258.673 31.4596 254.655C34.493 250.446 37.7139 246.428 40.7443 242.22Z" fill="#E6E6E6"/>
<path d="M4.54747 291.198H295.451C296.399 291.198 296.968 292.537 296.968 294.067C296.968 295.599 296.399 296.937 295.451 296.937H4.54747C3.60177 296.937 3.034 295.599 3.034 294.067C3.03341 292.537 3.60118 291.198 4.54747 291.198Z" fill="#CCCCCC"/>
<path d="M4.54745 291.582C3.60175 291.582 3.41132 293.494 3.41132 294.067C3.41132 294.64 3.60175 296.556 4.54745 296.556H295.451C296.399 296.556 296.777 294.64 296.777 294.067C296.777 293.494 296.399 291.582 295.451 291.582H4.54745Z" fill="#B3B3B3"/>
<path d="M146.116 242.22H150.283C168.667 242.22 186.86 242.22 205.243 242.22C223.434 242.22 241.819 242.22 260.012 242.22C263.046 246.429 266.075 250.446 269.109 254.655C272.33 258.864 275.173 262.881 278.204 267.091C281.238 271.11 284.459 275.319 287.49 279.529C290.522 283.546 293.556 287.755 296.586 291.964C272.141 291.964 247.695 291.964 223.246 291.964C198.799 291.964 174.352 291.964 149.905 291.964H146.116V242.22V242.22Z" fill="#CFCFCF"/>
<path d="M25.5832 279.144C39.6082 279.144 53.632 279.144 67.8463 279.144C66.8982 280.866 66.1389 282.588 65.3836 284.31C50.9789 284.31 36.5748 284.118 22.1748 284.118C23.1211 282.588 24.4477 280.867 25.5832 279.144Z" fill="#CCCCCC"/>
<path d="M70.6898 279.144C75.2367 279.144 79.7842 279.144 84.3334 279.336C83.5752 280.866 83.0068 282.588 82.4391 284.31C77.7018 284.31 72.9621 284.31 68.4146 284.31C69.1728 282.588 69.9316 280.867 70.6898 279.144Z" fill="#CCCCCC"/>
<path d="M86.6086 279.336C91.1555 279.336 95.7053 279.336 100.065 279.336C99.494 281.059 99.116 282.779 98.5483 284.502C93.9984 284.502 89.2611 284.502 84.7143 284.31C85.282 282.588 85.8498 280.867 86.6086 279.336Z" fill="#CCCCCC"/>
<path d="M102.336 279.336C106.886 279.336 111.433 279.336 115.98 279.336C115.602 281.059 115.034 282.779 114.844 284.502C110.107 284.502 105.56 284.502 100.82 284.502C101.2 282.779 101.769 281.06 102.336 279.336Z" fill="#CCCCCC"/>
<path d="M118.258 279.336C122.615 279.336 127.162 279.527 131.712 279.527C131.521 281.248 131.331 282.971 130.954 284.691C126.406 284.691 121.666 284.502 117.12 284.502C117.309 282.779 117.687 281.06 118.258 279.336Z" fill="#CCCCCC"/>
<path d="M133.986 279.528C138.533 279.528 143.083 279.528 147.63 279.528C147.443 281.249 147.253 282.972 147.253 284.692C142.512 284.692 137.965 284.692 133.228 284.692C133.418 282.971 133.608 281.248 133.986 279.528Z" fill="#CCCCCC"/>
<path d="M149.715 279.528C154.265 279.528 158.811 279.528 163.362 279.72C163.362 281.44 163.362 283.164 163.362 284.884C158.811 284.884 154.074 284.692 149.525 284.692C149.524 282.971 149.715 281.248 149.715 279.528Z" fill="#CCCCCC"/>
<path d="M165.634 279.72C170.184 279.72 174.73 279.72 179.28 279.72C179.28 281.44 179.47 283.164 179.658 284.884C174.921 284.884 170.374 284.884 165.634 284.884C165.634 283.164 165.634 281.44 165.634 279.72Z" fill="#CCCCCC"/>
<path d="M181.365 279.72C185.912 279.72 190.46 279.72 195.008 279.72C195.198 281.44 195.576 283.353 195.957 285.076C191.22 285.076 186.482 284.885 181.932 284.885C181.742 283.164 181.554 281.44 181.365 279.72Z" fill="#CCCCCC"/>
<path d="M197.283 279.72C201.83 279.909 206.379 279.909 210.926 279.909C211.307 281.633 211.685 283.353 212.065 285.076C207.328 285.076 202.778 285.076 198.041 285.076C197.851 283.353 197.473 281.633 197.283 279.72Z" fill="#CCCCCC"/>
<path d="M213.012 279.909C217.562 279.909 222.108 279.909 226.658 279.909C227.226 281.633 227.794 283.353 228.362 285.268C223.625 285.076 219.077 285.076 214.34 285.076C213.96 283.353 213.392 281.633 213.012 279.909Z" fill="#CCCCCC"/>
<path d="M228.743 279.909C242.955 279.909 256.978 279.909 271.004 280.102C271.952 281.824 272.897 283.545 273.846 285.268C259.444 285.268 245.04 285.268 230.638 285.268C229.879 283.353 229.311 281.633 228.743 279.909Z" fill="#CCCCCC"/>
<path d="M66.1394 272.641C70.6898 272.641 75.0486 272.641 79.4056 272.641C78.457 274.362 77.7012 276.084 76.7531 277.805C72.2062 277.805 67.6564 277.805 63.2971 277.613C64.2457 275.892 65.1937 274.361 66.1394 272.641Z" fill="#CCCCCC"/>
<path d="M81.4904 272.641C85.8498 272.641 90.2092 272.641 94.5691 272.641C93.808 274.362 93.2426 276.084 92.482 277.805C87.9346 277.805 83.3877 277.805 78.8379 277.805C79.7836 276.084 80.7346 274.361 81.4904 272.641Z" fill="#CCCCCC"/>
<path d="M96.8408 272.641C101.2 272.641 105.56 272.641 109.919 272.641C109.348 274.362 108.78 276.084 108.212 277.805C103.662 277.805 99.1148 277.805 94.568 277.805C95.3244 276.084 96.0826 274.361 96.8408 272.641Z" fill="#CCCCCC"/>
<path d="M112.001 272.641C116.361 272.83 120.72 272.83 125.079 272.83C124.699 274.553 124.319 276.274 123.754 277.997C119.394 277.997 114.844 277.997 110.297 277.805C110.865 276.084 111.434 274.361 112.001 272.641Z" fill="#CCCCCC"/>
<path d="M127.352 272.83C131.712 272.83 136.071 272.83 140.43 272.83C140.05 274.553 139.86 276.274 139.482 277.997C134.935 277.997 130.576 277.997 126.026 277.997C126.406 276.274 126.784 274.553 127.352 272.83Z" fill="#CCCCCC"/>
<path d="M142.512 272.83C146.872 272.83 151.232 272.83 155.591 272.83C155.591 274.746 155.401 276.466 155.211 278.189C150.664 277.997 146.116 277.997 141.757 277.997C141.946 276.274 142.325 274.553 142.512 272.83Z" fill="#CCCCCC"/>
<path d="M157.866 272.83C162.223 273.022 166.582 273.022 170.941 273.022C170.941 274.745 170.941 276.466 170.941 278.188C166.391 278.188 161.845 278.188 157.485 278.188C157.485 276.466 157.676 274.745 157.866 272.83Z" fill="#CCCCCC"/>
<path d="M173.026 273.022C177.385 273.022 181.742 273.022 186.292 273.022C186.292 274.745 186.482 276.466 186.67 278.188C182.123 278.188 177.574 278.188 173.027 278.188C173.026 276.466 173.026 274.745 173.026 273.022Z" fill="#CCCCCC"/>
<path d="M188.377 273.022C192.734 273.022 197.094 273.022 201.452 273.022C201.642 274.935 202.02 276.657 202.211 278.379C197.661 278.379 193.304 278.379 188.754 278.189C188.564 276.466 188.377 274.745 188.377 273.022Z" fill="#CCCCCC"/>
<path d="M203.537 273.022C207.896 273.214 212.443 273.214 216.612 273.214C217.181 274.935 217.561 276.657 217.939 278.378C213.392 278.378 209.033 278.378 204.486 278.378C204.105 276.657 203.915 274.935 203.537 273.022Z" fill="#CCCCCC"/>
<path d="M218.887 273.214C223.246 273.214 227.603 273.214 231.963 273.214C232.531 274.935 233.102 276.657 233.67 278.378C229.119 278.378 224.763 278.378 220.213 278.378C219.646 276.657 219.265 274.935 218.887 273.214Z" fill="#CCCCCC"/>
<path d="M234.048 273.214C245.229 273.214 256.41 273.214 267.592 273.214C268.35 274.935 269.298 276.85 270.244 278.57C258.685 278.57 247.314 278.57 235.942 278.379C235.187 276.657 234.616 274.935 234.048 273.214Z" fill="#CCCCCC"/>
<path d="M30.7014 272.449C41.8828 272.449 53.0643 272.449 64.2457 272.641C63.1072 274.362 62.1609 275.893 61.0242 277.612C49.6529 277.612 38.0912 277.612 26.7223 277.612C28.0482 275.892 29.3754 274.17 30.7014 272.449Z" fill="#CCCCCC"/>
<path d="M55.3389 265.943C59.5084 265.943 63.6773 265.943 68.0373 265.943C67.0887 267.666 65.9496 269.387 65.0039 271.109C60.6451 271.109 56.2852 271.109 51.9258 271.109C53.0643 269.387 54.2021 267.666 55.3389 265.943Z" fill="#CCCCCC"/>
<path d="M69.9316 265.943C74.2887 265.943 78.4576 265.943 82.6272 265.943C81.8707 267.666 80.9227 269.387 80.1645 271.109C75.8057 271.109 71.4457 271.109 67.0893 271.109C68.0373 269.387 68.983 267.666 69.9316 265.943Z" fill="#CCCCCC"/>
<path d="M84.7137 265.943C88.8832 265.943 93.2426 266.135 97.4121 266.135C96.6516 267.855 96.0826 269.387 95.3244 271.109C90.9656 271.109 86.6086 271.109 82.2492 271.109C83.0068 269.387 83.9531 267.666 84.7137 265.943Z" fill="#CCCCCC"/>
<path d="M99.4934 266.135C103.663 266.135 107.832 266.135 112.001 266.135C111.623 267.855 111.055 269.579 110.484 271.299C106.128 271.299 101.769 271.299 97.4115 271.109C97.977 269.579 98.7381 267.855 99.4934 266.135Z" fill="#CCCCCC"/>
<path d="M114.088 266.135C118.446 266.135 122.614 266.135 126.784 266.135C126.406 267.855 126.026 269.579 125.458 271.299C121.1 271.299 116.931 271.299 112.572 271.299C113.14 269.579 113.518 267.855 114.088 266.135Z" fill="#CCCCCC"/>
<path d="M128.869 266.135C133.038 266.135 137.207 266.135 141.566 266.135C141.186 267.855 140.998 269.579 140.62 271.299C136.261 271.299 131.902 271.299 127.542 271.299C128.113 269.579 128.488 267.855 128.869 266.135Z" fill="#CCCCCC"/>
<path d="M143.651 266.135C147.82 266.135 151.989 266.135 156.349 266.327C156.159 268.048 155.969 269.771 155.781 271.491C151.421 271.491 147.062 271.491 142.703 271.299C143.083 269.579 143.273 267.855 143.651 266.135Z" fill="#CCCCCC"/>
<path d="M158.243 266.327C162.412 266.327 166.772 266.327 170.941 266.327C170.941 268.048 170.941 269.771 170.941 271.491C166.582 271.491 162.222 271.491 157.866 271.491C158.053 269.771 158.053 268.048 158.243 266.327Z" fill="#CCCCCC"/>
<path d="M173.026 266.327C177.195 266.327 181.365 266.327 185.724 266.327C185.724 268.048 185.912 269.771 186.102 271.491C181.743 271.491 177.386 271.491 173.027 271.491C173.026 269.771 173.026 268.048 173.026 266.327Z" fill="#CCCCCC"/>
<path d="M187.618 266.327C191.978 266.327 196.147 266.327 200.317 266.327C200.694 268.048 200.885 269.771 201.262 271.683C196.905 271.683 192.546 271.491 188.187 271.491C187.997 269.771 187.809 268.048 187.618 266.327Z" fill="#CCCCCC"/>
<path d="M202.401 266.327C206.57 266.327 210.927 266.327 215.096 266.516C215.476 268.239 215.855 269.96 216.422 271.683C212.066 271.683 207.706 271.683 203.347 271.683C202.968 269.96 202.779 268.048 202.401 266.327Z" fill="#CCCCCC"/>
<path d="M217.181 266.516C221.35 266.516 225.519 266.516 229.879 266.516C230.447 268.239 231.017 269.96 231.585 271.683C227.226 271.683 222.867 271.683 218.51 271.683C218.129 269.96 217.562 268.239 217.181 266.516Z" fill="#CCCCCC"/>
<path d="M231.773 266.516C236.133 266.516 240.302 266.516 244.471 266.516C245.229 268.239 245.988 269.96 246.557 271.683C242.387 271.683 238.03 271.683 233.671 271.683C233.102 269.96 232.344 268.239 231.773 266.516Z" fill="#CCCCCC"/>
<path d="M246.556 266.516C252.431 266.516 258.305 266.516 263.991 266.516C264.939 268.239 265.888 269.96 266.835 271.683C260.77 271.683 254.707 271.683 248.831 271.683C248.072 269.96 247.314 268.239 246.556 266.516Z" fill="#CCCCCC"/>
<path d="M35.8189 265.943C41.5049 265.943 47.3789 265.943 53.2518 265.943C52.1156 267.666 50.9789 269.387 49.8434 271.109C43.7771 271.109 37.9037 271.109 31.8398 271.109C33.1664 269.387 34.493 267.666 35.8189 265.943Z" fill="#CCCCCC"/>
<path d="M40.1783 259.247C44.3478 259.247 48.3264 259.247 52.4959 259.247C51.5467 260.969 50.5986 262.691 49.4625 264.411C45.1037 264.411 40.9342 264.411 36.7652 264.411C38.0912 262.691 39.2303 260.969 40.1783 259.247Z" fill="#CCCCCC"/>
<path d="M54.3908 259.247C58.3717 259.247 62.5412 259.247 66.7102 259.247C65.7621 260.969 65.0033 262.691 63.8678 264.411C59.6988 264.411 55.5293 264.411 51.3604 264.411C52.4959 262.691 53.4422 260.969 54.3908 259.247Z" fill="#CCCCCC"/>
<path d="M68.6022 259.247C72.5836 259.437 76.7531 259.437 80.7346 259.437C80.1639 261.16 79.4057 262.881 78.6469 264.411C74.2881 264.411 70.1186 264.411 65.9496 264.411C66.8982 262.691 67.8469 260.969 68.6022 259.247Z" fill="#CCCCCC"/>
<path d="M82.8164 259.437C86.7961 259.437 90.9651 259.437 94.9459 259.437C94.5686 261.16 93.8074 262.881 93.242 264.603C88.8826 264.603 84.7131 264.603 80.5447 264.603C81.4904 262.881 82.2486 261.161 82.8164 259.437Z" fill="#CCCCCC"/>
<path d="M97.0307 259.437C101.01 259.437 105.179 259.437 109.158 259.437C108.78 261.16 108.403 262.881 107.832 264.603C103.473 264.603 99.3035 264.603 95.1346 264.603C95.8951 262.881 96.4606 261.161 97.0307 259.437Z" fill="#CCCCCC"/>
<path d="M111.246 259.437C115.225 259.437 119.394 259.437 123.373 259.437C123.182 261.16 122.804 262.881 122.427 264.603C118.257 264.603 114.088 264.603 109.729 264.603C110.297 262.881 110.865 261.161 111.246 259.437Z" fill="#CCCCCC"/>
<path d="M125.458 259.437C129.439 259.437 133.608 259.437 137.587 259.437C137.397 261.16 137.207 262.881 137.017 264.603C132.848 264.603 128.488 264.603 124.32 264.603C124.89 262.881 125.079 261.161 125.458 259.437Z" fill="#CCCCCC"/>
<path d="M139.669 259.437C143.651 259.437 147.82 259.437 151.8 259.437C151.8 261.16 151.8 262.881 151.613 264.796C147.444 264.603 143.084 264.603 138.915 264.603C139.292 262.881 139.482 261.161 139.669 259.437Z" fill="#CCCCCC"/>
<path d="M153.884 259.437C157.866 259.437 162.035 259.629 166.014 259.629C166.014 261.352 166.204 263.072 166.204 264.796C161.845 264.796 157.866 264.796 153.506 264.796C153.697 263.073 153.884 261.161 153.884 259.437Z" fill="#CCCCCC"/>
<path d="M167.909 259.629C172.078 259.629 176.246 259.629 180.226 259.629C180.415 261.353 180.605 263.073 180.796 264.796C176.437 264.796 172.267 264.796 168.098 264.796C168.098 263.073 168.098 261.353 167.909 259.629Z" fill="#CCCCCC"/>
<path d="M182.311 259.629C186.292 259.629 190.271 259.629 194.44 259.629C194.821 261.353 195.008 263.073 195.389 264.796C191.03 264.796 186.86 264.796 182.691 264.796C182.691 263.073 182.501 261.353 182.311 259.629Z" fill="#CCCCCC"/>
<path d="M196.335 259.629C200.504 259.629 204.486 259.629 208.655 259.629C209.223 261.353 209.6 263.073 209.981 264.796C205.622 264.796 201.452 264.796 197.283 264.796C197.094 263.073 196.716 261.353 196.335 259.629Z" fill="#CCCCCC"/>
<path d="M210.55 259.629C214.719 259.629 218.887 259.629 222.867 259.629C223.434 261.353 224.006 263.073 224.573 264.986C220.404 264.986 216.236 264.986 211.874 264.797C211.498 263.073 211.117 261.353 210.55 259.629Z" fill="#CCCCCC"/>
<path d="M225.142 259.629C229.12 259.629 233.289 259.629 237.271 259.629C238.029 261.353 238.598 263.265 239.356 264.986C235.187 264.986 231.018 264.986 226.848 264.986C226.278 263.265 225.71 261.353 225.142 259.629Z" fill="#CCCCCC"/>
<path d="M239.734 259.629C246.746 259.629 253.567 259.629 260.58 259.629C261.528 261.543 262.287 263.265 263.233 264.986C256.033 264.986 249.02 264.986 241.819 264.986C241.059 263.265 240.492 261.353 239.734 259.629Z" fill="#CCCCCC"/>
<path d="M51.1699 251.211C53.2523 251.211 55.5293 251.211 57.6111 251.211C58.9377 251.211 59.8857 251.595 59.6988 252.169C59.318 252.742 57.9914 253.124 56.8559 253.124C54.5807 253.124 52.306 253.124 50.0332 253.124C48.7043 253.124 47.9461 252.742 48.1365 252.169C48.5174 251.595 49.8434 251.211 51.1699 251.211Z" fill="#CCCCCC"/>
<path d="M63.8678 251.211C66.1394 251.211 68.2242 251.211 70.4994 251.211C71.8254 251.211 72.5842 251.595 72.3931 252.169C72.2062 252.742 71.0672 253.315 69.7406 253.315C67.466 253.315 65.1931 253.124 63.1066 253.124C61.7801 253.124 60.8344 252.742 61.0242 252.169C61.4021 251.595 62.5412 251.211 63.8678 251.211Z" fill="#CCCCCC"/>
<path d="M76.7531 251.211C78.8379 251.211 81.1101 251.211 83.1978 251.211C84.5244 251.211 85.4695 251.595 85.2826 252.169C85.0922 252.742 83.9537 253.315 82.6271 253.315C80.3549 253.315 78.0797 253.315 75.9955 253.315C74.6689 253.315 73.7232 252.742 73.9107 252.169C74.1006 251.595 75.4271 251.211 76.7531 251.211Z" fill="#CCCCCC"/>
<path d="M89.4516 251.211C91.7262 251.211 93.808 251.211 96.0826 251.211C97.4121 251.211 98.3578 251.595 98.1674 252.169C97.977 252.742 96.8414 253.315 95.5148 253.315C93.2426 253.315 91.1555 253.315 88.8832 253.315C87.5566 253.315 86.6086 252.742 86.7961 252.169C86.9859 251.595 88.1221 251.211 89.4516 251.211Z" fill="#CCCCCC"/>
<path d="M102.336 251.211C104.423 251.211 106.696 251.211 108.78 251.211C110.107 251.211 111.055 251.595 111.055 252.169C110.865 252.742 109.729 253.315 108.403 253.315C106.128 253.315 104.044 253.315 101.769 253.315C100.442 253.315 99.4934 252.742 99.6838 252.169C99.8742 251.595 101.01 251.211 102.336 251.211Z" fill="#CCCCCC"/>
<path d="M115.035 251.211C117.309 251.211 119.394 251.211 121.666 251.211C122.992 251.211 123.941 251.595 123.941 252.169C123.941 252.742 122.615 253.315 121.288 253.315C119.204 253.315 116.931 253.315 114.654 253.315C113.327 253.315 112.382 252.742 112.572 252.169C112.572 251.595 113.708 251.211 115.035 251.211Z" fill="#CCCCCC"/>
<path d="M127.922 251.211C130.004 251.211 132.281 251.211 134.554 251.211C135.69 251.211 136.829 251.595 136.829 252.169C136.638 252.742 135.69 253.315 134.364 253.315C132.091 253.315 129.816 253.315 127.732 253.315C126.405 253.315 125.269 252.742 125.457 252.169C125.458 251.595 126.596 251.211 127.922 251.211Z" fill="#CCCCCC"/>
<path d="M140.62 251.211C142.893 251.211 144.977 251.211 147.252 251.211C148.579 251.211 149.524 251.595 149.715 252.169C149.715 252.935 148.579 253.315 147.252 253.315C144.977 253.315 142.702 253.315 140.62 253.315C139.291 253.315 138.155 252.742 138.155 252.169C138.343 251.595 139.292 251.211 140.62 251.211Z" fill="#CCCCCC"/>
<path d="M153.506 251.211C155.591 251.211 157.865 251.211 160.138 251.211C161.276 251.211 162.412 251.784 162.412 252.357C162.602 252.934 161.464 253.315 160.138 253.315C157.865 253.315 155.78 253.315 153.506 253.315C152.18 253.315 151.041 252.935 151.041 252.357C151.041 251.595 152.18 251.211 153.506 251.211Z" fill="#CCCCCC"/>
<path d="M166.204 251.211C168.476 251.211 170.561 251.211 172.835 251.211C174.162 251.211 175.301 251.784 175.301 252.357C175.488 252.934 174.352 253.315 173.026 253.315C170.941 253.315 168.666 253.315 166.391 253.315C165.065 253.315 164.119 252.935 163.929 252.357C163.929 251.784 164.875 251.211 166.204 251.211Z" fill="#CCCCCC"/>
<path d="M179.089 251.211C181.174 251.211 183.449 251.211 185.723 251.211C186.86 251.211 187.996 251.784 188.186 252.357C188.376 252.934 187.427 253.315 185.911 253.315C183.826 253.315 181.553 253.315 179.279 253.315C178.141 253.315 177.004 252.935 176.815 252.357C176.627 251.784 177.763 251.211 179.089 251.211Z" fill="#CCCCCC"/>
<path d="M191.787 251.211C194.062 251.211 196.147 251.211 198.418 251.211C199.745 251.211 200.884 251.784 201.074 252.357C201.261 252.934 200.316 253.315 198.99 253.315C196.714 253.315 194.439 253.315 192.355 253.315C191.029 253.315 189.892 252.935 189.703 252.357C189.513 251.784 190.461 251.211 191.787 251.211Z" fill="#CCCCCC"/>
<path d="M204.674 251.211C206.758 251.211 209.033 251.211 211.307 251.211C212.443 251.211 213.77 251.784 213.96 252.357C214.15 252.934 213.202 253.315 211.874 253.315C209.6 253.315 207.516 253.315 205.243 253.315C203.914 253.315 202.779 252.935 202.588 252.357C202.401 251.784 203.347 251.211 204.674 251.211Z" fill="#CCCCCC"/>
<path d="M217.371 251.211C219.646 251.211 221.73 251.211 224.006 251.211C225.331 251.211 226.657 251.784 226.848 252.357C227.036 252.934 226.09 253.508 224.763 253.508C222.488 253.508 220.404 253.315 218.129 253.315C216.803 253.315 215.667 252.935 215.476 252.357C215.286 251.784 216.236 251.211 217.371 251.211Z" fill="#CCCCCC"/>
<path d="M230.259 251.211C232.345 251.211 234.616 251.211 236.89 251.211C238.029 251.211 239.356 251.784 239.734 252.357C239.924 252.934 238.976 253.508 237.649 253.508C235.564 253.508 233.289 253.508 231.018 253.508C229.689 253.508 228.553 252.934 228.363 252.357C227.984 251.784 228.933 251.211 230.259 251.211Z" fill="#CCCCCC"/>
<path d="M243.145 251.403C245.229 251.403 247.504 251.403 249.589 251.403C250.915 251.403 252.241 251.784 252.622 252.358C252.809 252.935 252.052 253.508 250.726 253.508C248.453 253.508 246.178 253.508 244.094 253.508C242.767 253.508 241.441 252.935 241.06 252.358C240.87 251.784 241.819 251.403 243.145 251.403Z" fill="#CCCCCC"/>
<path d="M55.5293 244.324C57.801 244.324 59.6988 244.897 59.6988 245.471C59.6988 246.236 57.801 246.62 55.5293 246.62C53.2518 246.62 51.3604 246.236 51.3604 245.471C51.3604 244.897 53.2518 244.324 55.5293 244.324Z" fill="#CCCCCC"/>
<path d="M65.7621 244.706C67.2756 244.706 68.4146 245.089 68.4146 245.471C68.4146 246.045 67.2762 246.237 65.7621 246.237C64.0547 246.237 62.9191 246.045 62.9191 245.471C62.9191 245.089 64.0547 244.706 65.7621 244.706Z" fill="#CCCCCC"/>
<path d="M143.838 279.528C144.977 279.528 146.303 279.528 147.63 279.528C147.442 281.249 147.252 282.972 147.252 284.692C145.925 284.692 144.599 284.692 143.461 284.692C143.461 282.971 143.651 281.248 143.838 279.528Z" fill="#B8B8B8"/>
<path d="M149.715 279.528C154.265 279.528 158.811 279.528 163.362 279.72C163.362 281.44 163.362 283.164 163.362 284.884C158.811 284.884 154.074 284.692 149.525 284.692C149.524 282.971 149.715 281.248 149.715 279.528Z" fill="#B8B8B8"/>
<path d="M165.634 279.72C170.184 279.72 174.73 279.72 179.28 279.72C179.28 281.44 179.47 283.164 179.658 284.884C174.921 284.884 170.374 284.884 165.634 284.884C165.634 283.164 165.634 281.44 165.634 279.72Z" fill="#B8B8B8"/>
<path d="M181.365 279.72C185.912 279.72 190.46 279.72 195.008 279.72C195.198 281.44 195.576 283.353 195.957 285.076C191.22 285.076 186.482 284.885 181.932 284.885C181.742 283.164 181.554 281.44 181.365 279.72Z" fill="#B8B8B8"/>
<path d="M197.283 279.72C201.83 279.909 206.379 279.909 210.926 279.909C211.307 281.633 211.685 283.353 212.065 285.076C207.328 285.076 202.778 285.076 198.041 285.076C197.851 283.353 197.473 281.633 197.283 279.72Z" fill="#B8B8B8"/>
<path d="M213.012 279.909C217.562 279.909 222.108 279.909 226.658 279.909C227.226 281.633 227.794 283.353 228.362 285.268C223.625 285.076 219.077 285.076 214.34 285.076C213.96 283.353 213.392 281.633 213.012 279.909Z" fill="#B8B8B8"/>
<path d="M228.743 279.909C242.955 279.909 256.978 279.909 271.004 280.102C271.952 281.824 272.897 283.545 273.846 285.268C259.444 285.268 245.04 285.268 230.638 285.268C229.879 283.353 229.311 281.633 228.743 279.909Z" fill="#B8B8B8"/>
<path d="M144.6 272.83C148.198 272.83 151.99 272.83 155.591 272.83C155.591 274.746 155.401 276.466 155.211 278.189C151.421 277.997 147.63 277.997 143.839 277.997C144.219 276.274 144.409 274.553 144.6 272.83Z" fill="#B8B8B8"/>
<path d="M157.866 272.83C162.223 273.022 166.582 273.022 170.941 273.022C170.941 274.745 170.941 276.466 170.941 278.188C166.391 278.188 161.845 278.188 157.485 278.188C157.485 276.466 157.676 274.745 157.866 272.83Z" fill="#B8B8B8"/>
<path d="M173.026 273.022C177.385 273.022 181.742 273.022 186.292 273.022C186.292 274.745 186.482 276.466 186.67 278.188C182.123 278.188 177.574 278.188 173.027 278.188C173.026 276.466 173.026 274.745 173.026 273.022Z" fill="#B8B8B8"/>
<path d="M188.377 273.022C192.734 273.022 197.094 273.022 201.452 273.022C201.642 274.935 202.02 276.657 202.211 278.379C197.661 278.379 193.304 278.379 188.754 278.189C188.564 276.466 188.377 274.745 188.377 273.022Z" fill="#B8B8B8"/>
<path d="M203.537 273.022C207.896 273.214 212.443 273.214 216.612 273.214C217.181 274.935 217.561 276.657 217.939 278.378C213.392 278.378 209.033 278.378 204.486 278.378C204.105 276.657 203.915 274.935 203.537 273.022Z" fill="#B8B8B8"/>
<path d="M218.887 273.214C223.246 273.214 227.603 273.214 231.963 273.214C232.531 274.935 233.102 276.657 233.67 278.378C229.119 278.378 224.763 278.378 220.213 278.378C219.646 276.657 219.265 274.935 218.887 273.214Z" fill="#B8B8B8"/>
<path d="M234.048 273.214C245.229 273.214 256.41 273.214 267.592 273.214C268.35 274.935 269.298 276.85 270.244 278.57C258.685 278.57 247.314 278.57 235.942 278.379C235.187 276.657 234.616 274.935 234.048 273.214Z" fill="#B8B8B8"/>
<path d="M145.355 266.135C148.959 266.135 152.558 266.135 156.349 266.327C156.159 268.048 155.969 269.771 155.781 271.491C152.18 271.491 148.388 271.491 144.789 271.299C144.977 269.579 145.168 267.855 145.355 266.135Z" fill="#B8B8B8"/>
<path d="M158.243 266.327C162.412 266.327 166.772 266.327 170.941 266.327C170.941 268.048 170.941 269.771 170.941 271.491C166.582 271.491 162.222 271.491 157.866 271.491C158.053 269.771 158.053 268.048 158.243 266.327Z" fill="#B8B8B8"/>
<path d="M173.026 266.327C177.195 266.327 181.365 266.327 185.724 266.327C185.724 268.048 185.912 269.771 186.102 271.491C181.743 271.491 177.386 271.491 173.027 271.491C173.026 269.771 173.026 268.048 173.026 266.327Z" fill="#B8B8B8"/>
<path d="M187.618 266.327C191.978 266.327 196.147 266.327 200.317 266.327C200.694 268.048 200.885 269.771 201.262 271.683C196.905 271.683 192.546 271.491 188.187 271.491C187.997 269.771 187.809 268.048 187.618 266.327Z" fill="#B8B8B8"/>
<path d="M202.401 266.327C206.57 266.327 210.927 266.327 215.096 266.516C215.476 268.239 215.855 269.96 216.422 271.683C212.066 271.683 207.706 271.683 203.347 271.683C202.968 269.96 202.779 268.048 202.401 266.327Z" fill="#B8B8B8"/>
<path d="M217.181 266.516C221.35 266.516 225.519 266.516 229.879 266.516C230.447 268.239 231.017 269.96 231.585 271.683C227.226 271.683 222.867 271.683 218.51 271.683C218.129 269.96 217.562 268.239 217.181 266.516Z" fill="#B8B8B8"/>
<path d="M231.773 266.516C236.133 266.516 240.302 266.516 244.471 266.516C245.229 268.239 245.988 269.96 246.557 271.683C242.387 271.683 238.03 271.683 233.671 271.683C233.102 269.96 232.344 268.239 231.773 266.516Z" fill="#B8B8B8"/>
<path d="M246.556 266.516C252.431 266.516 258.305 266.516 263.991 266.516C264.939 268.239 265.888 269.96 266.835 271.683C260.77 271.683 254.707 271.683 248.831 271.683C248.072 269.96 247.314 268.239 246.556 266.516Z" fill="#B8B8B8"/>
<path d="M145.926 259.437C148.008 259.437 149.905 259.437 151.799 259.437C151.799 261.16 151.799 262.881 151.612 264.796C149.524 264.603 147.63 264.603 145.546 264.603C145.736 262.881 145.926 261.161 145.926 259.437Z" fill="#B8B8B8"/>
<path d="M153.884 259.437C157.866 259.437 162.035 259.629 166.014 259.629C166.014 261.352 166.204 263.072 166.204 264.796C161.845 264.796 157.866 264.796 153.506 264.796C153.697 263.073 153.884 261.161 153.884 259.437Z" fill="#B8B8B8"/>
<path d="M167.909 259.629C172.078 259.629 176.246 259.629 180.226 259.629C180.415 261.353 180.605 263.073 180.796 264.796C176.437 264.796 172.267 264.796 168.098 264.796C168.098 263.073 168.098 261.353 167.909 259.629Z" fill="#B8B8B8"/>
<path d="M182.311 259.629C186.292 259.629 190.271 259.629 194.44 259.629C194.821 261.353 195.008 263.073 195.389 264.796C191.03 264.796 186.86 264.796 182.691 264.796C182.691 263.073 182.501 261.353 182.311 259.629Z" fill="#B8B8B8"/>
<path d="M196.335 259.629C200.504 259.629 204.486 259.629 208.655 259.629C209.223 261.353 209.6 263.073 209.981 264.796C205.622 264.796 201.452 264.796 197.283 264.796C197.094 263.073 196.716 261.353 196.335 259.629Z" fill="#B8B8B8"/>
<path d="M210.55 259.629C214.719 259.629 218.887 259.629 222.867 259.629C223.434 261.353 224.006 263.073 224.573 264.986C220.404 264.986 216.236 264.986 211.874 264.797C211.498 263.073 211.117 261.353 210.55 259.629Z" fill="#B8B8B8"/>
<path d="M225.142 259.629C229.12 259.629 233.289 259.629 237.271 259.629C238.029 261.353 238.598 263.265 239.356 264.986C235.187 264.986 231.018 264.986 226.848 264.986C226.278 263.265 225.71 261.353 225.142 259.629Z" fill="#B8B8B8"/>
<path d="M239.734 259.629C246.746 259.629 253.567 259.629 260.58 259.629C261.528 261.543 262.287 263.265 263.233 264.986C256.033 264.986 249.02 264.986 241.819 264.986C241.059 263.265 240.492 261.353 239.734 259.629Z" fill="#B8B8B8"/>
<path d="M145.926 251.211C146.304 251.211 146.872 251.211 147.253 251.211C148.579 251.211 149.525 251.595 149.715 252.169C149.715 252.935 148.579 253.315 147.253 253.315C146.872 253.315 146.304 253.315 145.926 253.315C145.926 252.551 145.926 251.977 145.926 251.211Z" fill="#B8B8B8"/>
<path d="M153.506 251.211C155.591 251.211 157.865 251.211 160.138 251.211C161.276 251.211 162.412 251.784 162.412 252.357C162.602 252.934 161.464 253.315 160.138 253.315C157.865 253.315 155.78 253.315 153.506 253.315C152.18 253.315 151.041 252.935 151.041 252.357C151.041 251.595 152.18 251.211 153.506 251.211Z" fill="#B8B8B8"/>
<path d="M166.204 251.211C168.476 251.211 170.561 251.211 172.835 251.211C174.162 251.211 175.301 251.784 175.301 252.357C175.488 252.934 174.352 253.315 173.026 253.315C170.941 253.315 168.666 253.315 166.391 253.315C165.065 253.315 164.119 252.935 163.929 252.357C163.929 251.784 164.875 251.211 166.204 251.211Z" fill="#B8B8B8"/>
<path d="M179.089 251.211C181.174 251.211 183.449 251.211 185.723 251.211C186.86 251.211 187.996 251.784 188.186 252.357C188.376 252.934 187.427 253.315 185.911 253.315C183.826 253.315 181.553 253.315 179.279 253.315C178.141 253.315 177.004 252.935 176.815 252.357C176.627 251.784 177.763 251.211 179.089 251.211Z" fill="#B8B8B8"/>
<path d="M191.787 251.211C194.062 251.211 196.147 251.211 198.418 251.211C199.745 251.211 200.884 251.784 201.074 252.357C201.261 252.934 200.316 253.315 198.99 253.315C196.714 253.315 194.439 253.315 192.355 253.315C191.029 253.315 189.892 252.935 189.703 252.357C189.513 251.784 190.461 251.211 191.787 251.211Z" fill="#B8B8B8"/>
<path d="M204.674 251.211C206.758 251.211 209.033 251.211 211.307 251.211C212.443 251.211 213.77 251.784 213.96 252.357C214.15 252.934 213.202 253.315 211.874 253.315C209.6 253.315 207.516 253.315 205.243 253.315C203.914 253.315 202.779 252.935 202.588 252.357C202.401 251.784 203.347 251.211 204.674 251.211Z" fill="#B8B8B8"/>
<path d="M217.371 251.211C219.646 251.211 221.73 251.211 224.006 251.211C225.331 251.211 226.657 251.784 226.848 252.357C227.036 252.934 226.09 253.508 224.763 253.508C222.488 253.508 220.404 253.315 218.129 253.315C216.803 253.315 215.667 252.935 215.476 252.357C215.286 251.784 216.236 251.211 217.371 251.211Z" fill="#B8B8B8"/>
<path d="M230.259 251.211C232.345 251.211 234.616 251.211 236.89 251.211C238.029 251.211 239.356 251.784 239.734 252.357C239.924 252.934 238.976 253.508 237.649 253.508C235.564 253.508 233.289 253.508 231.018 253.508C229.689 253.508 228.553 252.934 228.363 252.357C227.984 251.784 228.933 251.211 230.259 251.211Z" fill="#B8B8B8"/>
<path d="M243.145 251.403C245.229 251.403 247.504 251.403 249.589 251.403C250.915 251.403 252.241 251.784 252.622 252.358C252.809 252.935 252.052 253.508 250.726 253.508C248.453 253.508 246.178 253.508 244.094 253.508C242.767 253.508 241.441 252.935 241.06 252.358C240.87 251.784 241.819 251.403 243.145 251.403Z" fill="#B8B8B8"/>
<path d="M146.116 291.198H295.45C296.398 291.198 296.967 292.537 296.967 294.067C296.967 295.599 296.398 296.937 295.45 296.937H146.116V291.198Z" fill="#B8B8B8"/>
<path d="M146.116 296.556H295.45C296.398 296.556 296.777 294.64 296.777 294.067C296.777 293.494 296.398 291.582 295.45 291.582H146.116V296.556Z" fill="#A1A1A1"/>
<path d="M299.051 290.243C299.051 290.051 298.862 289.859 298.671 289.667C295.831 285.65 292.798 281.633 289.765 277.613C286.735 273.597 283.702 269.388 280.668 265.178C277.638 261.161 274.605 256.952 271.572 252.742C268.541 248.726 265.508 244.516 262.475 240.307C261.907 239.541 260.961 239.157 260.013 239.157H40.7443C39.798 239.157 38.8523 239.541 38.2816 240.307C35.2482 244.516 32.0279 248.533 28.9969 252.742C25.9635 256.952 22.7402 261.161 19.7098 265.178C16.677 269.388 13.4566 273.404 10.4227 277.613C7.38984 281.633 4.35938 285.65 1.32598 289.667C1.32598 289.859 1.13848 290.051 0.948047 290.243C0.19043 291.39 0 292.729 0 294.067C0 296.746 1.32656 300 4.54746 300H295.451C298.671 300 300.001 296.746 300.001 294.067C300 292.729 299.81 291.39 299.051 290.243ZM295.45 296.937H146.116H4.54746C3.60176 296.937 3.03398 295.599 3.03398 294.067C3.03398 293.302 3.22148 292.347 3.60176 291.963C3.60176 291.771 3.60176 291.582 3.7916 291.582C6.825 287.562 9.85547 283.545 12.8859 279.528C15.9188 275.319 18.9521 271.11 22.1754 267.09C25.2059 262.881 28.4262 258.672 31.4602 254.654C34.493 250.445 37.7139 246.428 40.7449 242.219H95.5154H146.116H150.284H205.244H260.013C263.046 246.428 266.076 250.445 269.109 254.654C272.33 258.864 275.173 262.881 278.205 267.09C281.239 271.109 284.46 275.319 287.49 279.528C290.333 283.545 293.366 287.562 296.209 291.582C296.399 291.582 296.399 291.771 296.587 291.963C296.777 292.347 296.968 293.302 296.968 294.067C296.967 295.599 296.399 296.937 295.45 296.937Z" fill="#4E5A62"/>
<path d="M213.96 140.435C219.265 140.435 223.434 144.645 223.434 149.808C223.434 152.486 222.299 154.975 220.405 156.506L217.561 161.481L213.96 167.984L210.359 161.481L207.515 156.506C205.811 154.783 204.673 152.297 204.673 149.808C204.674 144.644 208.843 140.435 213.96 140.435ZM213.96 145.599C216.612 145.599 218.697 147.703 218.697 150.192C218.697 152.87 216.612 154.975 213.96 154.975C211.498 154.975 209.413 152.87 209.413 150.192C209.413 147.703 211.498 145.599 213.96 145.599Z" fill="#E74C3C"/>
</g>
<defs>
<clipPath id="clip0_11_2">
<rect width="300" height="300" fill="white"/>
</clipPath>
</defs>
</svg>
