<svg width="400" height="400" viewBox="0 0 400 400" fill="none" xmlns="http://www.w3.org/2000/svg">
<path d="M354.838 290.323H225.806V393.549H354.838V290.323Z" fill="#D3A06C"/>
<path d="M161.29 290.323C168.416 290.323 174.194 284.546 174.194 277.419C174.194 270.293 168.416 264.517 161.29 264.517C154.164 264.517 148.387 270.293 148.387 277.419C148.387 284.546 154.164 290.323 161.29 290.323Z" fill="#FF826E"/>
<path d="M109.677 290.323C116.804 290.323 122.581 284.546 122.581 277.419C122.581 270.293 116.804 264.517 109.677 264.517C102.551 264.517 96.7742 270.293 96.7742 277.419C96.7742 284.546 102.551 290.323 109.677 290.323Z" fill="#FF826E"/>
<path d="M58.0645 290.323C65.1909 290.323 70.9678 284.546 70.9678 277.419C70.9678 270.293 65.1909 264.517 58.0645 264.517C50.9382 264.517 45.1613 270.293 45.1613 277.419C45.1613 284.546 50.9382 290.323 58.0645 290.323Z" fill="#FF826E"/>
<path d="M303.162 32.2581H265.29C257.483 32.2581 250.194 34.9032 244.323 39.4839C238.517 44 234.194 50.4517 232.258 58.0645C214.451 58.0645 200 72.5162 200 90.3226V103.032C200 112 201.806 120.71 205.226 128.71C202 132.129 200 136.839 200 142C200 147.355 202.194 152.129 205.677 155.613C209.162 159.097 213.936 161.29 219.29 161.29H219.355H226.064H226.13C227.098 172.645 230.968 183.355 237.032 192.581C238.774 195.162 240.645 197.677 242.71 200H122.581V226.774C122.581 233.355 117.226 238.71 110.645 238.71C106.065 238.71 101.936 236.13 99.9355 232.13L83.871 200H47.5485C35.1613 200 24.7098 190.71 23.2904 178.387L6.58068 33.6775C6.51617 32.7096 6.45166 31.8064 6.45166 30.8387C6.45166 17.3549 17.3549 6.45163 30.8387 6.45163H278.838C285.549 6.45163 291.677 9.16131 296.064 13.6129C300.517 18 303.226 24.129 303.226 30.8387C303.226 31.3549 303.226 31.8064 303.162 32.2581Z" fill="#E6E9ED"/>
<path d="M148.387 70.9677H58.0645V122.581H148.387V70.9677Z" fill="#F0D0B4"/>
<path d="M122.581 96.7742H83.871V122.581H122.581V96.7742Z" fill="#AAB2BD"/>
<path d="M161.29 70.9677H148.387H58.0645H45.1613L103.226 32.2581L161.29 70.9677Z" fill="#FF826E"/>
<path d="M286.71 103.226C287.032 106.968 286.838 110.71 285.87 114.452L283.87 122.581L278.968 117.677C269.483 108.194 257.87 101.032 245.162 96.7742C233.936 100.516 226.258 110.839 225.806 122.581H219.355C213.806 122.581 208.774 124.903 205.226 128.71C201.806 120.71 200 112 200 103.032V90.3226C200 72.5162 214.451 58.0645 232.258 58.0645C234.194 50.4517 238.517 44 244.323 39.4838C250.194 34.9032 257.483 32.2581 265.29 32.2581H303.162H312.064C349.936 32.2581 380.645 62.9677 380.645 100.839C380.645 110.323 378.645 119.677 374.968 128.258C371.483 124.774 366.645 122.581 361.29 122.581H354.838L353.226 121.613C333.162 109.613 310.258 103.226 286.838 103.226H286.71Z" fill="#656D78"/>
<path d="M206.451 322.581C204.194 322.581 202 322.968 200 323.742V323.677V309.677C200 282.581 216.968 258.323 242.451 249.096L270.968 238.71L290.323 277.419L309.677 238.71L338.194 249.096C363.677 258.323 380.645 282.581 380.645 309.677V323.677V323.742C378.645 322.968 376.451 322.581 374.194 322.581H367.742C360.645 322.581 354.838 328.387 354.838 335.483V290.323H277.419H251.613H225.806V335.483C225.806 328.387 220 322.581 212.904 322.581H206.451Z" fill="#5CD6B3"/>
<path d="M277.419 290.323H251.613V341.936H277.419V290.323Z" fill="#B27946"/>
<path d="M187.096 354.838V341.936C187.096 333.483 192.451 326.323 200 323.742C202 322.968 204.194 322.581 206.451 322.581H212.904C220 322.581 225.806 328.387 225.806 335.483V348.387V361.29C225.806 368.387 220 374.194 212.904 374.194H206.451C195.742 374.194 187.096 365.549 187.096 354.838Z" fill="#F0D0B4"/>
<path d="M393.549 341.936V354.838C393.549 365.549 384.904 374.194 374.194 374.194H367.742C360.645 374.194 354.838 368.387 354.838 361.29V348.387V335.483C354.838 328.387 360.645 322.581 367.742 322.581H374.194C376.451 322.581 378.645 322.968 380.645 323.742C388.194 326.323 393.549 333.483 393.549 341.936Z" fill="#F0D0B4"/>
<path d="M380.645 142C380.645 152.645 372 161.29 361.419 161.29H361.29H354.581H354.517C354.774 159.226 354.838 157.161 354.838 155.097V122.581H361.29C366.645 122.581 371.483 124.774 374.968 128.258C378.451 131.742 380.645 136.645 380.645 142Z" fill="#F0D0B4"/>
<path d="M354.838 122.581V155.097C354.838 157.161 354.774 159.226 354.517 161.29C352.323 186 336.71 207.806 313.613 217.677C311.226 218.71 309.677 221.032 309.677 223.613V238.71L290.323 277.419L270.968 238.71V223.613C270.968 221.032 269.419 218.71 267.032 217.677C257.483 213.613 249.226 207.483 242.71 200C240.645 197.677 238.774 195.162 237.032 192.581C230.968 183.355 227.096 172.645 226.13 161.29C225.87 159.226 225.806 157.161 225.806 155.097V123.613C225.806 123.29 225.806 122.903 225.806 122.581C226.258 110.839 233.936 100.516 245.162 96.7742C257.87 101.032 269.483 108.194 278.968 117.677L283.87 122.581L285.87 114.452C286.838 110.71 287.032 106.968 286.71 103.226H286.838C310.258 103.226 333.162 109.613 353.226 121.613L354.838 122.581Z" fill="#F0D0B4"/>
<path d="M225.806 155.097C225.806 157.161 225.87 159.226 226.13 161.29H226.064H219.355H219.29C213.936 161.29 209.162 159.097 205.677 155.613C202.194 152.129 200 147.355 200 142C200 136.839 202 132.129 205.226 128.71C208.774 124.903 213.806 122.581 219.355 122.581H225.806C225.806 122.903 225.806 123.29 225.806 123.613V155.097Z" fill="#F0D0B4"/>
<path d="M322.587 141.936C326.15 141.936 329.038 139.047 329.038 135.484C329.038 131.921 326.15 129.032 322.587 129.032C319.024 129.032 316.136 131.921 316.136 135.484C316.136 139.047 319.024 141.936 322.587 141.936Z" fill="black"/>
<path d="M258.07 141.936C261.634 141.936 264.523 139.047 264.523 135.484C264.523 131.921 261.634 129.032 258.07 129.032C254.507 129.032 251.619 131.921 251.619 135.484C251.619 139.047 254.507 141.936 258.07 141.936Z" fill="black"/>
<path d="M387.096 319.717V309.704C387.096 279.974 368.323 253.168 340.381 243.006L316.142 234.194L316.149 223.606C339.651 213.536 355.981 192.355 360.194 167.742H361.394C375.568 167.742 387.104 156.206 387.104 142.032C387.104 136.439 385.283 131.284 382.264 127.045C385.406 118.645 387.096 109.864 387.096 100.839C387.096 59.4645 353.438 25.8064 312.064 25.8064H309.168C306.742 11.2 294.11 0 278.826 0H30.8517C13.8452 0 0 13.8452 0 30.8517C0 32.0387 0.0709677 33.2194 0.206451 34.387L16.9032 179.142C18.7032 194.71 31.8774 206.451 47.5549 206.451H79.8838L94.1483 234.981C97.2904 241.264 103.6 245.162 110.619 245.162C120.774 245.162 129.032 236.904 129.032 226.749V206.451H239.89C246.723 213.632 255.013 219.542 264.504 223.606L264.51 234.194L240.27 243.006C212.33 253.168 193.555 279.968 193.555 309.704V319.717C185.877 324.187 180.645 332.419 180.645 341.936V354.838C180.645 369.07 192.219 380.645 206.451 380.645H212.904C215.174 380.645 217.33 380.181 219.355 379.458V400H361.29V379.458C363.317 380.181 365.47 380.645 367.742 380.645H374.194C388.426 380.645 400 369.07 400 354.838V341.936C400 332.426 394.774 324.194 387.096 319.717ZM335.968 255.13C358.832 263.445 374.194 285.374 374.194 309.704V316.13H367.742C365.47 316.13 363.317 316.594 361.29 317.317V283.87H294.31L312.883 246.736L335.968 255.13ZM361.304 154.839L361.29 129.032C368.406 129.032 374.2 134.858 374.2 142.032C374.2 149.09 368.458 154.832 361.304 154.839ZM374.194 100.839C374.194 106.819 373.296 112.664 371.626 118.329C368.458 116.936 364.968 116.129 361.29 116.129H360.774C357.626 94.2838 338.832 77.4194 316.13 77.4194V90.3226C329.6 90.3226 341.168 98.6194 345.987 110.368C329.149 102.194 310.755 97.6323 292 96.9162C290.283 90.3483 286.896 84.2258 281.981 79.3032L272.858 88.4258C278.504 94.0774 281.187 102.097 280.2 109.936C270.683 101.329 259.368 94.7032 247.206 90.6451L245.162 89.9742L243.123 90.6517C231.349 94.5742 222.87 104.374 220.27 116.123H219.368C215.51 116.123 211.883 117.032 208.594 118.561C207.213 113.529 206.451 108.348 206.451 103.064V90.3226C206.451 76.0904 218.026 64.5162 232.258 64.5162H237.29L238.51 59.6258C241.594 47.3096 252.613 38.7096 265.31 38.7096H312.064C346.323 38.7096 374.194 66.5806 374.194 100.839ZM219.264 154.839C212.2 154.839 206.458 149.09 206.458 142.032C206.458 134.864 212.238 129.045 219.355 129.039L219.349 154.845H219.264V154.839ZM116.129 193.549V226.749C116.129 229.781 113.652 232.258 110.619 232.258C108.523 232.258 106.632 231.09 105.69 229.206L87.8581 193.549H47.5549C38.4387 193.549 30.7677 186.71 29.7162 177.658L13.0258 32.9096C12.9484 32.2258 12.9032 31.5483 12.9032 30.8517C12.9032 20.9549 20.9549 12.9032 30.8517 12.9032H278.826C286.962 12.9032 293.768 18.3742 295.962 25.8064H265.31C248.304 25.8064 233.349 36.329 227.438 51.9096C208.362 54.2902 193.549 70.6064 193.549 90.3226V103.064C193.549 111.497 195.09 119.71 197.955 127.587C195.181 131.716 193.555 136.684 193.555 142.032C193.555 156.206 205.09 167.742 219.362 167.742H220.458C222.038 176.968 225.323 185.696 230.051 193.549H116.129ZM232.251 155.116L232.258 123.626C232.258 114.903 237.406 107.116 245.264 103.639C256.155 107.619 266.181 114.006 274.387 122.213L287.368 135.194L292.168 116.039C292.677 114.006 292.949 111.948 293.117 109.89C312.562 110.89 331.51 116.503 348.394 126.303L348.406 155.103C348.419 179.787 333.762 202.019 311.083 211.742C306.33 213.774 303.251 218.426 303.251 223.594L303.238 237.187L290.323 263L277.419 237.187L277.406 223.6C277.406 218.426 274.33 213.781 269.581 211.749C246.904 202.026 232.245 179.8 232.251 155.116ZM244.683 255.13L267.768 246.736L286.336 283.87H219.355V317.317C217.33 316.594 215.174 316.13 212.904 316.13H206.458V309.704C206.458 285.374 221.819 263.445 244.683 255.13ZM258.064 296.774H270.968V335.483H258.064V296.774ZM212.904 367.742H206.451C199.336 367.742 193.549 361.955 193.549 354.838V341.936C193.549 334.819 199.336 329.032 206.451 329.032H212.904C216.464 329.032 219.355 331.923 219.355 335.483V341.936H206.451V354.838H219.355V361.29C219.355 364.851 216.464 367.742 212.904 367.742ZM348.387 387.096H232.258V361.29V335.483V296.774H245.162V348.387H283.87V296.774H348.387V335.483V361.29V387.096ZM387.096 354.838C387.096 361.955 381.31 367.742 374.194 367.742H367.742C364.181 367.742 361.29 364.851 361.29 361.29V354.838H374.194V341.936H361.29V335.483C361.29 331.923 364.181 329.032 367.742 329.032H374.194C381.31 329.032 387.096 334.819 387.096 341.936V354.838Z" fill="black"/>
<path d="M335.483 309.677H296.774V322.581H335.483V309.677Z" fill="black"/>
<path d="M335.483 335.483H296.774V348.387H335.483V335.483Z" fill="black"/>
<path d="M290.323 206.451C300.742 206.451 310.11 200.664 314.768 191.342L315.445 189.981L303.904 184.206L303.226 185.574C300.768 190.49 295.826 193.549 290.323 193.549C284.819 193.549 279.877 190.49 277.419 185.574L276.742 184.213L265.2 189.987L265.877 191.349C270.536 200.664 279.904 206.451 290.323 206.451Z" fill="black"/>
<path d="M286.755 179.968L293.883 176.4C296.968 174.858 299.264 172.213 300.355 168.942C301.445 165.67 301.2 162.168 299.658 159.09L296.774 153.316V141.936H283.87V154.839C283.87 155.839 284.104 156.832 284.549 157.723L288.117 164.851L280.987 168.419L286.755 179.968Z" fill="black"/>
<path d="M103.226 24.5032L23.8517 77.4194H51.613V129.032H154.839V77.4194H182.6L103.226 24.5032ZM103.226 40.013L139.981 64.5162H66.471L103.226 40.013ZM116.129 116.129H90.3226V103.226H116.129V116.129ZM141.936 116.129H129.032V90.3226H77.4194V116.129H64.5162V77.4194H141.936V116.129Z" fill="black"/>
<path d="M64.5162 141.936H51.613V154.839H64.5162V141.936Z" fill="black"/>
<path d="M64.5162 167.742H51.613V180.645H64.5162V167.742Z" fill="black"/>
<path d="M154.839 141.936H77.4194V154.839H154.839V141.936Z" fill="black"/>
<path d="M154.839 167.742H77.4194V180.645H154.839V167.742Z" fill="black"/>
<path d="M109.677 258.064C99.0064 258.064 90.3226 266.749 90.3226 277.419C90.3226 288.09 99.0064 296.774 109.677 296.774C120.348 296.774 129.032 288.09 129.032 277.419C129.032 266.749 120.348 258.064 109.677 258.064ZM109.677 283.87C106.116 283.87 103.226 280.981 103.226 277.419C103.226 273.858 106.116 270.968 109.677 270.968C113.239 270.968 116.129 273.858 116.129 277.419C116.129 280.981 113.239 283.87 109.677 283.87Z" fill="black"/>
<path d="M161.29 258.064C150.619 258.064 141.936 266.749 141.936 277.419C141.936 288.09 150.619 296.774 161.29 296.774C171.962 296.774 180.645 288.09 180.645 277.419C180.645 266.749 171.962 258.064 161.29 258.064ZM161.29 283.87C157.729 283.87 154.839 280.981 154.839 277.419C154.839 273.858 157.729 270.968 161.29 270.968C164.851 270.968 167.742 273.858 167.742 277.419C167.742 280.981 164.851 283.87 161.29 283.87Z" fill="black"/>
<path d="M58.0645 258.064C47.3936 258.064 38.7096 266.749 38.7096 277.419C38.7096 288.09 47.3936 296.774 58.0645 296.774C68.7355 296.774 77.4194 288.09 77.4194 277.419C77.4194 266.749 68.7355 258.064 58.0645 258.064ZM58.0645 283.87C54.5032 283.87 51.613 280.981 51.613 277.419C51.613 273.858 54.5032 270.968 58.0645 270.968C61.6258 270.968 64.5162 273.858 64.5162 277.419C64.5162 280.981 61.6258 283.87 58.0645 283.87Z" fill="black"/>
</svg>
