<svg width="300" height="300" viewBox="0 0 300 300" fill="none" xmlns="http://www.w3.org/2000/svg">
<path d="M289.286 112.813H176.244L153.894 141.803C152.964 143.011 151.525 143.718 150 143.718C148.475 143.718 147.036 143.011 146.106 141.803L123.756 112.813H10.7143C7.34694 112.813 4.59184 115.569 4.59184 118.936V274.087C4.59184 277.454 7.34694 280.209 10.7143 280.209H289.286C292.653 280.209 295.408 277.454 295.408 274.087V118.936C295.408 115.569 292.653 112.813 289.286 112.813Z" fill="white"/>
<path d="M278.265 128.12H164.444L153.895 141.803C152.964 143.011 151.525 143.718 150 143.718C148.476 143.718 147.036 143.011 146.106 141.803L135.557 128.12H21.7347C20.7245 128.12 19.898 128.946 19.898 129.956V263.066C19.898 264.077 20.7245 264.903 21.7347 264.903H278.265C279.276 264.903 280.102 264.077 280.102 263.066V129.956C280.102 128.946 279.276 128.12 278.265 128.12Z" fill="#76FFD9"/>
<path d="M278.265 128.12H202.653V186.861C202.653 187.872 203.48 188.698 204.49 188.698H280.102V129.956C280.102 128.946 279.275 128.12 278.265 128.12Z" fill="#5DE0BF"/>
<path d="M117.231 204.324H19.898V263.066C19.898 264.076 20.7245 264.902 21.7347 264.902H119.068V206.161C119.068 205.151 118.242 204.324 117.231 204.324Z" fill="#76FFD9"/>
<path d="M134.694 206.161V264.902H278.265C279.276 264.902 280.102 264.076 280.102 263.066V204.324H136.531C135.52 204.324 134.694 205.151 134.694 206.161Z" fill="#76FFD9"/>
<path d="M150 143.717C148.476 143.717 147.036 143.01 146.106 141.803L113.006 98.8684C105.784 90.2253 101.807 79.2612 101.807 67.9849C101.807 41.4104 123.426 19.7908 150.001 19.7908C176.575 19.7908 198.195 41.4104 198.195 67.9849C198.195 79.2612 194.218 90.2253 186.996 98.8684L153.896 141.803C152.964 143.01 151.525 143.717 150 143.717Z" fill="#FFC843"/>
<path d="M127.525 98.8684C120.303 90.2253 116.327 79.2612 116.327 67.9849C116.327 43.879 134.116 23.8524 157.255 20.3388C154.888 19.9794 152.466 19.7908 150 19.7908C123.426 19.7908 101.807 41.4104 101.807 67.9849C101.807 79.2612 105.783 90.2253 113.005 98.8684L146.105 141.803C147.036 143.01 148.475 143.717 149.999 143.717C151.524 143.717 152.963 143.01 153.894 141.803L157.259 137.438L127.525 98.8684Z" fill="#FFB400"/>
<path d="M150 88.7192C160.678 88.7192 169.333 80.0633 169.333 69.3857C169.333 58.7081 160.678 50.0522 150 50.0522C139.322 50.0522 130.667 58.7081 130.667 69.3857C130.667 80.0633 139.322 88.7192 150 88.7192Z" fill="white"/>
<path d="M41.9388 129.956C41.9388 128.946 42.7653 128.12 43.7755 128.12H21.7347C20.7245 128.12 19.898 128.946 19.898 129.956V188.698H41.9388V129.956Z" fill="#5DE0BF"/>
<path d="M19.898 263.066C19.898 264.077 20.7245 264.903 21.7347 264.903H43.7755C42.7653 264.903 41.9388 264.077 41.9388 263.066V204.324H19.898V263.066Z" fill="#5DE0BF"/>
<path d="M204.49 188.698C203.48 188.698 202.653 187.872 202.653 186.861V128.12H187.028V186.861C187.028 187.872 186.201 188.698 185.191 188.698H104.401C103.391 188.698 102.564 187.872 102.564 186.861V128.12H86.9388V186.861C86.9388 187.872 86.1123 188.698 85.102 188.698H41.9388V204.324H117.232C118.242 204.324 119.069 205.151 119.069 206.161V264.903H134.694V206.161C134.694 205.151 135.52 204.324 136.531 204.324H280.102V188.698H204.49Z" fill="#FFC843"/>
<path d="M41.9388 188.698H19.898V204.324H41.9388V188.698Z" fill="#FFB400"/>
<path d="M98.7086 235.101H106.505C109.041 235.101 111.097 233.045 111.097 230.51C111.097 227.974 109.041 225.918 106.505 225.918H98.7086C96.1726 225.918 94.1167 227.974 94.1167 230.51C94.1167 233.045 96.1726 235.101 98.7086 235.101Z" fill="#434C54"/>
<path d="M235.436 234.969C235.758 234.969 236.085 234.934 236.413 234.864C241.079 233.852 244.492 229.818 244.713 225.054C244.831 222.52 242.873 220.372 240.339 220.254C237.803 220.137 235.657 222.095 235.539 224.628C235.512 225.23 235.06 225.76 234.468 225.888C231.989 226.425 230.415 228.871 230.952 231.349C231.419 233.499 233.321 234.969 235.436 234.969Z" fill="#434C54"/>
<path d="M189.87 225.918C187.334 225.918 185.278 227.974 185.278 230.51C185.278 233.045 187.334 235.101 189.87 235.101H197.666C200.202 235.101 202.258 233.045 202.258 230.51C202.258 227.974 200.202 225.918 197.666 225.918H189.87Z" fill="#434C54"/>
<path d="M244.718 179.442C244.718 176.906 242.662 174.85 240.126 174.85C237.59 174.85 235.534 176.906 235.534 179.442V187.238C235.534 189.774 237.59 191.83 240.126 191.83C242.662 191.83 244.718 189.774 244.718 187.238V179.442Z" fill="#434C54"/>
<path d="M244.718 202.122C244.718 199.586 242.662 197.53 240.126 197.53C237.59 197.53 235.534 199.586 235.534 202.122V209.918C235.534 212.454 237.59 214.51 240.126 214.51C242.662 214.51 244.718 212.454 244.718 209.918V202.122Z" fill="#434C54"/>
<path d="M167.079 225.918C164.543 225.918 162.487 227.974 162.487 230.51C162.487 233.045 164.543 235.101 167.079 235.101H174.876C177.412 235.101 179.468 233.045 179.468 230.51C179.468 227.974 177.412 225.918 174.876 225.918H167.079Z" fill="#434C54"/>
<path d="M144.289 225.918C141.753 225.918 139.697 227.974 139.697 230.51C139.697 233.045 141.753 235.101 144.289 235.101H152.086C154.622 235.101 156.678 233.045 156.678 230.51C156.678 227.974 154.622 225.918 152.086 225.918H144.289Z" fill="#434C54"/>
<path d="M75.9184 225.918C73.3825 225.918 71.3265 227.974 71.3265 230.51C71.3265 233.045 73.3825 235.101 75.9184 235.101H83.7153C86.2512 235.101 88.3071 233.045 88.3071 230.51C88.3071 227.974 86.2512 225.918 83.7153 225.918H75.9184Z" fill="#434C54"/>
<path d="M122.305 225.918C119.769 225.918 117.713 227.974 117.713 230.51C117.713 233.045 119.769 235.101 122.305 235.101H130.102C132.638 235.101 134.694 233.045 134.694 230.51C134.694 227.974 132.638 225.918 130.102 225.918H122.305Z" fill="#434C54"/>
<path d="M220.457 225.918H212.661C210.125 225.918 208.069 227.974 208.069 230.51C208.069 233.045 210.125 235.101 212.661 235.101H220.457C222.993 235.101 225.049 233.045 225.049 230.51C225.049 227.974 222.993 225.918 220.457 225.918Z" fill="#434C54"/>
<path d="M289.286 108.222H185.582L190.578 101.742C198.451 92.2861 202.786 80.3014 202.786 67.9849C202.786 65.449 200.73 63.3931 198.194 63.3931C195.658 63.3931 193.602 65.449 193.602 67.9849C193.602 78.1837 190.004 88.1063 183.472 95.9241C183.433 95.9706 183.396 96.0171 183.359 96.0649L150.259 138.999C150.137 139.157 149.864 139.157 149.742 138.999L116.642 96.0649C116.605 96.0171 116.568 95.9706 116.529 95.9241C109.996 88.1057 106.398 78.1837 106.398 67.9849C106.398 43.9426 125.958 24.3826 150 24.3826C168.213 24.3826 184.672 35.8886 190.955 53.0137C191.829 55.3947 194.466 56.6161 196.848 55.7431C199.229 54.8694 200.45 52.2312 199.577 49.8502C191.972 29.1245 172.049 15.199 150 15.199C120.894 15.199 97.2147 38.8788 97.2147 67.9849C97.2147 80.3014 101.549 92.2861 109.422 101.742L114.418 108.222H10.7143C4.80673 108.222 0 113.028 0 118.936V274.087C0 279.994 4.80673 284.801 10.7143 284.801H60C62.5359 284.801 64.5918 282.745 64.5918 280.209C64.5918 277.673 62.5359 275.617 60 275.617H10.7143C9.88469 275.617 9.18367 274.916 9.18367 274.087V118.936C9.18367 118.106 9.88469 117.405 10.7143 117.405H121.498L142.469 144.607C144.257 146.926 147.072 148.31 150 148.31C152.928 148.31 155.743 146.926 157.531 144.607L178.502 117.405H289.286C290.115 117.405 290.816 118.106 290.816 118.936V274.087C290.816 274.916 290.115 275.617 289.286 275.617H77.7551C75.2192 275.617 73.1633 277.673 73.1633 280.209C73.1633 282.745 75.2192 284.801 77.7551 284.801H289.286C295.193 284.801 300 279.994 300 274.087V118.936C300 113.028 295.193 108.222 289.286 108.222Z" fill="#434C54"/>
<path d="M61.8367 243.552C68.7685 243.552 74.3877 237.933 74.3877 231.001C74.3877 224.069 68.7685 218.45 61.8367 218.45C54.905 218.45 49.2857 224.069 49.2857 231.001C49.2857 237.933 54.905 243.552 61.8367 243.552Z" fill="#E86436"/>
<path d="M239.934 174.85C248.352 174.85 255.175 168.026 255.175 159.609C255.175 151.192 248.352 144.369 239.934 144.369C231.517 144.369 224.694 151.192 224.694 159.609C224.694 168.026 231.517 174.85 239.934 174.85Z" fill="white"/>
<path d="M239.934 164.19C242.47 164.19 244.526 162.134 244.526 159.598C244.526 157.062 242.47 155.006 239.934 155.006C237.398 155.006 235.343 157.062 235.343 159.598C235.343 162.134 237.398 164.19 239.934 164.19Z" fill="#434C54"/>
</svg>
