<svg width="250" height="204" viewBox="0 0 250 204" fill="none" xmlns="http://www.w3.org/2000/svg">
<path d="M0 3.05088V200.897C-6.45388e-07 201.298 0.0792504 201.695 0.233218 202.065C0.387186 202.436 0.612848 202.772 0.897291 203.056C1.18173 203.339 1.51937 203.564 1.89089 203.717C2.26241 203.87 2.66051 203.948 3.06241 203.947H246.938C247.339 203.948 247.738 203.87 248.109 203.717C248.481 203.564 248.818 203.339 249.103 203.056C249.387 202.772 249.613 202.436 249.767 202.065C249.921 201.695 250 201.298 250 200.897V63.0836C249.996 59.2524 248.469 55.5794 245.754 52.8704C243.04 50.1613 239.359 48.6375 235.521 48.6331H214.747C211.884 48.6302 209.139 47.4939 207.115 45.4736C205.09 43.4533 203.952 40.7139 203.949 37.8568V19.2182C203.915 18.4307 203.578 17.6865 203.008 17.1411C202.438 16.5956 201.679 16.2911 200.889 16.2911C200.099 16.2911 199.34 16.5956 198.77 17.1411C198.2 17.6865 197.863 18.4307 197.829 19.2182V37.8568C197.834 42.3332 199.618 46.6251 202.789 49.7904C205.961 52.9557 210.261 54.7359 214.747 54.7403H235.521C237.737 54.7432 239.862 55.6231 241.429 57.1872C242.996 58.7512 243.878 60.8717 243.881 63.0836V197.846H6.11934V6.10173H199.046C203.242 6.09416 207.278 7.71562 210.298 10.6233L238.884 38.0044C239.171 38.297 239.514 38.5291 239.893 38.6869C240.271 38.8448 240.677 38.9251 241.088 38.9232C241.498 38.9213 241.903 38.8371 242.28 38.6758C242.657 38.5144 242.998 38.2791 243.282 37.9838C243.566 37.6886 243.788 37.3393 243.934 36.9569C244.081 36.5744 244.148 36.1666 244.134 35.7574C244.119 35.3483 244.022 34.9463 243.849 34.5753C243.675 34.2043 243.429 33.8718 243.125 33.5976L214.533 6.21654C210.373 2.21871 204.82 -0.0102215 199.046 3.52416e-05H3.06241C2.66051 -0.000683581 2.26241 0.0777006 1.89089 0.230698C1.51937 0.383695 1.18173 0.608304 0.897291 0.891673C0.612848 1.17504 0.387186 1.51161 0.233218 1.88211C0.0792504 2.25261 -6.45388e-07 2.64978 0 3.05088V3.05088Z" fill="black"/>
<path d="M145.943 88.2544C145.137 88.2544 144.364 88.5758 143.795 89.1479C143.225 89.72 142.905 90.4959 142.905 91.305V100.528C142.904 101.08 143.053 101.623 143.336 102.097C143.619 102.57 144.025 102.958 144.511 103.218C144.95 103.459 145.443 103.585 145.943 103.584C146.544 103.583 147.131 103.404 147.631 103.07L180.224 81.3057C180.641 81.0272 180.982 80.6496 181.219 80.2066C181.455 79.7636 181.579 79.2688 181.579 78.7662C181.579 78.2636 181.455 77.7688 181.219 77.3258C180.982 76.8828 180.641 76.5052 180.224 76.2267L147.631 54.4567C147.173 54.1515 146.641 53.9766 146.091 53.9507C145.542 53.9248 144.996 54.0488 144.511 54.3096C144.026 54.5703 143.621 54.9581 143.338 55.4316C143.055 55.9051 142.905 56.4468 142.905 56.9989V75.7128H108.324C90.1487 75.7302 72.7226 82.9864 59.8706 95.8889C47.0186 108.791 39.7908 126.286 39.7735 144.533V159.332C37.2245 159.908 34.8893 161.195 33.0368 163.044C31.1843 164.894 29.8898 167.231 29.3024 169.787C28.715 172.343 28.8587 175.013 29.7167 177.491C30.5748 179.968 32.1124 182.152 34.1525 183.79C36.1926 185.429 38.6522 186.456 41.2482 186.753C43.8441 187.049 46.4707 186.604 48.8256 185.468C51.1804 184.332 53.1678 182.551 54.5588 180.331C55.9497 178.11 56.6878 175.541 56.6879 172.918C56.6879 172.109 56.3677 171.333 55.7978 170.761C55.228 170.189 54.4551 169.867 53.6491 169.867C52.8432 169.867 52.0703 170.189 51.5005 170.761C50.9306 171.333 50.6104 172.109 50.6104 172.918C50.6104 174.466 50.1531 175.98 49.2962 177.267C48.4393 178.555 47.2214 179.558 45.7964 180.151C44.3715 180.743 42.8035 180.898 41.2908 180.596C39.7781 180.294 38.3886 179.549 37.298 178.454C36.2073 177.359 35.4646 175.964 35.1637 174.445C34.8628 172.927 35.0173 171.352 35.6075 169.922C36.1977 168.491 37.1973 167.269 38.4797 166.408C39.7621 165.548 41.2698 165.089 42.8122 165.089C43.2117 165.089 43.6073 165.01 43.9763 164.856C44.3453 164.703 44.6805 164.477 44.9628 164.194C45.245 163.91 45.4687 163.573 45.6211 163.202C45.7735 162.831 45.8516 162.434 45.8509 162.033V144.538C45.8682 127.909 52.4555 111.966 64.1677 100.207C75.8798 88.4476 91.76 81.8329 108.324 81.8141H145.943C146.343 81.8148 146.738 81.7365 147.108 81.5835C147.477 81.4305 147.813 81.2059 148.095 80.9225C148.378 80.6392 148.603 80.3026 148.756 79.9322C148.909 79.5617 148.987 79.1646 148.987 78.7635V62.7175L173.052 78.7635L148.987 94.8313V91.305C148.987 90.9039 148.909 90.5068 148.756 90.1363C148.603 89.7658 148.378 89.4293 148.095 89.1459C147.813 88.8626 147.477 88.638 147.108 88.485C146.738 88.332 146.343 88.2536 145.943 88.2544V88.2544Z" fill="black"/>
<path d="M211.19 63.1579C208.197 63.1568 205.271 64.0819 202.781 65.8162C200.292 67.5505 198.352 70.0161 197.206 72.9011C196.06 75.7862 195.759 78.9611 196.343 82.0243C196.926 85.0875 198.367 87.9015 200.483 90.1102C202.599 92.319 205.295 93.8233 208.23 94.433C211.166 95.0427 214.208 94.7304 216.974 93.5355C219.739 92.3406 222.102 90.3168 223.765 87.7201C225.428 85.1234 226.316 82.0705 226.316 78.9474C226.312 74.7621 224.717 70.7494 221.881 67.7894C219.045 64.8294 215.2 63.1638 211.19 63.1579V63.1579ZM211.19 88.4793C209.386 88.4793 207.623 87.9212 206.124 86.8757C204.624 85.8301 203.455 84.3441 202.765 82.6054C202.075 80.8668 201.894 78.9536 202.246 77.1079C202.598 75.2621 203.466 73.5667 204.742 72.236C206.017 70.9053 207.642 69.999 209.411 69.6319C211.179 69.2647 213.013 69.4532 214.679 70.1734C216.345 70.8935 217.769 72.1131 218.771 73.6779C219.773 75.2426 220.308 77.0823 220.308 78.9642C220.301 81.4855 219.338 83.9014 217.63 85.6842C215.921 87.467 213.606 88.4719 211.19 88.4793Z" fill="black"/>
<path d="M28.5224 66.221C29.0924 66.7873 29.8641 67.1053 30.6685 67.1053C31.473 67.1053 32.2447 66.7873 32.8146 66.221L57.0824 42.0201C57.6179 41.4448 57.9088 40.6849 57.8942 39.9001C57.8796 39.1153 57.5605 38.3667 57.0041 37.8116C56.4476 37.2565 55.6971 36.9383 54.9103 36.9237C54.1234 36.9091 53.3616 37.1994 52.7849 37.7334L42.8025 47.6959L32.8146 37.728C32.5324 37.4469 32.1975 37.224 31.8289 37.072C31.4604 36.92 31.0654 36.8419 30.6666 36.8421C30.2678 36.8424 29.8729 36.921 29.5046 37.0734C29.1362 37.2259 28.8016 37.4492 28.5197 37.7307C28.2379 38.0122 28.0144 38.3463 27.862 38.7139C27.7096 39.0815 27.6313 39.4755 27.6316 39.8733C27.6318 40.2711 27.7106 40.6649 27.8635 41.0324C28.0164 41.3998 28.2403 41.7336 28.5224 42.0147L38.5049 51.9718L28.5224 61.9343C27.9531 62.5031 27.6333 63.2739 27.6333 64.0777C27.6333 64.8814 27.9531 65.6523 28.5224 66.221V66.221Z" fill="black"/>
<path d="M52.7332 57.5332C52.4456 57.2348 52.1014 56.9968 51.7207 56.833C51.34 56.6692 50.9305 56.5829 50.5161 56.5791C50.1017 56.5753 49.6907 56.6541 49.3072 56.811C48.9236 56.9678 48.5751 57.1995 48.282 57.4926C47.989 57.7856 47.7573 58.1341 47.6004 58.5177C47.4436 58.9013 47.3648 59.3123 47.3685 59.7267C47.3723 60.1411 47.4586 60.5506 47.6224 60.9312C47.7863 61.3119 48.0243 61.6561 48.3226 61.9438L52.6438 66.2705C53.2365 66.8207 54.0193 67.1197 54.8279 67.1047C55.6364 67.0897 56.4076 66.7618 56.9795 66.19C57.5513 65.6182 57.8792 64.847 57.8942 64.0384C57.9092 63.2299 57.6102 62.447 57.06 61.8543L52.7332 57.5332Z" fill="black"/>
<path d="M98.3327 156.974C98.8991 157.564 99.6656 157.895 100.465 157.895C101.264 157.895 102.03 157.564 102.596 156.974L126.667 131.786C126.965 131.498 127.203 131.149 127.369 130.762C127.534 130.374 127.624 129.956 127.631 129.531C127.639 129.107 127.564 128.685 127.413 128.292C127.261 127.898 127.035 127.541 126.748 127.24C126.461 126.94 126.119 126.704 125.743 126.545C125.367 126.386 124.964 126.308 124.559 126.316C124.153 126.324 123.753 126.418 123.383 126.591C123.013 126.764 122.68 127.014 122.404 127.325L112.5 137.694L102.596 127.325C102.32 127.014 101.987 126.764 101.617 126.591C101.247 126.418 100.847 126.324 100.441 126.316C100.036 126.308 99.6329 126.386 99.2568 126.545C98.8806 126.704 98.5389 126.94 98.2521 127.24C97.9652 127.541 97.7392 127.898 97.5875 128.292C97.4357 128.685 97.3614 129.107 97.3689 129.531C97.3765 129.956 97.4657 130.374 97.6313 130.762C97.7969 131.149 98.0355 131.498 98.3327 131.786L108.236 142.149L98.3327 152.512C97.7679 153.104 97.4506 153.907 97.4506 154.743C97.4506 155.58 97.7679 156.382 98.3327 156.974V156.974Z" fill="black"/>
<path d="M122.34 157.054C122.937 157.608 123.726 157.909 124.541 157.894C125.356 157.879 126.133 157.549 126.709 156.972C127.285 156.396 127.616 155.619 127.631 154.804C127.646 153.99 127.345 153.201 126.79 152.603L122.43 148.249C121.837 147.677 121.044 147.361 120.22 147.369C119.396 147.376 118.608 147.707 118.026 148.289C117.443 148.872 117.113 149.659 117.105 150.483C117.098 151.307 117.414 152.101 117.986 152.694L122.34 157.054Z" fill="black"/>
<path d="M225.952 143.421H222.732C221.938 143.421 221.176 143.768 220.614 144.385C220.052 145.001 219.737 145.838 219.737 146.711C219.737 147.583 220.052 148.42 220.614 149.037C221.176 149.653 221.938 150 222.732 150H225.952C226.747 150 227.508 149.653 228.07 149.037C228.632 148.42 228.947 147.583 228.947 146.711C228.947 145.838 228.632 145.001 228.07 144.385C227.508 143.768 226.747 143.421 225.952 143.421V143.421Z" fill="black"/>
<path d="M225.972 160.526H201.66C200.871 160.526 200.114 160.873 199.556 161.49C198.998 162.107 198.684 162.943 198.684 163.816C198.684 164.688 198.998 165.525 199.556 166.142C200.114 166.759 200.871 167.105 201.66 167.105H225.972C226.761 167.105 227.518 166.759 228.076 166.142C228.634 165.525 228.947 164.688 228.947 163.816C228.947 162.943 228.634 162.107 228.076 161.49C227.518 160.873 226.761 160.526 225.972 160.526V160.526Z" fill="black"/>
<path d="M177.926 182.895H226.021C226.809 182.866 227.553 182.576 228.098 182.086C228.643 181.595 228.947 180.942 228.947 180.263C228.947 179.584 228.643 178.931 228.098 178.44C227.553 177.95 226.809 177.66 226.021 177.632H177.926C177.139 177.66 176.395 177.95 175.85 178.44C175.304 178.931 175 179.584 175 180.263C175 180.942 175.304 181.595 175.85 182.086C176.395 182.576 177.139 182.866 177.926 182.895Z" fill="black"/>
<path d="M210.526 146.711C210.526 145.838 210.2 145.001 209.62 144.385C209.039 143.768 208.252 143.421 207.431 143.421H178.096C177.275 143.421 176.487 143.768 175.907 144.385C175.326 145.001 175 145.838 175 146.711C175 147.583 175.326 148.42 175.907 149.037C176.487 149.653 177.275 150 178.096 150H207.431C207.837 150 208.24 149.915 208.615 149.75C208.991 149.584 209.332 149.342 209.62 149.037C209.907 148.731 210.135 148.368 210.291 147.969C210.446 147.57 210.526 147.143 210.526 146.711V146.711Z" fill="black"/>
<path d="M177.979 160.526C177.189 160.526 176.431 160.873 175.872 161.49C175.314 162.107 175 162.943 175 163.816C175 164.688 175.314 165.525 175.872 166.142C176.431 166.759 177.189 167.105 177.979 167.105H185.179C185.969 167.105 186.727 166.759 187.286 166.142C187.844 165.525 188.158 164.688 188.158 163.816C188.158 162.943 187.844 162.107 187.286 161.49C186.727 160.873 185.969 160.526 185.179 160.526H177.979Z" fill="black"/>
</svg>
