<svg width="399" height="365" viewBox="0 0 399 365" fill="none" xmlns="http://www.w3.org/2000/svg">
<path d="M29.66 189.985C29.66 190.875 28.93 191.605 28.04 191.605C27.15 191.605 26.42 190.875 26.42 189.985H29.66V189.985ZM26.43 189.795H29.66V189.985H26.42L26.43 189.795V189.795ZM26.43 189.795C26.43 188.905 27.15 188.175 28.04 188.175C28.94 188.175 29.66 188.905 29.66 189.795H26.43ZM30.45 173.595C30.41 174.485 29.65 175.175 28.76 175.125C27.86 175.085 27.18 174.325 27.22 173.435L30.45 173.595ZM27.24 173.235L30.47 173.405L30.45 173.595L27.22 173.435L27.24 173.235ZM27.24 173.235C27.28 172.345 28.04 171.665 28.93 171.705C29.82 171.755 30.51 172.515 30.47 173.405L27.24 173.235ZM32.78 157.435C32.64 158.315 31.82 158.925 30.93 158.785C30.05 158.655 29.45 157.825 29.58 156.945L32.78 157.435ZM29.61 156.755L32.81 157.245L32.78 157.435L29.58 156.945L29.61 156.755V156.755ZM29.61 156.755C29.75 155.875 30.57 155.265 31.46 155.405C32.34 155.535 32.94 156.365 32.81 157.245L29.61 156.755V156.755ZM36.63 141.565C36.41 142.425 35.52 142.945 34.66 142.725C33.8 142.505 33.27 141.625 33.5 140.755L36.63 141.565V141.565ZM33.55 140.575L36.68 141.375L36.63 141.565L33.5 140.755L33.55 140.575ZM33.55 140.575C33.77 139.705 34.65 139.185 35.52 139.405C36.38 139.635 36.9 140.515 36.68 141.375L33.55 140.575V140.575ZM41.98 126.135C41.67 126.975 40.74 127.405 39.9 127.095C39.06 126.795 38.63 125.865 38.94 125.025L41.98 126.135V126.135ZM39.01 124.845L42.05 125.955L41.98 126.135L38.94 125.025L39.01 124.845ZM39.01 124.845C39.32 124.005 40.25 123.575 41.08 123.875C41.92 124.185 42.35 125.115 42.05 125.955L39.01 124.845ZM48.77 111.285C48.39 112.085 47.42 112.425 46.62 112.045C45.81 111.655 45.47 110.685 45.86 109.885L48.77 111.285ZM45.95 109.705L48.86 111.115L48.77 111.285L45.86 109.885L45.95 109.705V109.705ZM45.95 109.705C46.34 108.905 47.3 108.565 48.11 108.955C48.91 109.345 49.25 110.315 48.86 111.115L45.95 109.705V109.705ZM56.96 97.155C56.5 97.915 55.5 98.155 54.74 97.695C53.97 97.235 53.73 96.235 54.19 95.475L56.96 97.155V97.155ZM54.3 95.305L57.06 96.985L56.96 97.155L54.19 95.475L54.3 95.305V95.305ZM54.3 95.305C54.76 94.545 55.76 94.305 56.52 94.765C57.28 95.225 57.52 96.225 57.06 96.985L54.3 95.305V95.305ZM66.45 83.855C65.91 84.565 64.9 84.715 64.19 84.185C63.47 83.645 63.33 82.635 63.86 81.915L66.45 83.855ZM63.98 81.765L66.57 83.705L66.45 83.855L63.86 81.915L63.98 81.765V81.765ZM63.98 81.765C64.51 81.055 65.53 80.905 66.24 81.435C66.96 81.975 67.1 82.985 66.57 83.705L63.98 81.765ZM77.16 71.515C76.56 72.175 75.53 72.225 74.87 71.625C74.21 71.025 74.16 70.005 74.76 69.345L77.16 71.515ZM74.9 69.205L77.29 71.375L77.16 71.515L74.76 69.345L74.9 69.205ZM74.9 69.205C75.5 68.545 76.52 68.495 77.18 69.095C77.84 69.695 77.89 70.715 77.29 71.375L74.9 69.205ZM88.98 60.245C88.32 60.845 87.3 60.795 86.7 60.135C86.1 59.475 86.14 58.455 86.81 57.855L88.98 60.245ZM86.95 57.725L89.13 60.125L88.98 60.245L86.81 57.855L86.95 57.725V57.725ZM86.95 57.725C87.61 57.125 88.64 57.175 89.24 57.835C89.84 58.495 89.79 59.515 89.13 60.125L86.95 57.725ZM101.82 50.145C101.1 50.675 100.09 50.535 99.56 49.815C99.02 49.105 99.17 48.085 99.88 47.555L101.82 50.145V50.145ZM100.04 47.445L101.98 50.035L101.82 50.145L99.88 47.555L100.04 47.445ZM100.04 47.445C100.76 46.915 101.77 47.055 102.3 47.775C102.84 48.485 102.69 49.495 101.98 50.035L100.04 47.445V47.445ZM115.56 41.305C114.79 41.765 113.8 41.525 113.33 40.765C112.87 40.005 113.12 39.005 113.88 38.545L115.56 41.305ZM114.05 38.445L115.72 41.215L115.56 41.305L113.88 38.545L114.05 38.445V38.445ZM114.05 38.445C114.81 37.985 115.8 38.225 116.27 38.985C116.73 39.755 116.49 40.745 115.72 41.215L114.05 38.445V38.445ZM130.07 33.815C129.27 34.205 128.3 33.865 127.91 33.065C127.53 32.255 127.86 31.285 128.67 30.905L130.07 33.815V33.815ZM128.84 30.825L130.25 33.735L130.07 33.815L128.67 30.905L128.84 30.825V30.825ZM128.84 30.825C129.65 30.435 130.61 30.775 131 31.575C131.39 32.385 131.05 33.345 130.25 33.735L128.84 30.825ZM145.23 27.745C144.4 28.055 143.47 27.625 143.16 26.785C142.85 25.945 143.28 25.015 144.12 24.705L145.23 27.745V27.745ZM144.3 24.645L145.42 27.685L145.23 27.745L144.12 24.705L144.3 24.645ZM144.3 24.645C145.14 24.345 146.07 24.775 146.38 25.615C146.69 26.445 146.25 27.375 145.42 27.685L144.3 24.645ZM160.9 23.155C160.04 23.375 159.16 22.855 158.94 21.995C158.71 21.125 159.23 20.245 160.1 20.025L160.9 23.155V23.155ZM160.29 19.975L161.09 23.115L160.9 23.155L160.1 20.025L160.29 19.975ZM160.29 19.975C161.15 19.755 162.03 20.275 162.26 21.145C162.48 22.005 161.96 22.885 161.09 23.115L160.29 19.975ZM176.94 20.075C176.06 20.215 175.23 19.605 175.1 18.725C174.96 17.845 175.57 17.015 176.45 16.885L176.94 20.075V20.075ZM176.64 16.855L177.13 20.055L176.94 20.075L176.45 16.885L176.64 16.855V16.855ZM176.64 16.855C177.53 16.725 178.35 17.325 178.49 18.215C178.62 19.095 178.01 19.915 177.13 20.055L176.64 16.855V16.855ZM193.2 18.525C192.31 18.575 191.55 17.885 191.5 16.995C191.46 16.105 192.14 15.345 193.03 15.295L193.2 18.525V18.525ZM193.23 15.295L193.39 18.525H193.2L193.03 15.295H193.23ZM193.23 15.295C194.12 15.255 194.88 15.935 194.92 16.825C194.97 17.715 194.28 18.475 193.39 18.525L193.23 15.295V15.295ZM209.61 18.535C208.72 18.535 207.99 17.805 207.99 16.915C207.99 16.025 208.72 15.295 209.61 15.295V18.535V18.535ZM209.8 15.305V18.535H209.61V15.295L209.8 15.305V15.305ZM209.8 15.305C210.7 15.305 211.42 16.025 211.42 16.925C211.42 17.815 210.7 18.535 209.8 18.535V15.305ZM225.86 20.095C224.98 20.005 224.33 19.215 224.42 18.325C224.51 17.435 225.3 16.795 226.19 16.885L225.86 20.095ZM226.38 16.905L226.06 20.125L225.86 20.095L226.19 16.885L226.38 16.905V16.905ZM226.38 16.905C227.27 16.995 227.92 17.785 227.83 18.675C227.74 19.565 226.94 20.215 226.06 20.125L226.38 16.905V16.905ZM241.9 23.195C241.02 23.015 240.46 22.155 240.64 21.285C240.82 20.405 241.67 19.845 242.54 20.025L241.9 23.195V23.195ZM242.73 20.065L242.09 23.235L241.9 23.195L242.54 20.025L242.73 20.065ZM242.73 20.065C243.61 20.245 244.17 21.095 243.99 21.975C243.82 22.845 242.96 23.415 242.09 23.235L242.73 20.065V20.065ZM257.56 27.795C256.71 27.535 256.24 26.625 256.5 25.775C256.76 24.925 257.67 24.445 258.52 24.715L257.56 27.795V27.795ZM258.71 24.775L257.75 27.855L257.56 27.795L258.52 24.715L258.71 24.775ZM258.71 24.775C259.56 25.035 260.03 25.945 259.77 26.795C259.51 27.645 258.6 28.125 257.75 27.855L258.71 24.775V24.775ZM272.72 33.885C271.9 33.535 271.51 32.585 271.86 31.765C272.21 30.945 273.16 30.555 273.98 30.905L272.72 33.885ZM274.15 30.985L272.89 33.965L272.72 33.885L273.98 30.905L274.15 30.985ZM274.15 30.985C274.98 31.335 275.36 32.285 275.01 33.105C274.67 33.925 273.72 34.305 272.89 33.965L274.15 30.985ZM287.22 41.385C286.44 40.965 286.15 39.975 286.58 39.195C287 38.415 287.98 38.115 288.77 38.545L287.22 41.385V41.385ZM288.94 38.645L287.39 41.485L287.22 41.385L288.77 38.545L288.94 38.645V38.645ZM288.94 38.645C289.72 39.065 290.01 40.055 289.59 40.835C289.16 41.615 288.18 41.915 287.39 41.485L288.94 38.645ZM300.95 50.235C300.21 49.735 300.02 48.735 300.52 47.995C301.02 47.255 302.02 47.055 302.76 47.555L300.95 50.235V50.235ZM302.92 47.675L301.11 50.345L300.95 50.235L302.76 47.555L302.92 47.675ZM302.92 47.675C303.66 48.165 303.85 49.175 303.36 49.915C302.86 50.655 301.85 50.845 301.11 50.345L302.92 47.675ZM313.78 60.355C313.09 59.785 312.99 58.765 313.56 58.075C314.13 57.385 315.15 57.285 315.84 57.855L313.78 60.355V60.355ZM315.99 57.985L313.93 60.475L313.78 60.355L315.84 57.855L315.99 57.985V57.985ZM315.99 57.985C316.67 58.555 316.77 59.575 316.2 60.255C315.64 60.945 314.62 61.045 313.93 60.475L315.99 57.985ZM325.6 71.635C324.96 71.005 324.96 69.975 325.6 69.345C326.23 68.715 327.25 68.715 327.88 69.345L325.6 71.635ZM328.02 69.485L325.73 71.775L325.6 71.635L327.88 69.345L328.02 69.485V69.485ZM328.02 69.485C328.65 70.115 328.65 71.145 328.02 71.775C327.38 72.405 326.36 72.405 325.73 71.775L328.02 69.485ZM336.29 83.985C335.72 83.295 335.82 82.275 336.51 81.705C337.2 81.135 338.22 81.235 338.79 81.925L336.29 83.985ZM338.91 82.075L336.41 84.135L336.29 83.985L338.79 81.925L338.91 82.075ZM338.91 82.075C339.47 82.765 339.37 83.785 338.69 84.355C338 84.925 336.98 84.825 336.41 84.135L338.91 82.075ZM345.77 97.285C345.27 96.545 345.47 95.545 346.2 95.045C346.94 94.545 347.95 94.735 348.45 95.475L345.77 97.285V97.285ZM348.55 95.635L345.87 97.445L345.77 97.285L348.45 95.475L348.55 95.635ZM348.55 95.635C349.05 96.375 348.86 97.385 348.12 97.885C347.38 98.385 346.37 98.185 345.87 97.445L348.55 95.635ZM353.94 111.435C353.51 110.645 353.8 109.665 354.59 109.235C355.37 108.815 356.36 109.105 356.78 109.885L353.94 111.435V111.435ZM356.87 110.055L354.03 111.605L353.94 111.435L356.78 109.885L356.87 110.055ZM356.87 110.055C357.3 110.845 357 111.825 356.22 112.255C355.44 112.675 354.45 112.385 354.03 111.605L356.87 110.055V110.055ZM360.72 126.285C360.38 125.465 360.76 124.515 361.58 124.165C362.4 123.825 363.36 124.205 363.7 125.025L360.72 126.285ZM363.77 125.205L360.79 126.465L360.72 126.285L363.7 125.025L363.77 125.205ZM363.77 125.205C364.12 126.025 363.74 126.975 362.91 127.325C362.09 127.675 361.14 127.285 360.79 126.465L363.77 125.205ZM366.06 141.725C365.79 140.875 366.27 139.965 367.12 139.695C367.97 139.435 368.88 139.905 369.15 140.765L366.06 141.725ZM369.2 140.945L366.11 141.905L366.06 141.725L369.15 140.765L369.2 140.945ZM369.2 140.945C369.46 141.805 368.99 142.705 368.13 142.975C367.28 143.235 366.37 142.765 366.11 141.905L369.2 140.945ZM369.89 157.595C369.71 156.725 370.28 155.865 371.15 155.685C372.03 155.505 372.88 156.075 373.06 156.945L369.89 157.595ZM373.09 157.135L369.92 157.785L369.89 157.595L373.06 156.945L373.09 157.135ZM373.09 157.135C373.27 158.015 372.71 158.865 371.83 159.045C370.96 159.225 370.1 158.655 369.92 157.785L373.09 157.135ZM372.2 173.755C372.11 172.875 372.76 172.075 373.65 171.985C374.53 171.895 375.33 172.545 375.42 173.435L372.2 173.755V173.755ZM375.43 173.625L372.21 173.955L372.2 173.755L375.42 173.435L375.43 173.625V173.625ZM375.43 173.625C375.52 174.515 374.87 175.305 373.99 175.395C373.1 175.485 372.3 174.845 372.21 173.955L375.43 173.625V173.625ZM372.98 190.075C372.98 189.175 373.71 188.455 374.6 188.455C375.49 188.455 376.22 189.175 376.22 190.075H372.98ZM376.21 190.265H372.98V190.075H376.22L376.21 190.265ZM376.21 190.265C376.21 191.155 375.49 191.885 374.6 191.885C373.7 191.885 372.98 191.155 372.98 190.265H376.21ZM372.18 206.465C372.23 205.575 372.99 204.885 373.88 204.935C374.77 204.975 375.46 205.735 375.41 206.625L372.18 206.465V206.465ZM375.4 206.825L372.17 206.655L372.18 206.465L375.41 206.625L375.4 206.825ZM375.4 206.825C375.35 207.715 374.59 208.395 373.7 208.355C372.81 208.305 372.12 207.545 372.17 206.655L375.4 206.825V206.825ZM369.85 222.625C369.98 221.745 370.81 221.135 371.69 221.275C372.57 221.405 373.18 222.235 373.05 223.115L369.85 222.625ZM373.01 223.305L369.82 222.815L369.85 222.625L373.05 223.115L373.01 223.305V223.305ZM373.01 223.305C372.88 224.185 372.05 224.795 371.17 224.655C370.29 224.525 369.68 223.695 369.82 222.815L373.01 223.305ZM365.99 238.495C366.21 237.625 367.1 237.105 367.96 237.325C368.82 237.555 369.35 238.435 369.12 239.295L365.99 238.495V238.495ZM369.07 239.485L365.94 238.685L365.99 238.495L369.12 239.295L369.07 239.485ZM369.07 239.485C368.85 240.345 367.97 240.875 367.1 240.645C366.24 240.425 365.72 239.545 365.94 238.685L369.07 239.485V239.485ZM360.63 253.915C360.94 253.085 361.87 252.645 362.71 252.955C363.55 253.265 363.98 254.195 363.67 255.035L360.63 253.915V253.915ZM363.6 255.215L360.56 254.105L360.63 253.915L363.67 255.035L363.6 255.215ZM363.6 255.215C363.29 256.045 362.36 256.485 361.53 256.175C360.69 255.865 360.26 254.935 360.56 254.105L363.6 255.215ZM353.83 268.765C354.22 267.965 355.18 267.625 355.99 268.015C356.79 268.395 357.13 269.365 356.74 270.165L353.83 268.765ZM356.65 270.345L353.74 268.935L353.83 268.765L356.74 270.165L356.65 270.345V270.345ZM356.65 270.345C356.27 271.145 355.3 271.485 354.49 271.095C353.69 270.705 353.35 269.745 353.74 268.935L356.65 270.345ZM345.64 282.895C346.1 282.135 347.1 281.895 347.86 282.355C348.62 282.815 348.86 283.815 348.4 284.575L345.64 282.895V282.895ZM348.3 284.735L345.53 283.065L345.64 282.895L348.4 284.575L348.3 284.735ZM348.3 284.735C347.83 285.505 346.84 285.745 346.08 285.285C345.31 284.815 345.07 283.825 345.53 283.065L348.3 284.735V284.735ZM336.14 296.185C336.67 295.475 337.69 295.325 338.4 295.865C339.12 296.395 339.26 297.405 338.73 298.125L336.14 296.185ZM338.61 298.275L336.02 296.335L336.14 296.185L338.73 298.125L338.61 298.275ZM338.61 298.275C338.08 298.995 337.06 299.135 336.35 298.605C335.63 298.065 335.49 297.055 336.02 296.335L338.61 298.275ZM325.43 308.515C326.03 307.855 327.05 307.815 327.71 308.415C328.37 309.005 328.42 310.035 327.82 310.695L325.43 308.515V308.515ZM327.69 310.835L325.29 308.665L325.43 308.515L327.82 310.695L327.69 310.835ZM327.69 310.835C327.09 311.495 326.06 311.545 325.4 310.945C324.74 310.345 324.69 309.325 325.29 308.665L327.69 310.835V310.835ZM313.6 319.785C314.26 319.185 315.28 319.235 315.88 319.895C316.48 320.555 316.43 321.575 315.77 322.175L313.6 319.785V319.785ZM315.63 322.305L313.45 319.915L313.6 319.785L315.77 322.175L315.63 322.305ZM315.63 322.305C314.96 322.905 313.94 322.855 313.34 322.195C312.74 321.535 312.79 320.515 313.45 319.915L315.63 322.305ZM300.75 329.875C301.47 329.345 302.48 329.495 303.02 330.205C303.55 330.925 303.4 331.935 302.69 332.465L300.75 329.875ZM302.53 332.585L300.59 329.995L300.75 329.875L302.69 332.465L302.53 332.585ZM302.53 332.585C301.82 333.115 300.8 332.965 300.27 332.255C299.73 331.545 299.88 330.525 300.59 329.995L302.53 332.585ZM287.01 338.715C287.77 338.245 288.77 338.495 289.23 339.255C289.69 340.015 289.45 341.015 288.69 341.475L287.01 338.715V338.715ZM288.52 341.575L286.84 338.805L287.01 338.715L288.69 341.475L288.52 341.575V341.575ZM288.52 341.575C287.76 342.035 286.76 341.795 286.3 341.025C285.84 340.265 286.08 339.275 286.84 338.805L288.52 341.575V341.575ZM272.49 346.195C273.3 345.805 274.26 346.145 274.65 346.945C275.04 347.755 274.7 348.715 273.9 349.105L272.49 346.195ZM273.72 349.185L272.32 346.275L272.49 346.195L273.9 349.105L273.72 349.185V349.185ZM273.72 349.185C272.92 349.575 271.95 349.235 271.56 348.435C271.18 347.625 271.51 346.665 272.32 346.275L273.72 349.185V349.185ZM257.33 352.255C258.17 351.945 259.1 352.385 259.4 353.215C259.71 354.055 259.28 354.985 258.44 355.295L257.33 352.255V352.255ZM258.26 355.355L257.14 352.315L257.33 352.255L258.44 355.295L258.26 355.355ZM258.26 355.355C257.42 355.665 256.49 355.235 256.18 354.395C255.87 353.555 256.31 352.625 257.14 352.315L258.26 355.355V355.355ZM241.66 356.835C242.52 356.615 243.4 357.135 243.62 358.005C243.85 358.865 243.32 359.745 242.46 359.975L241.66 356.835V356.835ZM242.27 360.015L241.47 356.885L241.66 356.835L242.46 359.975L242.27 360.015ZM242.27 360.015C241.41 360.235 240.52 359.715 240.3 358.855C240.08 357.985 240.6 357.105 241.47 356.885L242.27 360.015V360.015ZM225.62 359.905C226.5 359.775 227.32 360.385 227.46 361.265C227.59 362.145 226.99 362.975 226.1 363.105L225.62 359.905ZM225.91 363.125L225.42 359.935L225.62 359.905L226.1 363.105L225.91 363.125V363.125ZM225.91 363.125C225.03 363.265 224.2 362.655 224.07 361.775C223.93 360.895 224.54 360.065 225.42 359.935L225.91 363.125ZM209.36 361.445C210.25 361.405 211.01 362.095 211.06 362.985C211.1 363.875 210.41 364.635 209.52 364.675L209.36 361.445ZM209.33 364.685L209.17 361.455L209.36 361.445L209.52 364.675L209.33 364.685ZM209.33 364.685C208.44 364.725 207.68 364.045 207.63 363.145C207.59 362.255 208.28 361.495 209.17 361.455L209.33 364.685ZM192.95 361.445C193.84 361.445 194.56 362.165 194.56 363.055C194.56 363.945 193.84 364.675 192.95 364.675V361.445ZM192.75 364.665V361.435L192.95 361.445V364.675L192.75 364.665ZM192.75 364.665C191.86 364.665 191.14 363.945 191.14 363.055C191.14 362.165 191.86 361.435 192.75 361.435V364.665ZM176.69 359.865C177.58 359.955 178.23 360.755 178.14 361.635C178.05 362.525 177.25 363.175 176.37 363.085L176.69 359.865V359.865ZM176.17 363.065L176.5 359.845L176.69 359.865L176.37 363.085L176.17 363.065V363.065ZM176.17 363.065C175.29 362.975 174.64 362.175 174.73 361.285C174.82 360.405 175.61 359.755 176.5 359.845L176.17 363.065V363.065ZM160.66 356.765C161.53 356.945 162.1 357.795 161.92 358.675C161.74 359.545 160.89 360.115 160.01 359.935L160.66 356.765ZM159.82 359.885L160.47 356.725L160.66 356.765L160.01 359.935L159.82 359.885ZM159.82 359.885C158.95 359.715 158.39 358.855 158.56 357.985C158.74 357.105 159.6 356.545 160.47 356.725L159.82 359.885V359.885ZM145 352.155C145.85 352.415 146.32 353.325 146.06 354.175C145.8 355.025 144.89 355.505 144.04 355.235L145 352.155ZM143.85 355.175L144.81 352.085L145 352.155L144.04 355.235L143.85 355.175ZM143.85 355.175C143 354.915 142.53 354.005 142.79 353.155C143.05 352.305 143.96 351.825 144.81 352.085L143.85 355.175ZM129.85 346.055C130.67 346.405 131.05 347.355 130.71 348.175C130.36 348.995 129.41 349.385 128.59 349.035L129.85 346.055ZM128.41 348.955L129.67 345.975L129.85 346.055L128.59 349.035L128.41 348.955ZM128.41 348.955C127.59 348.605 127.2 347.655 127.55 346.835C127.9 346.015 128.85 345.635 129.67 345.975L128.41 348.955ZM115.34 338.545C116.13 338.975 116.42 339.955 115.99 340.735C115.57 341.525 114.58 341.815 113.8 341.385L115.34 338.545V338.545ZM113.63 341.295L115.18 338.445L115.34 338.545L113.8 341.385L113.63 341.295V341.295ZM113.63 341.295C112.85 340.865 112.56 339.885 112.98 339.095C113.41 338.315 114.39 338.025 115.18 338.445L113.63 341.295V341.295ZM101.62 329.685C102.36 330.185 102.55 331.195 102.05 331.935C101.55 332.675 100.55 332.865 99.81 332.365L101.62 329.685V329.685ZM99.65 332.255L101.46 329.575L101.62 329.685L99.81 332.365L99.65 332.255ZM99.65 332.255C98.91 331.755 98.72 330.745 99.22 330.015C99.72 329.275 100.72 329.075 101.46 329.575L99.65 332.255V332.255ZM88.8 319.565C89.48 320.135 89.58 321.155 89.01 321.845C88.45 322.535 87.43 322.625 86.74 322.065L88.8 319.565ZM86.59 321.935L88.65 319.445L88.8 319.565L86.74 322.065L86.59 321.935ZM86.59 321.935C85.9 321.365 85.8 320.345 86.37 319.655C86.94 318.975 87.96 318.875 88.65 319.445L86.59 321.935V321.935ZM76.99 308.285C77.62 308.915 77.62 309.935 76.99 310.565C76.36 311.195 75.33 311.195 74.7 310.565L76.99 308.285ZM74.57 310.425L76.85 308.135L76.99 308.285L74.7 310.565L74.57 310.425V310.425ZM74.57 310.425C73.93 309.795 73.93 308.775 74.57 308.135C75.2 307.505 76.22 307.505 76.85 308.135L74.57 310.425ZM66.3 295.925C66.87 296.615 66.77 297.635 66.08 298.205C65.39 298.775 64.37 298.675 63.8 297.985L66.3 295.925V295.925ZM63.68 297.835L66.18 295.775L66.3 295.925L63.8 297.985L63.68 297.835V297.835ZM63.68 297.835C63.12 297.145 63.21 296.125 63.9 295.555C64.59 294.985 65.61 295.085 66.18 295.775L63.68 297.835V297.835ZM56.83 282.615C57.33 283.355 57.13 284.365 56.39 284.865C55.65 285.365 54.65 285.165 54.15 284.425L56.83 282.615ZM54.04 284.265L56.72 282.455L56.83 282.615L54.15 284.425L54.04 284.265ZM54.04 284.265C53.54 283.525 53.74 282.515 54.48 282.025C55.22 281.525 56.22 281.715 56.72 282.455L54.04 284.265ZM48.66 268.465C49.09 269.255 48.8 270.235 48.01 270.665C47.23 271.085 46.25 270.795 45.82 270.015L48.66 268.465ZM45.73 269.845L48.57 268.295L48.66 268.465L45.82 270.015L45.73 269.845V269.845ZM45.73 269.845C45.31 269.055 45.6 268.075 46.38 267.645C47.17 267.225 48.15 267.515 48.57 268.295L45.73 269.845V269.845ZM41.89 253.605C42.23 254.435 41.85 255.385 41.03 255.725C40.2 256.075 39.25 255.695 38.91 254.865L41.89 253.605ZM38.84 254.685L41.81 253.425L41.89 253.605L38.91 254.865L38.84 254.685ZM38.84 254.685C38.49 253.865 38.87 252.915 39.69 252.565C40.52 252.225 41.47 252.605 41.81 253.425L38.84 254.685ZM36.56 238.175C36.82 239.025 36.35 239.935 35.5 240.195C34.64 240.455 33.74 239.985 33.47 239.135L36.56 238.175ZM33.42 238.945L36.51 237.985L36.56 238.175L33.47 239.135L33.42 238.945ZM33.42 238.945C33.16 238.095 33.63 237.185 34.48 236.925C35.34 236.655 36.24 237.135 36.51 237.985L33.42 238.945V238.945ZM32.73 222.295C32.91 223.175 32.35 224.025 31.47 224.205C30.6 224.385 29.74 223.815 29.57 222.945L32.73 222.295ZM29.53 222.755L32.7 222.105L32.73 222.295L29.57 222.945L29.53 222.755ZM29.53 222.755C29.36 221.875 29.92 221.025 30.79 220.845C31.67 220.665 32.52 221.235 32.7 222.105L29.53 222.755V222.755ZM30.44 206.135C30.52 207.015 29.88 207.815 28.99 207.905C28.1 207.995 27.31 207.345 27.22 206.455L30.44 206.135V206.135ZM27.2 206.265L30.42 205.935L30.44 206.135L27.22 206.455L27.2 206.265V206.265ZM27.2 206.265C27.11 205.375 27.76 204.585 28.65 204.495C29.54 204.405 30.33 205.055 30.42 205.935L27.2 206.265Z" fill="#7E71B1"/>
<path d="M70.05 165.095C71.73 171.565 118.5 201.075 118.5 201.075C108.4 201.885 109.99 224.925 109.99 224.925L63.41 218.495C60.01 218.025 56.7 217.175 53.53 216.005C66.18 285.865 127.31 338.855 200.81 338.855C209.29 338.855 217.61 338.145 225.7 336.785C219.95 327.045 213.68 312.795 212.31 298.605C210.09 275.565 210.69 255.755 210.69 255.755C210.69 255.755 203.21 242.265 199.98 238.605L213.73 245.455C213.73 245.455 208.47 235.245 210.49 231.755C212.51 228.275 216.76 239.185 220.39 241.615C224.03 244.035 234.14 250.505 233.53 258.995C232.93 267.485 257.25 314.305 257.25 314.305L287.1 311.485C287.17 311.435 287.24 311.395 287.31 311.345C287.55 311.175 287.79 310.995 288.03 310.825C288.69 310.355 289.34 309.875 289.99 309.395C290.3 309.165 290.61 308.925 290.92 308.695C291.51 308.245 292.1 307.795 292.68 307.345C292.99 307.105 293.29 306.865 293.6 306.625C294.23 306.125 294.85 305.625 295.47 305.125C295.71 304.925 295.95 304.735 296.18 304.535C297.03 303.835 297.87 303.125 298.7 302.405C298.85 302.285 299 302.145 299.15 302.015C299.83 301.425 300.51 300.825 301.18 300.215C301.45 299.965 301.72 299.715 302 299.465C302.55 298.965 303.09 298.455 303.63 297.945C303.92 297.675 304.2 297.405 304.49 297.125C305.04 296.605 305.58 296.075 306.12 295.535C306.37 295.285 306.62 295.045 306.87 294.795C307.61 294.045 308.35 293.295 309.08 292.525C309.11 292.495 309.14 292.465 309.17 292.435C309.93 291.635 310.68 290.825 311.42 290.015C311.65 289.765 311.88 289.505 312.11 289.255C312.62 288.685 313.13 288.115 313.64 287.535C313.9 287.235 314.15 286.935 314.41 286.635C314.89 286.075 315.37 285.505 315.85 284.935C316.09 284.645 316.33 284.365 316.57 284.075C317.12 283.405 317.66 282.725 318.2 282.045C318.35 281.855 318.5 281.675 318.64 281.485C319.32 280.625 319.99 279.745 320.65 278.865C320.82 278.635 320.99 278.405 321.16 278.175C321.65 277.515 322.14 276.855 322.61 276.185C322.84 275.875 323.06 275.555 323.28 275.245C323.71 274.635 324.13 274.025 324.55 273.415C324.77 273.095 324.99 272.775 325.2 272.445C325.65 271.785 326.08 271.125 326.51 270.455C326.69 270.185 326.86 269.925 327.03 269.665C327.63 268.725 328.21 267.795 328.79 266.845C328.88 266.695 328.96 266.545 329.06 266.395C329.54 265.595 330.01 264.795 330.48 263.985C330.67 263.665 330.85 263.345 331.03 263.025C331.4 262.375 331.77 261.715 332.13 261.055C332.32 260.705 332.51 260.355 332.7 260.005C333.06 259.335 333.42 258.655 333.77 257.975C333.93 257.665 334.1 257.345 334.26 257.025C334.73 256.115 335.18 255.205 335.63 254.275C335.67 254.195 335.71 254.115 335.75 254.035C336.23 253.035 336.7 252.025 337.16 251.015C337.3 250.705 337.44 250.395 337.57 250.085C337.89 249.365 338.21 248.645 338.52 247.925C338.68 247.555 338.83 247.195 338.98 246.825C339.27 246.135 339.56 245.435 339.84 244.735C339.98 244.375 340.12 244.025 340.26 243.665C340.58 242.855 340.89 242.045 341.19 241.225C341.28 240.985 341.37 240.745 341.46 240.505C341.82 239.525 342.17 238.525 342.51 237.525C341.22 225.725 320.85 188.855 320.85 188.855C320.98 188.805 321.1 188.745 321.23 188.695L251.52 167.635C251.52 167.635 251.62 170.365 248.69 173.595C245.76 176.835 247.98 180.975 244.75 179.965C241.52 178.955 242.69 167.635 242.69 167.635C242.69 167.635 222.21 156.215 219.49 154.495C216.76 152.775 216.55 142.875 219.49 141.055C222.42 139.235 235.55 141.055 238.69 141.055C241.82 141.055 253.14 146.005 253.14 146.005C253.14 146.005 301.45 139.135 326.51 143.175C335.03 144.555 340.94 146.765 345.05 149.095C327.53 85.885 269.6 39.485 200.81 39.485C194.48 39.485 188.24 39.885 182.11 40.645C195.97 68.705 194.5 120.985 194.5 120.985L167.82 120.625L144.62 60.105L130.57 56.965C125.14 59.855 119.92 63.065 114.91 66.585C114.41 66.935 113.9 67.295 113.4 67.655C113.04 67.915 112.69 68.175 112.34 68.435C111.83 68.805 111.33 69.165 110.84 69.545C110.52 69.775 110.21 70.015 109.9 70.255C108.99 70.955 108.09 71.665 107.19 72.385C106.84 72.665 106.5 72.945 106.15 73.225C105.68 73.605 105.22 73.995 104.75 74.385C104.4 74.675 104.05 74.975 103.7 75.275C103.24 75.665 102.79 76.055 102.34 76.445C101.98 76.755 101.62 77.075 101.27 77.395C100.53 78.045 99.81 78.705 99.09 79.375C98.69 79.745 98.29 80.115 97.9 80.485C97.49 80.875 97.08 81.265 96.67 81.665C96.31 82.015 95.95 82.365 95.59 82.725C95.19 83.115 94.79 83.515 94.39 83.915C94.02 84.285 93.66 84.665 93.29 85.045C92.92 85.435 92.54 85.815 92.17 86.205C91.58 86.835 90.99 87.465 90.41 88.095C90.01 88.535 89.62 88.965 89.23 89.405C88.84 89.845 88.44 90.295 88.05 90.735C87.71 91.125 87.37 91.515 87.04 91.905C86.66 92.345 86.29 92.795 85.92 93.235C85.6 93.615 85.28 93.995 84.97 94.385C84.53 94.915 84.1 95.455 83.67 95.995C83.35 96.395 83.03 96.785 82.72 97.185C82.18 97.885 81.64 98.585 81.11 99.295C80.84 99.645 80.58 100.005 80.32 100.355C79.93 100.885 79.55 101.405 79.17 101.935C78.9 102.305 78.64 102.675 78.38 103.045C77.98 103.615 77.59 104.185 77.19 104.755C76.97 105.075 76.75 105.395 76.53 105.725C75.95 106.585 75.38 107.455 74.82 108.325C74.64 108.605 74.47 108.875 74.3 109.145C73.89 109.795 73.48 110.455 73.07 111.115C72.86 111.455 72.65 111.805 72.44 112.155C72.07 112.775 71.7 113.395 71.34 114.015C71.15 114.355 70.95 114.685 70.76 115.015C70.29 115.845 69.82 116.675 69.36 117.515C69.3 117.635 69.23 117.745 69.17 117.865C68.65 118.815 68.15 119.775 67.66 120.735C67.5 121.035 67.34 121.345 67.19 121.655C66.84 122.345 66.5 123.035 66.16 123.725C66 124.065 65.83 124.405 65.67 124.735C65.31 125.485 64.96 126.235 64.62 126.995C64.51 127.245 64.39 127.495 64.27 127.745C63.82 128.745 63.38 129.745 62.96 130.755C62.86 130.985 62.76 131.215 62.67 131.445C62.34 132.245 62.01 133.045 61.69 133.845C61.56 134.185 61.43 134.515 61.29 134.855C61.17 135.175 61.05 135.505 60.92 135.825C61.08 135.945 61.24 136.075 61.4 136.195C62.54 145.095 68.39 158.675 70.05 165.095V165.095Z" fill="#22AF9C"/>
<path d="M331.03 115.345C334.1 125.115 336.25 135.295 337.41 145.775C340.48 146.785 342.99 147.925 345.05 149.095C341.75 137.175 337.01 125.865 331.03 115.345Z" fill="#179C89"/>
<path d="M253 305.945C255.52 310.985 257.25 314.305 257.25 314.305L287.1 311.485C287.17 311.435 287.24 311.395 287.31 311.345C287.55 311.175 287.79 310.995 288.03 310.825C288.69 310.355 289.34 309.875 289.99 309.395C290.3 309.165 290.61 308.925 290.92 308.695C291.51 308.245 292.1 307.795 292.68 307.345C292.99 307.105 293.29 306.865 293.6 306.625C294.23 306.125 294.85 305.625 295.47 305.125C295.71 304.925 295.95 304.735 296.18 304.535C297.03 303.835 297.87 303.125 298.7 302.405C298.85 302.285 299 302.145 299.15 302.015C299.83 301.425 300.51 300.825 301.18 300.215C301.45 299.965 301.72 299.715 302 299.465C302.55 298.965 303.09 298.455 303.63 297.945C303.92 297.675 304.2 297.405 304.49 297.125C305.04 296.605 305.58 296.075 306.12 295.535C306.37 295.285 306.62 295.045 306.87 294.795C307.61 294.045 308.35 293.295 309.08 292.525C309.11 292.495 309.14 292.465 309.17 292.435C309.93 291.635 310.68 290.825 311.42 290.015C311.65 289.765 311.88 289.505 312.11 289.255C312.62 288.685 313.13 288.115 313.64 287.535C313.9 287.235 314.15 286.935 314.41 286.635C314.89 286.075 315.37 285.505 315.85 284.935C316.09 284.645 316.33 284.365 316.57 284.075C317.12 283.405 317.66 282.725 318.2 282.045C318.35 281.855 318.5 281.675 318.64 281.485C319.32 280.625 319.99 279.745 320.65 278.865C320.82 278.635 320.99 278.405 321.16 278.175C321.65 277.515 322.14 276.855 322.61 276.185C322.84 275.875 323.06 275.555 323.28 275.245C323.71 274.635 324.13 274.025 324.55 273.415C324.77 273.095 324.99 272.775 325.2 272.445C325.65 271.785 326.08 271.125 326.51 270.455C326.69 270.185 326.86 269.925 327.03 269.665C327.63 268.725 328.21 267.795 328.79 266.845C328.88 266.695 328.96 266.545 329.06 266.395C329.54 265.595 330.01 264.795 330.48 263.985C330.67 263.665 330.85 263.345 331.03 263.025C331.4 262.375 331.77 261.715 332.13 261.055C332.32 260.705 332.51 260.355 332.7 260.005C333.06 259.335 333.42 258.655 333.77 257.975C333.93 257.665 334.1 257.345 334.26 257.025C334.73 256.115 335.18 255.205 335.63 254.275C335.67 254.195 335.71 254.115 335.75 254.035C336.23 253.035 336.7 252.025 337.16 251.015C337.3 250.705 337.44 250.395 337.57 250.085C337.89 249.365 338.21 248.645 338.52 247.925C338.68 247.555 338.83 247.195 338.98 246.825C339.27 246.135 339.56 245.435 339.84 244.735C339.98 244.375 340.12 244.025 340.26 243.665C340.58 242.855 340.89 242.045 341.19 241.225C341.28 240.985 341.37 240.745 341.46 240.505C341.82 239.525 342.17 238.525 342.51 237.525C341.88 231.815 336.79 220.225 331.7 209.785C319.3 251.355 290.6 285.885 253 305.945V305.945Z" fill="#179C89"/>
<path d="M177.22 324.845C155.94 324.845 135.63 320.715 117.04 313.225C140.94 329.405 169.77 338.855 200.81 338.855C209.29 338.855 217.61 338.145 225.7 336.785C222.88 332.015 219.95 326.165 217.52 319.775C204.64 323.085 191.13 324.845 177.22 324.845V324.845Z" fill="#179C89"/>
<path d="M332.75 180.765C331.23 182.215 329.64 183.575 327.97 184.785C329.64 183.565 331.23 182.215 332.75 180.765Z" fill="#1C7472"/>
<path d="M332.83 180.695C333.2 180.335 333.57 179.975 333.93 179.605C333.57 179.975 333.2 180.335 332.83 180.695Z" fill="#1C7472"/>
<path d="M327.89 184.845C327.48 185.145 327.08 185.425 326.66 185.705C327.08 185.425 327.48 185.145 327.89 184.845Z" fill="#1C7472"/>
<path d="M347.47 160.875C347.55 160.715 347.64 160.565 347.73 160.405C347.64 160.565 347.56 160.715 347.47 160.875Z" fill="#1C7472"/>
<path d="M322.56 188.085C322.14 188.285 321.72 188.475 321.3 188.665C321.72 188.475 322.14 188.285 322.56 188.085Z" fill="#1C7472"/>
<path d="M337.14 176.095C336.12 177.305 335.05 178.475 333.93 179.605C335.05 178.475 336.12 177.305 337.14 176.095Z" fill="#1C7472"/>
<path d="M321.23 188.695L251.52 167.635C251.52 167.635 251.61 170.225 248.9 173.355C249.61 175.085 250.67 176.425 252.17 177.225C261.33 182.075 285.59 177.935 287.74 189.165C289.9 200.405 286.02 201.475 279.88 199.865C273.73 198.245 275.89 192.315 268.88 192.855C261.87 193.395 253.79 215.495 253.79 215.495L252.99 217.415C248.9 227.285 250.83 238.775 258.3 246.415C260.18 248.335 262.14 249.715 264.03 249.985C271.57 251.065 286.13 253.225 288.28 260.765C290.44 268.315 289.9 280.165 296.37 280.165C302.84 280.165 310.38 245.135 319.55 240.825C328.71 236.515 311.46 214.415 326.01 213.335C328.53 213.145 331.15 213.455 333.75 214.075C327.74 201.325 320.85 188.855 320.85 188.855C320.98 188.805 321.1 188.745 321.23 188.695V188.695Z" fill="#1C7472"/>
<path d="M326.64 185.725C325.36 186.575 324.04 187.345 322.68 188.015C324.04 187.345 325.36 186.575 326.64 185.725Z" fill="#1C7472"/>
<path d="M347.33 161.125C347.13 161.495 346.92 161.855 346.71 162.235C346.92 161.855 347.13 161.495 347.33 161.125Z" fill="#1C7472"/>
<path d="M346.71 162.235C346.48 162.635 346.25 163.035 346.01 163.435C346.25 163.035 346.48 162.635 346.71 162.235Z" fill="#1C7472"/>
<path d="M345.97 163.495C345.76 163.865 345.54 164.225 345.32 164.595C345.54 164.225 345.76 163.865 345.97 163.495Z" fill="#1C7472"/>
<path d="M253.14 146.005C253.14 146.005 301.45 139.135 326.51 143.175C335.03 144.555 340.95 146.775 345.06 149.095C338.29 124.685 325.5 102.775 308.37 85.085C305.62 88.345 302.3 93.265 302.3 97.995C302.3 106.075 306.07 115.235 302.3 116.315C298.52 117.395 297.45 104.455 292.6 106.615C287.74 108.775 291.52 121.345 285.05 120.985C278.58 120.625 261.87 121.705 255.94 134.645C254.54 137.715 253.07 141.445 251.78 145.425C252.62 145.775 253.14 146.005 253.14 146.005V146.005Z" fill="#1C7472"/>
<path d="M345.18 164.815C344.98 165.145 344.78 165.485 344.57 165.815C344.78 165.485 344.98 165.145 345.18 164.815Z" fill="#1C7472"/>
<path d="M338.17 174.855C337.86 175.235 337.55 175.615 337.23 175.985C337.55 175.615 337.86 175.235 338.17 174.855Z" fill="#1C7472"/>
<path d="M344.44 166.015C343.68 167.235 342.88 168.465 342.03 169.695C342.88 168.465 343.68 167.235 344.44 166.015Z" fill="#1C7472"/>
<path d="M341.04 171.095C340.15 172.335 339.21 173.575 338.22 174.795C339.21 173.575 340.15 172.345 341.04 171.095Z" fill="#1C7472"/>
<path d="M341.93 169.845C341.67 170.215 341.41 170.575 341.15 170.945C341.41 170.575 341.67 170.215 341.93 169.845Z" fill="#1C7472"/>
<path d="M200.81 39.485C194.48 39.485 188.24 39.885 182.11 40.645C189.13 54.855 192.22 75.265 193.55 91.965C194.22 92.005 194.88 92.045 195.58 92.065C225.76 92.605 214.98 68.885 223.6 65.115C231.41 61.705 239.2 59.125 239.43 44.525C227.11 41.245 214.16 39.485 200.81 39.485V39.485Z" fill="#1C7472"/>
<path d="M175.3 226.135C172.27 218.655 166.4 217.045 158.52 217.645C150.64 218.255 140.33 214.615 131.03 215.025C121.74 215.425 116.28 235.025 116.28 235.025L113.04 233.615L103.95 235.025L94.65 230.985L91.62 225.125C91.14 224.195 90.72 223.215 90.33 222.205L63.41 218.495C60.02 218.025 56.72 217.185 53.56 216.015C54.34 220.355 55.3 224.645 56.45 228.845C61.61 234.895 70.03 244.125 73.43 244.125C78.48 244.125 86.57 237.255 86.57 237.255L93.03 237.855L97.28 240.485L114.26 243.315C114.26 243.315 120.52 251.805 120.52 258.075C120.52 264.335 123.76 272.015 125.98 274.445C128.2 276.865 132.45 287.785 133.84 297.085C135.23 306.375 142.35 316.485 146.39 317.495C150.44 318.505 151.04 313.045 151.04 313.045L154.08 300.515C154.08 300.515 160.54 292.635 164.18 288.185C167.82 283.745 165.19 275.255 166.4 269.795C167.62 264.335 175.3 257.665 178.33 255.645C181.36 253.625 179.95 243.115 179.95 243.115C179.95 243.115 178.33 233.615 175.3 226.135V226.135Z" fill="#1C7472"/>
<path d="M139.12 122.645C142.55 116.585 138.11 104.455 137.5 101.025C136.89 97.585 133.66 95.565 131.24 93.945C128.81 92.335 117.69 93.945 117.69 93.945L112.24 104.055C112.24 104.055 99.91 111.335 98.09 108.705C96.27 106.075 99.1 97.785 99.1 97.785L111.02 92.535L113.45 87.075C119.51 79.595 126.18 84.655 129.01 75.755C130.68 70.515 128.7 63.735 126.79 59.045C122.63 61.415 118.6 63.985 114.7 66.735C114.52 66.855 114.35 66.985 114.18 67.105C112.97 67.955 111.78 68.825 110.61 69.715C110.55 69.755 110.5 69.805 110.44 69.845C109.27 70.735 108.11 71.645 106.97 72.565C106.86 72.645 106.75 72.735 106.65 72.815C105.52 73.735 104.41 74.665 103.31 75.605C103.13 75.755 102.96 75.905 102.79 76.055C101.71 76.995 100.64 77.945 99.58 78.915C99.44 79.055 99.29 79.185 99.14 79.325C98.05 80.335 96.97 81.365 95.9 82.405C95.9 82.405 95.9 82.415 95.89 82.415C94.82 83.475 93.76 84.555 92.72 85.635C92.61 85.755 92.5 85.865 92.4 85.975C91.4 87.025 90.41 88.095 89.44 89.175C89.3 89.335 89.15 89.495 89.01 89.655C88.04 90.735 87.09 91.835 86.16 92.945C86.05 93.075 85.95 93.195 85.85 93.315C83.91 95.645 82.04 98.025 80.24 100.465C80.14 100.595 80.05 100.725 79.96 100.845C79.09 102.025 78.25 103.225 77.42 104.425C77.3 104.595 77.19 104.765 77.08 104.925C76.24 106.145 75.43 107.375 74.63 108.625C74.57 108.725 74.5 108.825 74.44 108.925C72.8 111.505 71.23 114.145 69.74 116.835C69.66 116.985 69.58 117.125 69.5 117.275C68.79 118.565 68.1 119.865 67.43 121.175C67.34 121.355 67.25 121.535 67.16 121.705C66.49 123.045 65.83 124.385 65.2 125.735C65.16 125.825 65.12 125.915 65.08 125.995C64.43 127.385 63.8 128.785 63.2 130.195C63.18 130.245 63.16 130.285 63.14 130.335C62.54 131.715 61.98 133.115 61.42 134.525C61.35 134.715 61.27 134.905 61.2 135.095C61.11 135.335 61.02 135.585 60.93 135.825C61.08 135.945 61.24 136.075 61.4 136.195C62.54 145.095 68.39 158.675 70.05 165.095C70.81 167.995 80.65 175.545 91.26 182.975C91.39 177.055 89.41 170.615 90 167.525C90.81 163.275 97.48 161.255 97.48 161.255C97.48 161.255 108.6 161.255 108.6 150.545C108.6 139.835 115.87 139.225 115.87 139.225C115.87 139.225 135.68 128.715 139.12 122.645V122.645Z" fill="#1C7472"/>
<path d="M134.56 221.865L128.26 167.285L157.85 119.155L245.25 146.395L257.51 194.445L225.9 245.495L134.56 221.865Z" fill="#E5AC81"/>
<path d="M157.85 119.155L174.12 175.665L134.56 221.865L128.26 167.285L157.85 119.155Z" fill="#D18B56"/>
<path d="M174.12 175.665L257.51 194.445L225.9 245.495L134.56 221.865L174.12 175.665Z" fill="#DB9F71"/>
<path d="M252.06 173.095L168.01 153.965L153.49 170.405L149.85 157.335L164.07 141.235L249.27 162.145L252.06 173.095Z" fill="#E9E9D3"/>
<path d="M171.47 216.845L154.56 211.875L155.23 209.525L172.14 214.485L171.47 216.845Z" fill="#E9E9D3"/>
<path d="M175.81 227.505L151.21 218.785L152.01 216.475L176.61 225.195L175.81 227.505Z" fill="#E9E9D3"/>
<path d="M101.71 159.735C101.37 160.305 100.62 160.495 100.05 160.155C99.47 159.815 99.28 159.065 99.63 158.495L101.71 159.735ZM99.73 158.325L101.81 159.565L101.71 159.735L99.63 158.495L99.73 158.325ZM99.73 158.325C100.07 157.755 100.81 157.565 101.39 157.905C101.96 158.245 102.15 158.995 101.81 159.565L99.73 158.325ZM110.44 148.105C110.01 148.615 109.24 148.685 108.73 148.255C108.22 147.825 108.16 147.055 108.59 146.545L110.44 148.105ZM108.71 146.395L110.57 147.965L110.44 148.105L108.59 146.545L108.71 146.395V146.395ZM108.71 146.395C109.15 145.885 109.91 145.825 110.42 146.255C110.93 146.685 111 147.455 110.57 147.965L108.71 146.395V146.395ZM120.62 137.615C120.14 138.075 119.37 138.065 118.91 137.585C118.44 137.105 118.45 136.335 118.93 135.875L120.62 137.615ZM119.07 135.735L120.76 137.475L120.62 137.615L118.93 135.875L119.07 135.735ZM119.07 135.735C119.55 135.275 120.32 135.285 120.79 135.765C121.25 136.245 121.24 137.015 120.76 137.475L119.07 135.735ZM131.97 128.425C131.43 128.835 130.67 128.725 130.27 128.195C129.86 127.665 129.97 126.905 130.5 126.495L131.97 128.425V128.425ZM130.66 126.385L132.12 128.315L131.97 128.425L130.5 126.495L130.66 126.385ZM130.66 126.385C131.19 125.975 131.95 126.085 132.36 126.615C132.76 127.145 132.66 127.905 132.12 128.315L130.66 126.385V126.385ZM144.34 120.745C143.75 121.065 143.01 120.855 142.69 120.265C142.37 119.675 142.58 118.945 143.17 118.615L144.34 120.745V120.745ZM143.34 118.525L144.51 120.655L144.34 120.745L143.17 118.615L143.34 118.525ZM143.34 118.525C143.93 118.205 144.66 118.425 144.99 119.005C145.31 119.595 145.09 120.335 144.51 120.655L143.34 118.525V118.525ZM157.66 114.785C157.04 115.035 156.33 114.735 156.08 114.115C155.83 113.495 156.13 112.785 156.74 112.535L157.66 114.785V114.785ZM156.93 112.465L157.84 114.715L157.66 114.785L156.74 112.535L156.93 112.465ZM156.93 112.465C157.55 112.215 158.26 112.515 158.51 113.135C158.76 113.755 158.46 114.465 157.84 114.715L156.93 112.465V112.465ZM171.67 110.735C171.03 110.905 170.36 110.515 170.19 109.875C170.02 109.225 170.4 108.565 171.04 108.385L171.67 110.735ZM171.23 108.345L171.86 110.685L171.67 110.735L171.04 108.385L171.23 108.345ZM171.23 108.345C171.88 108.175 172.55 108.555 172.72 109.205C172.89 109.845 172.51 110.515 171.86 110.685L171.23 108.345V108.345ZM186.11 108.715C185.45 108.805 184.84 108.335 184.75 107.675C184.67 107.005 185.14 106.395 185.8 106.315L186.11 108.715ZM185.99 106.295L186.3 108.705L186.11 108.715L185.8 106.315L185.99 106.295ZM185.99 106.295C186.66 106.215 187.27 106.685 187.35 107.345C187.43 108.005 186.96 108.615 186.3 108.705L185.99 106.295ZM200.68 108.725C200.01 108.715 199.47 108.165 199.48 107.505C199.49 106.835 200.04 106.295 200.71 106.305L200.68 108.725ZM200.9 106.315L200.87 108.735L200.68 108.725L200.71 106.305L200.9 106.315ZM200.9 106.315C201.57 106.325 202.11 106.865 202.1 107.535C202.09 108.205 201.54 108.745 200.87 108.735L200.9 106.315ZM215.13 110.585C214.47 110.485 214.01 109.865 214.11 109.205C214.22 108.535 214.83 108.085 215.5 108.185L215.13 110.585V110.585ZM215.69 108.225L215.32 110.615L215.13 110.585L215.5 108.185L215.69 108.225ZM215.69 108.225C216.35 108.325 216.8 108.945 216.7 109.605C216.6 110.265 215.98 110.725 215.32 110.615L215.69 108.225ZM229.3 113.995C228.66 113.805 228.29 113.135 228.48 112.485C228.67 111.845 229.35 111.475 229.99 111.665L229.3 113.995V113.995ZM230.17 111.725L229.49 114.055L229.3 113.995L229.99 111.665L230.17 111.725ZM230.17 111.725C230.82 111.915 231.18 112.595 230.99 113.235C230.81 113.875 230.13 114.245 229.49 114.055L230.17 111.725V111.725ZM243.13 118.915C242.5 118.685 242.17 117.985 242.4 117.355C242.63 116.735 243.32 116.405 243.95 116.635L243.13 118.915V118.915ZM244.13 116.705L243.3 118.985L243.13 118.915L243.95 116.635L244.13 116.705ZM244.13 116.705C244.76 116.935 245.09 117.625 244.86 118.255C244.63 118.885 243.93 119.215 243.3 118.985L244.13 116.705ZM256.52 124.905C255.91 124.635 255.63 123.915 255.89 123.305C256.16 122.695 256.87 122.405 257.49 122.675L256.52 124.905ZM257.66 122.755L256.7 124.985L256.52 124.905L257.49 122.675L257.66 122.755V122.755ZM257.66 122.755C258.28 123.025 258.56 123.735 258.29 124.355C258.03 124.965 257.31 125.245 256.7 124.985L257.66 122.755Z" fill="#FAF9FC"/>
<path d="M157.74 284.705C157.09 284.565 156.66 283.925 156.8 283.265C156.93 282.615 157.58 282.195 158.23 282.325L157.74 284.705ZM158.42 282.365L157.93 284.735L157.74 284.705L158.23 282.325L158.42 282.365V282.365ZM158.42 282.365C159.08 282.495 159.5 283.135 159.37 283.795C159.23 284.455 158.59 284.875 157.93 284.735L158.42 282.365ZM172.56 286.305C171.89 286.265 171.39 285.685 171.43 285.015C171.48 284.345 172.06 283.845 172.73 283.885L172.56 286.305V286.305ZM172.92 283.895L172.75 286.315L172.56 286.305L172.73 283.885L172.92 283.895ZM172.92 283.895C173.59 283.945 174.09 284.525 174.05 285.195C174 285.865 173.42 286.365 172.75 286.315L172.92 283.895V283.895ZM187.46 286.165C186.79 286.195 186.21 285.685 186.18 285.025C186.14 284.355 186.65 283.775 187.31 283.735L187.46 286.165ZM187.51 283.725L187.65 286.145L187.46 286.165L187.31 283.735L187.51 283.725V283.725ZM187.51 283.725C188.18 283.685 188.75 284.195 188.79 284.865C188.83 285.535 188.32 286.105 187.65 286.145L187.51 283.725V283.725ZM202.19 284.305C201.53 284.405 200.91 283.945 200.81 283.285C200.72 282.625 201.18 282.005 201.84 281.905L202.19 284.305ZM202.03 281.875L202.38 284.275L202.19 284.305L201.84 281.905L202.03 281.875ZM202.03 281.875C202.69 281.785 203.31 282.245 203.41 282.905C203.5 283.565 203.04 284.185 202.38 284.275L202.03 281.875ZM216.62 280.475C215.98 280.665 215.3 280.315 215.1 279.675C214.9 279.035 215.26 278.355 215.9 278.155L216.62 280.475ZM216.08 278.095L216.8 280.405L216.62 280.475L215.9 278.155L216.08 278.095ZM216.08 278.095C216.72 277.895 217.4 278.255 217.6 278.895C217.79 279.525 217.44 280.215 216.8 280.405L216.08 278.095ZM230.28 274.565C229.68 274.845 228.95 274.575 228.67 273.965C228.4 273.355 228.66 272.635 229.27 272.355L230.28 274.565V274.565ZM229.44 272.275L230.46 274.475L230.28 274.565L229.27 272.355L229.44 272.275ZM229.44 272.275C230.05 271.995 230.77 272.265 231.05 272.865C231.33 273.475 231.06 274.195 230.46 274.475L229.44 272.275ZM242.83 266.315C242.3 266.725 241.54 266.635 241.13 266.105C240.71 265.575 240.81 264.815 241.34 264.405L242.83 266.315V266.315ZM241.48 264.285L242.97 266.195L242.83 266.315L241.34 264.405L241.48 264.285ZM241.48 264.285C242.01 263.865 242.77 263.965 243.18 264.495C243.6 265.015 243.5 265.785 242.97 266.195L241.48 264.285V264.285ZM253.59 255.965C253.14 256.455 252.37 256.495 251.88 256.045C251.38 255.595 251.34 254.835 251.79 254.335L253.59 255.965ZM251.92 254.185L253.72 255.815L253.59 255.965L251.79 254.335L251.92 254.185ZM251.92 254.185C252.37 253.695 253.14 253.655 253.63 254.105C254.13 254.555 254.17 255.315 253.72 255.815L251.92 254.185ZM262.36 243.865C262.01 244.435 261.26 244.605 260.69 244.255C260.13 243.895 259.95 243.145 260.31 242.585L262.36 243.865V243.865ZM260.4 242.415L262.46 243.695L262.36 243.865L260.31 242.585L260.4 242.415V242.415ZM260.4 242.415C260.76 241.845 261.51 241.675 262.08 242.025C262.64 242.385 262.81 243.135 262.46 243.695L260.4 242.415V242.415ZM269.06 230.615C268.75 231.215 268.02 231.445 267.43 231.145C266.83 230.845 266.59 230.105 266.9 229.515L269.06 230.615V230.615ZM266.98 229.335L269.14 230.445L269.06 230.615L266.9 229.515L266.98 229.335ZM266.98 229.335C267.28 228.745 268.01 228.505 268.61 228.805C269.2 229.115 269.44 229.845 269.14 230.445L266.98 229.335V229.335ZM273.76 216.435C273.56 217.075 272.87 217.425 272.24 217.225C271.6 217.025 271.24 216.345 271.44 215.705L273.76 216.435V216.435ZM271.5 215.515L273.81 216.245L273.76 216.435L271.44 215.705L271.5 215.515ZM271.5 215.515C271.7 214.875 272.38 214.525 273.02 214.725C273.66 214.925 274.01 215.605 273.81 216.245L271.5 215.515V215.515ZM276.94 201.855C276.84 202.515 276.21 202.965 275.55 202.865C274.89 202.755 274.44 202.135 274.55 201.475L276.94 201.855ZM274.57 201.275L276.97 201.665L276.94 201.855L274.55 201.475L274.57 201.275ZM274.57 201.275C274.68 200.615 275.3 200.165 275.96 200.275C276.62 200.385 277.07 201.005 276.97 201.665L274.57 201.275ZM278.57 187.115C278.51 187.785 277.92 188.275 277.25 188.215C276.59 188.155 276.1 187.555 276.16 186.895L278.57 187.115V187.115ZM276.17 186.695L278.58 186.925L278.57 187.115L276.16 186.895L276.17 186.695ZM276.17 186.695C276.23 186.035 276.83 185.545 277.49 185.605C278.16 185.665 278.65 186.265 278.58 186.925L276.17 186.695V186.695ZM279.12 172.315C279.1 172.975 278.54 173.505 277.87 173.485C277.2 173.465 276.68 172.895 276.7 172.225L279.12 172.315ZM276.7 172.035L279.12 172.115V172.315L276.7 172.225V172.035ZM276.7 172.035C276.72 171.365 277.28 170.845 277.95 170.865C278.62 170.885 279.14 171.445 279.12 172.115L276.7 172.035Z" fill="#FAF9FC"/>
<path d="M70.05 165.095C68.39 158.675 62.54 145.095 61.4 136.195C61.24 136.075 61.07 135.935 60.92 135.815C71.71 107.535 90.83 83.365 115.29 66.315L115.7 65.775L111.49 52.715L144.62 60.105L167.82 120.625L194.5 120.985C194.5 120.985 196.52 49.075 173.48 28.665C173.48 28.665 160.07 19.615 144.92 14.445C127.75 8.59499 81.58 -7.38501 38.46 16.335C38.46 16.335 15.42 31.295 2.48002 74.545C-10.45 117.795 20.47 182.625 20.47 182.625L30.93 198.205C38.37 209.285 50.19 216.675 63.41 218.495L109.99 224.925C109.99 224.925 108.4 201.885 118.5 201.075C118.5 201.075 71.73 171.565 70.05 165.095V165.095Z" fill="#EB5F69"/>
<path d="M115.29 66.315L115.7 65.775C81.04 80.065 56.96 119.515 56.96 119.515L60.92 135.815C71.71 107.535 90.83 83.365 115.29 66.315V66.315Z" fill="#C24155"/>
<path d="M93.89 60.545C93.89 71.995 77.2 61.355 72.07 68.275C68.15 73.585 69.07 90.405 64.03 90.405C47.54 90.405 34.17 77.035 34.17 60.545C34.17 44.055 47.54 30.685 64.03 30.685C80.52 30.685 93.89 44.055 93.89 60.545Z" fill="#FAF9FC"/>
<path d="M64.03 30.685C47.54 30.685 34.17 44.055 34.17 60.545C34.17 62.105 34.29 63.635 34.52 65.125C41.97 71.995 53.54 80.595 67.83 84.475C69.08 79.095 69.67 71.525 72.07 68.275C77.2 61.355 93.89 71.995 93.89 60.545C93.89 44.055 80.52 30.685 64.03 30.685V30.685Z" fill="#DBDBE9"/>
<path d="M102.33 10.275C102.33 10.275 110.92 12.895 109.91 23.815C108.9 34.725 94.75 37.555 81.41 34.825L68.17 32.405L78.48 8.855L102.33 10.275V10.275Z" fill="#C24155"/>
<path d="M82.3 61.985C82.3 72.305 73.94 80.675 63.62 80.675C53.3 80.675 44.94 72.305 44.94 61.985C44.94 51.675 53.3 43.305 63.62 43.305C73.94 43.305 82.3 51.675 82.3 61.985Z" fill="#E5AC81"/>
<path d="M155.15 202.965C150.84 198.785 130.49 199.995 130.49 199.995C136.63 194.875 135.41 188.945 133.39 188.675C131.37 188.405 131.64 192.175 126.92 193.795C122.21 195.415 118.5 201.075 118.5 201.075C109.79 201.775 109.78 218.965 109.94 223.715C120.06 225.395 143.3 225.325 148.01 223.715C152.73 222.095 157.71 215.895 159.33 211.985C160.95 208.085 159.46 207.135 155.15 202.965Z" fill="#FAC9A0"/>
<path d="M118.5 201.075C109.79 201.775 109.78 218.965 109.94 223.715C111.29 223.935 112.89 224.125 114.64 224.295C112.97 213.375 118.5 201.075 118.5 201.075V201.075Z" fill="#E5AC81"/>
<path d="M32.2 38.365C32.2 38.365 41.09 30.685 49.58 28.665C49.58 28.665 56.25 39.985 68.38 36.145C80.5 32.305 82.12 10.675 102.33 10.275L78.48 8.855C78.48 8.855 69.79 -3.875 48.77 2.795C27.75 9.465 29.16 34.125 32.2 38.365V38.365Z" fill="#EB5F69"/>
<path d="M48.59 2.855C27.76 9.615 29.17 34.135 32.2 38.365C32.2 38.365 41.09 30.685 49.58 28.665C49.58 28.665 40.24 11.335 48.59 2.855V2.855Z" fill="#FAF9FC"/>
<path d="M40.71 47.195C43.77 46.315 47.04 47.885 48.95 50.825C54.33 42.825 49.66 33.775 46.79 29.515C39.25 32.275 32.2 38.365 32.2 38.365C32.2 38.365 25.93 46.245 28.15 50.895C29.92 54.595 33.15 56.305 35.89 57.095C34.86 52.635 36.94 48.265 40.71 47.195V47.195Z" fill="#493C46"/>
<path d="M95.46 60.595C91.82 29.515 83.19 20.785 83.19 20.785C78.3 27.025 74.83 34.095 68.38 36.145C56.25 39.985 49.58 28.665 49.58 28.665L46.79 29.515C49.66 33.775 54.33 42.825 48.95 50.825C47.04 47.885 43.77 46.315 40.71 47.195C36.79 48.315 34.69 52.985 36.02 57.625C37.34 62.265 41.59 65.125 45.51 64.005C46.25 63.795 46.92 63.455 47.52 63.015C56.06 80.655 74.1 90.635 85.76 87.275C97.68 83.845 96.9 72.875 95.46 60.595V60.595Z" fill="#FAC9A0"/>
<path d="M88.76 31.005C85.8 23.445 83.19 20.785 83.19 20.785C78.3 27.025 74.83 34.095 68.38 36.145C56.25 39.985 49.58 28.665 49.58 28.665L46.79 29.515C48.45 31.985 50.7 36.045 51.28 40.585C60.75 41.225 76.42 40.485 88.76 31.005V31.005Z" fill="#E5AC81"/>
<path d="M78.41 8.455C78.63 8.415 78.84 8.565 78.88 8.785C78.92 9.005 78.77 9.215 78.55 9.255L78.41 8.455V8.455ZM49.95 28.835L49.21 28.495L49.24 28.445L49.3 28.305L49.42 28.075L49.58 27.775L49.79 27.405L50.04 26.955L50.35 26.455L50.72 25.885L51.13 25.275L51.6 24.605L52.12 23.895L52.7 23.155L53.35 22.375L54.05 21.575L54.81 20.755L55.64 19.915L56.52 19.065L57.48 18.205L58.5 17.345L59.59 16.485L60.75 15.645L61.97 14.815L63.27 14.005L64.65 13.215L66.1 12.465L67.62 11.745L69.22 11.065L70.89 10.425L72.65 9.845L74.49 9.325L76.41 8.85499L78.41 8.455L78.55 9.255L76.58 9.645L74.69 10.105L72.89 10.615L71.16 11.195L69.52 11.815L67.95 12.475L66.45 13.185L65.03 13.925L63.69 14.695L62.42 15.495L61.21 16.305L60.08 17.135L59.01 17.975L58.01 18.815L57.07 19.655L56.2 20.485L55.4 21.315L54.65 22.115L53.96 22.905L53.34 23.665L52.77 24.395L52.25 25.085L51.8 25.725L51.39 26.335L51.04 26.885L50.74 27.375L50.49 27.805L50.29 28.165L50.13 28.455L50.03 28.665L49.96 28.795L49.95 28.835V28.835ZM49.95 28.835C49.85 29.035 49.61 29.125 49.41 29.035C49.21 28.945 49.12 28.695 49.21 28.495L49.95 28.835V28.835Z" fill="#493C46"/>
<path d="M38.74 53.005C38.58 53.165 38.33 53.155 38.17 52.995C38.02 52.835 38.02 52.585 38.18 52.425L38.74 53.005ZM47.03 54.675L46.54 54.035L46.48 54.625L46.07 54.175L45.66 53.775L45.25 53.415L44.86 53.105L44.48 52.845L44.11 52.615L43.74 52.425L43.39 52.265L43.05 52.145L42.71 52.055L42.39 51.985L42.08 51.945L41.78 51.915H41.5L41.22 51.935L40.96 51.975L40.71 52.025L40.47 52.085L40.24 52.155L40.03 52.235L39.83 52.315L39.65 52.405L39.48 52.495L39.32 52.585L39.19 52.665L39.07 52.755L38.97 52.825L38.88 52.885L38.82 52.945L38.77 52.985L38.74 53.005L38.18 52.425L38.2 52.405L38.24 52.375L38.3 52.325L38.38 52.255L38.48 52.175L38.6 52.085L38.74 51.995L38.9 51.895L39.08 51.785L39.28 51.685L39.5 51.575L39.73 51.475L39.98 51.385L40.25 51.305L40.53 51.235L40.83 51.175L41.14 51.135L41.47 51.115H41.81L42.17 51.135L42.53 51.185L42.91 51.265L43.29 51.375L43.69 51.515L44.09 51.695L44.5 51.905L44.92 52.165L45.34 52.455L45.77 52.795L46.21 53.175L46.65 53.615L47.09 54.085L47.03 54.675V54.675ZM47.09 54.085C47.23 54.255 47.22 54.515 47.05 54.655C46.89 54.805 46.63 54.785 46.48 54.625L47.09 54.085V54.085ZM46.01 58.875L45.27 59.225L45.15 58.935L45.05 58.665L44.97 58.395L44.91 58.125L44.88 57.865L44.85 57.605V57.355L44.86 57.115L44.89 56.885L44.93 56.655L44.98 56.435L45.04 56.225L45.11 56.025L45.19 55.825L45.27 55.645L45.37 55.475L45.46 55.305L45.56 55.155L45.65 55.005L45.75 54.865L45.85 54.745L45.95 54.625L46.04 54.525L46.13 54.425L46.21 54.335L46.28 54.265L46.35 54.195L46.41 54.145L46.46 54.105L46.5 54.065L46.52 54.055L46.54 54.035L47.03 54.675H47.04L47.02 54.695L46.99 54.715L46.96 54.745L46.9 54.785L46.85 54.845L46.79 54.905L46.72 54.975L46.64 55.055L46.56 55.145L46.48 55.245L46.4 55.355L46.32 55.465L46.24 55.595L46.15 55.725L46.08 55.855L46 56.005L45.93 56.155L45.87 56.305L45.81 56.475L45.76 56.635L45.72 56.815L45.69 56.995L45.67 57.175L45.66 57.375V57.565L45.68 57.765L45.71 57.975L45.76 58.195L45.82 58.415L45.9 58.645L46.01 58.875V58.875ZM46.01 58.875C46.1 59.075 46.01 59.315 45.81 59.415C45.61 59.505 45.37 59.425 45.27 59.225L46.01 58.875V58.875Z" fill="#493C46"/>
<path d="M18.2 176.515C18.25 176.725 18.11 176.945 17.9 176.995C17.68 177.045 17.46 176.915 17.41 176.695L18.2 176.515V176.515ZM10.16 141.605L18.2 176.515L17.41 176.695L9.37001 141.795L10.16 141.605ZM9.37001 141.795C9.32001 141.575 9.46001 141.355 9.67001 141.305C9.89001 141.255 10.11 141.395 10.16 141.605L9.37001 141.795Z" fill="#493C46"/>
<path d="M28.98 90.825C28.75 90.835 28.56 90.665 28.55 90.435C28.54 90.215 28.72 90.025 28.94 90.015L28.98 90.825ZM51.23 100.765L50.49 101.095L50 100.095L49.44 99.165L48.83 98.305L48.16 97.495L47.45 96.755L46.7 96.065L45.91 95.435L45.08 94.855L44.23 94.315L43.35 93.835L42.46 93.395L41.55 93.005L40.64 92.655L39.73 92.345L38.82 92.065L37.92 91.825L37.03 91.615L36.16 91.435L35.31 91.285L34.5 91.165L33.72 91.065L32.98 90.985L32.29 90.915L31.64 90.875L31.06 90.845L30.53 90.825L30.08 90.815H29.69H29.38H29.16L29.02 90.825H28.98L28.94 90.015H28.99H29.14L29.37 90.005H29.69H30.09L30.56 90.015L31.09 90.035L31.69 90.065L32.35 90.115L33.06 90.175L33.81 90.255L34.61 90.365L35.44 90.485L36.31 90.645L37.2 90.825L38.11 91.035L39.04 91.285L39.98 91.575L40.92 91.895L41.86 92.255L42.8 92.665L43.73 93.115L44.64 93.625L45.53 94.175L46.39 94.785L47.22 95.455L48.02 96.175L48.77 96.965L49.47 97.815L50.12 98.725L50.71 99.715L51.23 100.765V100.765ZM51.23 100.765C51.32 100.965 51.23 101.205 51.02 101.305C50.82 101.395 50.58 101.295 50.49 101.095L51.23 100.765V100.765ZM61.31 135.735L60.52 135.905L60.51 135.835L60.46 135.635L60.39 135.315L60.3 134.865L60.17 134.315L60.03 133.655L59.85 132.895L59.66 132.045L59.44 131.115L59.21 130.095L58.95 129.015L58.67 127.855L58.38 126.645L58.07 125.385L57.73 124.065L57.39 122.725L57.03 121.335L56.66 119.925L56.27 118.495L55.87 117.055L55.46 115.605L55.04 114.155L54.61 112.705L54.18 111.275L53.73 109.865L53.28 108.485L52.82 107.125L52.36 105.815L51.9 104.555L51.43 103.335L50.96 102.185L50.49 101.095L51.23 100.765L51.7 101.875L52.18 103.045L52.65 104.265L53.12 105.545L53.59 106.865L54.05 108.225L54.5 109.615L54.95 111.035L55.39 112.475L55.82 113.925L56.24 115.385L56.65 116.835L57.05 118.285L57.44 119.715L57.81 121.135L58.17 122.515L58.52 123.875L58.85 125.185L59.16 126.455L59.46 127.665L59.74 128.825L59.99 129.915L60.23 130.925L60.45 131.865L60.64 132.715L60.81 133.475L60.96 134.145L61.08 134.695L61.18 135.135L61.25 135.465L61.3 135.665L61.31 135.735V135.735ZM61.31 135.735C61.36 135.955 61.22 136.165 61 136.215C60.78 136.255 60.57 136.115 60.52 135.905L61.31 135.735Z" fill="#493C46"/>
<path d="M111.88 52.585C111.95 52.795 111.84 53.025 111.63 53.095C111.42 53.175 111.19 53.065 111.11 52.855L111.88 52.585V52.585ZM106.76 38.235L111.88 52.585L111.11 52.855L105.99 38.505L106.76 38.235V38.235ZM105.99 38.505C105.92 38.295 106.03 38.055 106.24 37.985C106.45 37.915 106.68 38.025 106.76 38.235L105.99 38.505Z" fill="#493C46"/>
<path d="M153.19 42.905C153.4 42.865 153.62 43.005 153.66 43.225C153.71 43.445 153.57 43.655 153.35 43.705L153.19 42.905ZM145.01 59.975L144.24 60.235L144.23 60.175L144.22 60.125L144.2 60.005L144.17 59.805L144.13 59.525L144.09 59.185L144.05 58.785L144.01 58.335L143.98 57.825L143.96 57.275L143.94 56.675L143.95 56.045L143.97 55.375L144.01 54.685L144.08 53.975L144.18 53.245L144.3 52.495L144.46 51.745L144.66 50.985L144.9 50.235L145.18 49.485L145.51 48.745L145.9 48.025L146.33 47.325L146.82 46.655L147.38 46.015L148 45.415L148.68 44.855L149.44 44.345L150.26 43.895L151.16 43.495L152.13 43.165L153.19 42.905L153.35 43.705L152.36 43.945L151.45 44.255L150.62 44.615L149.86 45.035L149.16 45.505L148.54 46.015L147.97 46.565L147.46 47.155L147 47.785L146.6 48.425L146.24 49.105L145.93 49.795L145.67 50.495L145.44 51.215L145.25 51.925L145.1 52.645L144.98 53.365L144.88 54.065L144.82 54.755L144.78 55.415L144.76 56.065L144.75 56.675L144.76 57.245L144.79 57.785L144.82 58.275L144.85 58.715L144.89 59.105L144.93 59.425L144.97 59.685L144.99 59.875L145.01 59.995L145.02 60.035L145.01 59.975ZM145.02 60.035C145.06 60.245 144.92 60.465 144.7 60.505C144.48 60.545 144.27 60.395 144.23 60.175L145.02 60.035ZM148.42 72.655L144.24 60.235L145.01 59.975L149.19 72.395L148.42 72.655ZM149.19 72.395C149.26 72.605 149.15 72.835 148.94 72.905C148.72 72.975 148.49 72.865 148.42 72.655L149.19 72.395Z" fill="#493C46"/>
<path d="M176.83 114.535C176.83 114.535 165.73 115.785 168.03 123.115C170.34 130.445 178.92 130.085 180.6 135.715C182.27 141.335 185.21 137.775 185.63 134.635C186.04 131.495 183.53 126.605 183.53 126.605L208.24 134.215C208.24 134.215 194.84 114.955 176.83 114.535Z" fill="#FAC9A0"/>
<path d="M167.65 123.235C167.58 123.025 167.7 122.795 167.91 122.735C168.12 122.665 168.35 122.785 168.42 122.995L167.65 123.235V123.235ZM180.99 135.595L180.21 135.825L180.05 135.355L179.85 134.905L179.61 134.495L179.35 134.095L179.05 133.725L178.73 133.375L178.37 133.035L178 132.715L177.6 132.405L177.18 132.105L176.74 131.815L176.28 131.535L175.81 131.255L175.33 130.975L174.84 130.695L174.35 130.405L173.85 130.115L173.35 129.815L172.85 129.505L172.35 129.175L171.86 128.835L171.38 128.475L170.91 128.085L170.45 127.685L170.02 127.245L169.6 126.785L169.2 126.285L168.83 125.755L168.48 125.185L168.17 124.575L167.89 123.925L167.65 123.235L168.42 122.995L168.64 123.635L168.9 124.235L169.19 124.795L169.5 125.315L169.85 125.805L170.21 126.255L170.6 126.685L171.01 127.095L171.44 127.475L171.88 127.835L172.34 128.185L172.81 128.505L173.28 128.825L173.77 129.125L174.26 129.415L174.75 129.705L175.25 129.985L175.74 130.275L176.22 130.555L176.7 130.845L177.18 131.135L177.63 131.445L178.08 131.755L178.51 132.095L178.92 132.435L179.3 132.805L179.66 133.195L180 133.615L180.3 134.065L180.57 134.545L180.8 135.055L180.99 135.595V135.595ZM180.99 135.595C181.05 135.815 180.93 136.035 180.71 136.105C180.5 136.165 180.28 136.045 180.21 135.825L180.99 135.595ZM185.22 134.585L186.03 134.685L185.98 135.005L185.91 135.315L185.83 135.625L185.74 135.935L185.64 136.245L185.52 136.535L185.4 136.825L185.26 137.105L185.11 137.375L184.95 137.635L184.78 137.875L184.6 138.105L184.41 138.315L184.21 138.495L184.01 138.665L183.79 138.815L183.56 138.925L183.31 139.015L183.06 139.065L182.8 139.075L182.53 139.045L182.27 138.965L182.02 138.845L181.78 138.675L181.55 138.475L181.33 138.225L181.12 137.935L180.93 137.605L180.74 137.235L180.55 136.815L180.38 136.345L180.21 135.825L180.99 135.595L181.14 136.085L181.3 136.515L181.47 136.885L181.63 137.215L181.8 137.495L181.96 137.715L182.13 137.905L182.28 138.045L182.43 138.145L182.57 138.215L182.7 138.255L182.83 138.265H182.96L183.1 138.235L183.23 138.185L183.38 138.115L183.53 138.015L183.68 137.895L183.83 137.745L183.98 137.585L184.13 137.395L184.27 137.185L184.41 136.965L184.54 136.735L184.66 136.485L184.78 136.235L184.88 135.965L184.97 135.695L185.05 135.415L185.12 135.135L185.18 134.855L185.22 134.585V134.585ZM185.22 134.585C185.25 134.365 185.46 134.205 185.68 134.235C185.9 134.265 186.06 134.465 186.03 134.685L185.22 134.585ZM183.65 126.215L183.41 126.985L183.89 126.415L183.9 126.435L183.92 126.475L183.95 126.545L184 126.645L184.06 126.765L184.13 126.905L184.2 127.065L184.28 127.245L184.38 127.455L184.47 127.675L184.57 127.905L184.68 128.165L184.79 128.435L184.9 128.715L185 129.005L185.12 129.305L185.22 129.615L185.33 129.935L185.43 130.265L185.53 130.605L185.63 130.945L185.72 131.285L185.8 131.635L185.87 131.975L185.93 132.325L185.99 132.675L186.03 133.025L186.06 133.365L186.07 133.705V134.035L186.06 134.365L186.03 134.685L185.22 134.585L185.25 134.305L185.27 134.015V133.725L185.25 133.415L185.23 133.105L185.19 132.785L185.14 132.465L185.08 132.135L185.01 131.805L184.93 131.475L184.85 131.145L184.76 130.825L184.66 130.505L184.56 130.185L184.46 129.875L184.35 129.575L184.25 129.285L184.14 128.995L184.03 128.725L183.93 128.465L183.83 128.225L183.73 127.995L183.64 127.775L183.55 127.585L183.47 127.405L183.39 127.245L183.33 127.105L183.27 126.995L183.23 126.905L183.2 126.835L183.18 126.805L183.17 126.785L183.65 126.215V126.215ZM183.17 126.785C183.07 126.585 183.15 126.345 183.35 126.245C183.54 126.145 183.79 126.215 183.89 126.415L183.17 126.785ZM208.12 134.605L183.41 126.985L183.65 126.215L208.36 133.835L208.12 134.605ZM208.36 133.835C208.58 133.895 208.69 134.125 208.63 134.335C208.56 134.545 208.34 134.665 208.12 134.605L208.36 133.835V133.835Z" fill="#493C46"/>
<path d="M133.87 206.595C133.65 206.605 133.46 206.425 133.46 206.205C133.45 205.985 133.63 205.795 133.85 205.795L133.87 206.595V206.595ZM157.76 205.885L133.87 206.595L133.85 205.795L157.74 205.075L157.76 205.885V205.885ZM157.74 205.075C157.96 205.075 158.15 205.245 158.15 205.475C158.16 205.695 157.98 205.875 157.76 205.885L157.74 205.075Z" fill="#493C46"/>
<path d="M134.55 213.875C134.33 213.875 134.14 213.705 134.13 213.485C134.13 213.255 134.31 213.075 134.53 213.065L134.55 213.875V213.875ZM159.29 211.585L159.37 212.395L158.08 212.505L156.81 212.605L155.56 212.705L154.33 212.805L153.12 212.895L151.94 212.975L150.78 213.055L149.66 213.135L148.56 213.205L147.49 213.275L146.45 213.335L145.44 213.395L144.47 213.445L143.53 213.495L142.63 213.545L141.77 213.585L140.96 213.625L140.18 213.665L139.45 213.695L138.76 213.725L138.12 213.755L137.52 213.775L136.98 213.795L136.48 213.815L136.04 213.825L135.66 213.845L135.32 213.855L135.05 213.865H134.83L134.68 213.875H134.58H134.55L134.53 213.065H134.56H134.65L134.81 213.055H135.02L135.3 213.045L135.63 213.035L136.01 213.025L136.46 213.005L136.95 212.985L137.49 212.965L138.08 212.945L138.72 212.915L139.41 212.885L140.14 212.855L140.92 212.815L141.73 212.785L142.59 212.735L143.49 212.695L144.42 212.645L145.39 212.585L146.4 212.525L147.44 212.465L148.5 212.395L149.6 212.325L150.73 212.255L151.89 212.175L153.06 212.085L154.27 211.995L155.49 211.905L156.74 211.805L158.01 211.695L159.29 211.585V211.585ZM159.29 211.585C159.52 211.565 159.71 211.735 159.73 211.955C159.75 212.175 159.59 212.375 159.37 212.395L159.29 211.585V211.585Z" fill="#493C46"/>
<path d="M134.93 219.395C134.71 219.395 134.53 219.215 134.53 218.995C134.53 218.765 134.72 218.585 134.94 218.595L134.93 219.395ZM155.61 217.305L155.81 218.095L155.23 218.225L154.61 218.355L153.94 218.465L153.23 218.575L152.49 218.675L151.71 218.765L150.91 218.845L150.09 218.925L149.24 218.995L148.39 219.055L147.52 219.105L146.65 219.155L145.77 219.205L144.9 219.235L144.04 219.275L143.19 219.305L142.36 219.325L141.55 219.345L140.76 219.365L140.01 219.375L139.29 219.385L138.61 219.395H137.97L137.38 219.405H136.84H136.36H135.94H135.59H135.31H135.1L134.98 219.395H134.93L134.94 218.595H134.98H135.11H135.31H135.59H135.95H136.36H136.84H137.37H137.96L138.6 218.585L139.28 218.575L140 218.565L140.75 218.555L141.53 218.535L142.34 218.515L143.17 218.495L144.01 218.465L144.87 218.435L145.74 218.395L146.6 218.355L147.47 218.305L148.33 218.245L149.18 218.185L150.02 218.115L150.83 218.045L151.63 217.965L152.39 217.875L153.12 217.775L153.81 217.675L154.46 217.555L155.06 217.435L155.61 217.305V217.305ZM155.61 217.305C155.82 217.255 156.05 217.385 156.1 217.595C156.15 217.815 156.02 218.035 155.81 218.095L155.61 217.305V217.305Z" fill="#493C46"/>
<path d="M130.49 199.595C130.72 199.595 130.9 199.775 130.9 199.995C130.9 200.215 130.72 200.405 130.49 200.405V199.595ZM126.18 199.595H130.49V200.405H126.18V199.595ZM126.18 200.405C125.96 200.405 125.78 200.215 125.78 199.995C125.78 199.775 125.96 199.595 126.18 199.595V200.405Z" fill="#493C46"/>
<path d="M183.86 126.375C183.99 126.555 183.94 126.815 183.76 126.935C183.57 127.065 183.32 127.015 183.2 126.835L183.86 126.375ZM180.61 121.615L183.86 126.375L183.2 126.835L179.94 122.065L180.61 121.615ZM179.94 122.065C179.82 121.885 179.86 121.635 180.05 121.505C180.23 121.385 180.48 121.425 180.61 121.615L179.94 122.065V122.065Z" fill="#493C46"/>
<path d="M49.78 165.445C49.58 165.555 49.34 165.485 49.23 165.295C49.12 165.105 49.18 164.855 49.38 164.745L49.78 165.445V165.445ZM70.29 164.765L69.82 165.425L69.8 165.415L69.73 165.365L69.6 165.285L69.43 165.175L69.21 165.045L68.95 164.895L68.63 164.725L68.28 164.545L67.88 164.355L67.44 164.165L66.96 163.965L66.44 163.775L65.88 163.575L65.29 163.395L64.66 163.225L64 163.065L63.3 162.925L62.58 162.805L61.82 162.715L61.04 162.655L60.22 162.625L59.38 162.635L58.52 162.675L57.63 162.765L56.72 162.905L55.78 163.085L54.83 163.325L53.85 163.625L52.86 163.975L51.85 164.395L50.82 164.885L49.78 165.445L49.38 164.745L50.46 164.165L51.52 163.665L52.57 163.225L53.6 162.855L54.61 162.545L55.61 162.295L56.58 162.105L57.53 161.965L58.46 161.875L59.36 161.825L60.24 161.815L61.08 161.845L61.9 161.915L62.69 162.005L63.45 162.135L64.17 162.275L64.86 162.435L65.52 162.615L66.13 162.805L66.71 163.015L67.26 163.215L67.76 163.425L68.22 163.625L68.63 163.825L69.01 164.015L69.33 164.185L69.62 164.345L69.85 164.485L70.04 164.595L70.17 164.685L70.25 164.745L70.29 164.765V164.765ZM70.29 164.765C70.47 164.895 70.51 165.145 70.38 165.335C70.25 165.515 70 165.555 69.82 165.425L70.29 164.765Z" fill="#493C46"/>
<path d="M84.15 44.985C84.1 44.765 84.25 44.545 84.46 44.505C84.68 44.465 84.9 44.605 84.94 44.825L84.15 44.985ZM90.46 57.265L89.95 57.895L89.59 57.575L89.24 57.225L88.9 56.835L88.58 56.425L88.27 55.985L87.97 55.515L87.68 55.035L87.41 54.535L87.14 54.015L86.89 53.495L86.65 52.955L86.42 52.415L86.2 51.875L85.99 51.335L85.8 50.795L85.61 50.255L85.43 49.735L85.27 49.215L85.12 48.725L84.98 48.245L84.84 47.785L84.72 47.345L84.62 46.945L84.52 46.565L84.43 46.215L84.36 45.915L84.29 45.635L84.24 45.415L84.2 45.225L84.17 45.095L84.16 45.015L84.15 44.985L84.94 44.825L84.95 44.845L84.96 44.925L84.99 45.055L85.03 45.235L85.08 45.455L85.14 45.725L85.22 46.025L85.3 46.365L85.4 46.735L85.51 47.135L85.62 47.565L85.75 48.015L85.89 48.485L86.04 48.975L86.2 49.485L86.37 49.995L86.56 50.515L86.75 51.045L86.95 51.575L87.17 52.105L87.39 52.635L87.62 53.155L87.87 53.665L88.12 54.155L88.39 54.635L88.66 55.095L88.94 55.535L89.23 55.945L89.53 56.325L89.83 56.675L90.14 56.985L90.46 57.265V57.265ZM90.46 57.265C90.63 57.405 90.66 57.655 90.52 57.835C90.38 58.005 90.12 58.035 89.95 57.895L90.46 57.265V57.265ZM85.35 63.765V62.955H85.58L85.82 62.925L86.09 62.895L86.37 62.845L86.66 62.775L86.96 62.695L87.26 62.605L87.57 62.495L87.88 62.375L88.19 62.245L88.5 62.105L88.8 61.955L89.09 61.795L89.36 61.625L89.63 61.455L89.87 61.265L90.1 61.075L90.3 60.885L90.48 60.685L90.63 60.485L90.76 60.285L90.85 60.085L90.92 59.885L90.96 59.685L90.97 59.485L90.95 59.285L90.89 59.085L90.8 58.865L90.66 58.635L90.48 58.395L90.24 58.145L89.95 57.895L90.46 57.265L90.8 57.565L91.09 57.865L91.33 58.175L91.52 58.495L91.66 58.815L91.74 59.145L91.78 59.465L91.76 59.785L91.7 60.095L91.6 60.385L91.47 60.675L91.3 60.945L91.1 61.195L90.88 61.445L90.64 61.675L90.37 61.895L90.09 62.105L89.8 62.305L89.49 62.495L89.17 62.675L88.85 62.835L88.52 62.985L88.18 63.125L87.85 63.255L87.51 63.375L87.18 63.475L86.85 63.555L86.53 63.635L86.22 63.685L85.92 63.735L85.63 63.755L85.35 63.765V63.765ZM85.35 63.765C85.13 63.765 84.95 63.585 84.95 63.365C84.95 63.135 85.13 62.955 85.35 62.955V63.765Z" fill="#493C46"/>
<path d="M75.68 68.405C75.5 68.275 75.46 68.015 75.59 67.835C75.73 67.665 75.98 67.625 76.16 67.755L75.68 68.405V68.405ZM83.81 69.565L83.93 70.365L83.5 70.425L83.08 70.455L82.66 70.475L82.25 70.485L81.85 70.465L81.45 70.445L81.07 70.405L80.69 70.355L80.33 70.295L79.97 70.215L79.63 70.145L79.29 70.055L78.97 69.955L78.66 69.865L78.37 69.755L78.08 69.645L77.81 69.545L77.56 69.435L77.31 69.325L77.09 69.215L76.88 69.105L76.68 69.005L76.5 68.905L76.34 68.815L76.19 68.735L76.06 68.655L75.95 68.585L75.86 68.525L75.79 68.475L75.73 68.435L75.7 68.415L75.68 68.405L76.16 67.755H76.17L76.19 67.775L76.24 67.805L76.3 67.845L76.38 67.905L76.49 67.965L76.6 68.035L76.74 68.115L76.89 68.205L77.06 68.295L77.24 68.385L77.44 68.485L77.65 68.595L77.88 68.695L78.12 68.795L78.37 68.895L78.64 68.995L78.92 69.095L79.21 69.185L79.51 69.275L79.82 69.355L80.14 69.425L80.47 69.495L80.81 69.555L81.16 69.605L81.52 69.635L81.89 69.665L82.26 69.675L82.64 69.665L83.02 69.645L83.41 69.615L83.81 69.565ZM83.81 69.565C84.03 69.535 84.24 69.685 84.27 69.905C84.31 70.125 84.15 70.335 83.93 70.365L83.81 69.565V69.565Z" fill="#493C46"/>
<path d="M75.11 52.145C75.11 53.245 74.54 54.135 73.83 54.135C73.13 54.135 72.55 53.245 72.55 52.145C72.55 51.045 73.13 50.155 73.83 50.155C74.54 50.155 75.11 51.045 75.11 52.145Z" fill="#493C46"/>
<path d="M90.52 46.885C90.52 47.985 89.95 48.875 89.24 48.875C88.53 48.875 87.96 47.985 87.96 46.885C87.96 45.795 88.53 44.905 89.24 44.905C89.95 44.905 90.52 45.795 90.52 46.885Z" fill="#493C46"/>
<path d="M69.23 45.495C68.9 46.075 68.16 46.285 67.58 45.955C67 45.635 66.79 44.895 67.12 44.305L69.23 45.495ZM75 39.115L75.23 41.525L74.86 41.575L74.51 41.635L74.17 41.705L73.84 41.805L73.53 41.905L73.22 42.025L72.92 42.155L72.64 42.295L72.37 42.445L72.1 42.605L71.85 42.775L71.6 42.945L71.37 43.115L71.15 43.295L70.94 43.475L70.74 43.655L70.56 43.835L70.38 44.015L70.22 44.195L70.07 44.365L69.93 44.525L69.8 44.685L69.69 44.825L69.58 44.965L69.5 45.095L69.42 45.205L69.35 45.295L69.31 45.375L69.27 45.435L69.24 45.475L69.23 45.495L67.12 44.305L67.13 44.285L67.16 44.235L67.2 44.165L67.26 44.075L67.33 43.955L67.42 43.835L67.52 43.685L67.63 43.525L67.76 43.355L67.9 43.175L68.06 42.975L68.24 42.775L68.42 42.565L68.63 42.345L68.85 42.115L69.08 41.895L69.33 41.665L69.6 41.435L69.88 41.205L70.17 40.985L70.49 40.765L70.82 40.545L71.16 40.345L71.52 40.145L71.9 39.955L72.3 39.785L72.71 39.625L73.13 39.485L73.58 39.355L74.04 39.255L74.51 39.175L75 39.115V39.115ZM75 39.115C75.66 39.045 76.26 39.535 76.32 40.205C76.38 40.875 75.89 41.465 75.23 41.525L75 39.115V39.115Z" fill="#493C46"/>
<path d="M85.15 37.795C84.57 38.125 83.83 37.925 83.5 37.355C83.16 36.775 83.36 36.025 83.94 35.695L85.15 37.795V37.795ZM91.01 34.895L90.03 37.115L89.85 37.045L89.67 36.985L89.48 36.935L89.29 36.895L89.09 36.865L88.89 36.845L88.69 36.835H88.48L88.28 36.845L88.07 36.865L87.86 36.885L87.66 36.915L87.45 36.955L87.25 37.005L87.05 37.045L86.86 37.095L86.68 37.155L86.49 37.215L86.32 37.275L86.16 37.335L86.01 37.395L85.86 37.455L85.73 37.505L85.61 37.565L85.5 37.615L85.4 37.665L85.32 37.705L85.26 37.735L85.2 37.765L85.16 37.785L85.15 37.795L83.94 35.695L83.96 35.685L84.01 35.655L84.05 35.625L84.13 35.595L84.22 35.535L84.34 35.485L84.46 35.425L84.59 35.365L84.75 35.295L84.92 35.215L85.11 35.145L85.3 35.065L85.51 34.985L85.73 34.915L85.96 34.835L86.2 34.765L86.45 34.695L86.71 34.635L86.98 34.575L87.25 34.525L87.54 34.485L87.83 34.445L88.13 34.425L88.43 34.415H88.75L89.06 34.425L89.38 34.455L89.7 34.505L90.03 34.575L90.36 34.655L90.68 34.765L91.01 34.895V34.895ZM91.01 34.895C91.62 35.165 91.9 35.885 91.63 36.495C91.36 37.115 90.64 37.385 90.03 37.115L91.01 34.895V34.895Z" fill="#493C46"/>
<path d="M98.35 223.175C98.39 223.395 98.25 223.615 98.03 223.655C97.82 223.705 97.6 223.565 97.56 223.345L98.35 223.175V223.175ZM109.8 195.145L110.01 195.925L108.54 196.395L107.19 196.965L105.96 197.625L104.84 198.365L103.82 199.185L102.9 200.075L102.07 201.015L101.33 202.025L100.68 203.075L100.1 204.165L99.6 205.295L99.17 206.445L98.81 207.615L98.51 208.805L98.26 209.985L98.07 211.165L97.93 212.345L97.83 213.485L97.76 214.615L97.74 215.695V216.745L97.77 217.735L97.81 218.675L97.88 219.535L97.95 220.335L98.03 221.045L98.11 221.675L98.18 222.195L98.25 222.625L98.3 222.925L98.34 223.115L98.35 223.175L97.56 223.345L97.54 223.275L97.51 223.075L97.45 222.755L97.38 222.315L97.3 221.775L97.22 221.145L97.14 220.415L97.07 219.605L97.01 218.715L96.96 217.765L96.93 216.755V215.685L96.96 214.575L97.02 213.435L97.12 212.255L97.27 211.055L97.47 209.845L97.72 208.625L98.03 207.395L98.41 206.185L98.85 204.985L99.37 203.815L99.98 202.675L100.66 201.565L101.44 200.515L102.31 199.515L103.28 198.575L104.36 197.715L105.55 196.935L106.84 196.235L108.26 195.635L109.8 195.145V195.145ZM109.8 195.145C110.01 195.085 110.23 195.215 110.29 195.435C110.35 195.645 110.22 195.865 110.01 195.925L109.8 195.145Z" fill="#493C46"/>
<path d="M164.51 111.825C164.31 111.935 164.07 111.865 163.96 111.665C163.85 111.475 163.92 111.225 164.11 111.115L164.51 111.825ZM194.75 111.155L194.25 111.785L193.07 110.925L191.87 110.175L190.65 109.535L189.41 108.985L188.16 108.525L186.9 108.155L185.64 107.875L184.38 107.665L183.12 107.525L181.87 107.455L180.63 107.445L179.4 107.495L178.2 107.585L177.01 107.725L175.86 107.915L174.73 108.125L173.65 108.375L172.6 108.645L171.6 108.925L170.64 109.225L169.75 109.535L168.9 109.845L168.12 110.145L167.4 110.435L166.75 110.725L166.18 110.985L165.68 111.215L165.27 111.425L164.94 111.585L164.7 111.715L164.55 111.795L164.51 111.825L164.11 111.115L164.16 111.085L164.32 111.005L164.57 110.875L164.91 110.695L165.33 110.485L165.84 110.245L166.43 109.985L167.09 109.695L167.82 109.395L168.62 109.085L169.48 108.765L170.39 108.455L171.37 108.155L172.39 107.855L173.46 107.585L174.57 107.335L175.72 107.115L176.9 106.925L178.12 106.785L179.35 106.685L180.61 106.635L181.89 106.645L183.19 106.725L184.49 106.865L185.8 107.085L187.11 107.375L188.41 107.755L189.71 108.235L191 108.805L192.27 109.475L193.52 110.255L194.75 111.155V111.155ZM194.75 111.155C194.92 111.285 194.95 111.545 194.81 111.715C194.68 111.895 194.42 111.925 194.25 111.785L194.75 111.155Z" fill="#493C46"/>
<path d="M242.69 358.775C242.69 358.775 231.88 353.465 234.54 340.645C238.59 321.245 257.25 314.305 257.25 314.305C257.25 314.305 267.02 348.595 242.69 358.775V358.775Z" fill="#D06326"/>
<path d="M353.46 148.295C353.46 148.295 339.4 140.925 323.88 158.435C310.54 173.495 320.85 188.855 320.85 188.855C320.85 188.855 337.12 184.095 345 171.515C352.89 158.945 353.46 148.295 353.46 148.295Z" fill="#D06326"/>
<path d="M219.49 154.495C222.21 156.215 242.69 167.635 242.69 167.635C242.69 167.635 241.52 178.955 244.75 179.965C247.98 180.975 245.76 176.835 248.69 173.595C251.62 170.365 251.52 167.635 251.52 167.635L321.23 188.695C336.25 182.215 346.72 163.125 351.12 153.695C347.73 150.115 340.74 145.475 326.51 143.175C301.45 139.135 253.14 146.005 253.14 146.005C253.14 146.005 241.82 141.055 238.69 141.055C235.55 141.055 222.42 139.235 219.49 141.055C216.55 142.875 216.76 152.775 219.49 154.495V154.495Z" fill="#FAC9A0"/>
<path d="M337.49 145.805C333.8 168.805 322.45 186.445 321.01 188.625L321.23 188.695C336.25 182.215 346.72 163.125 351.12 153.695C348.76 151.195 344.62 148.175 337.49 145.805Z" fill="#E5AC81"/>
<path d="M199.98 238.605C203.21 242.265 210.69 255.755 210.69 255.755C210.69 255.755 210.09 275.565 212.31 298.605C214.53 321.655 229.69 344.895 234.54 348.635C237.5 350.915 244.23 352.025 249.02 352.555C257.25 339.545 257.25 314.305 257.25 314.305C257.25 314.305 232.93 267.485 233.53 258.995C234.14 250.505 224.03 244.035 220.39 241.615C216.76 239.185 212.51 228.275 210.49 231.755C208.47 235.245 212.17 242.035 212.17 242.035L199.98 238.605V238.605Z" fill="#FAC9A0"/>
<path d="M234.54 348.635C237.5 350.915 244.23 352.025 249.02 352.555C257.25 339.545 257.25 314.305 257.25 314.305C257.25 314.305 247.28 343.685 234.54 348.635Z" fill="#E5AC81"/>
<path d="M342.51 237.535C332.23 267.665 312.61 293.465 287.11 311.485H287.1L257.25 314.305C257.25 314.305 257.25 351.225 242.69 358.775C242.69 358.775 298.21 347.995 334.32 321.855C370.44 295.715 380.68 229.415 380.68 229.415C380.68 229.415 374.32 178.445 353.46 148.295C353.46 148.295 341.33 180.365 320.85 188.855C320.85 188.855 341.23 225.735 342.51 237.535V237.535Z" fill="#F6A30A"/>
<path d="M339.78 317.425C352.07 306.385 360.97 290.695 367.27 275.605C360.66 270.065 347.94 261.345 332.48 260.405C326.81 270.865 319.94 280.565 312.04 289.325C316.41 298.025 324.61 308.085 339.78 317.425V317.425Z" fill="#E5AC81"/>
<path d="M256.84 314.305C256.84 314.085 257.03 313.905 257.25 313.905C257.47 313.905 257.65 314.085 257.65 314.305H256.84ZM242.88 359.135L242.51 358.415L243.79 357.645L244.99 356.725L246.12 355.655L247.18 354.445L248.17 353.105L249.09 351.665L249.95 350.115L250.74 348.475L251.47 346.765L252.14 344.985L252.75 343.155L253.31 341.275L253.81 339.375L254.26 337.465L254.67 335.545L255.03 333.635L255.35 331.755L255.63 329.895L255.87 328.095L256.08 326.345L256.25 324.665L256.4 323.065L256.52 321.565L256.62 320.165L256.69 318.895L256.75 317.745L256.79 316.745L256.82 315.895L256.83 315.215L256.84 314.715V314.415V314.305H257.65V314.415V314.725L257.64 315.235L257.62 315.925L257.6 316.775L257.56 317.785L257.5 318.935L257.42 320.215L257.33 321.625L257.21 323.135L257.06 324.745L256.88 326.435L256.67 328.195L256.43 330.015L256.15 331.875L255.83 333.785L255.46 335.705L255.05 337.645L254.59 339.575L254.08 341.495L253.52 343.395L252.9 345.255L252.22 347.065L251.48 348.805L250.67 350.485L249.79 352.075L248.84 353.565L247.81 354.945L246.71 356.215L245.52 357.335L244.24 358.315L242.88 359.135V359.135ZM242.88 359.135C242.68 359.235 242.44 359.155 242.34 358.965C242.23 358.765 242.31 358.515 242.51 358.415L242.88 359.135Z" fill="#493C46"/>
<path d="M353.08 148.155C353.16 147.945 353.39 147.845 353.6 147.925C353.81 147.995 353.91 148.235 353.84 148.445L353.08 148.155V148.155ZM321 189.235L320.69 188.485L322.56 187.635L324.39 186.655L326.16 185.555L327.89 184.355L329.57 183.045L331.2 181.655L332.77 180.195L334.29 178.655L335.76 177.065L337.18 175.425L338.54 173.755L339.84 172.055L341.09 170.335L342.28 168.605L343.42 166.885L344.49 165.185L345.5 163.505L346.46 161.855L347.35 160.255L348.18 158.705L348.95 157.225L349.66 155.815L350.3 154.495L350.88 153.275L351.39 152.155L351.83 151.155L352.21 150.275L352.52 149.535L352.77 148.945L352.94 148.515L353.05 148.245L353.08 148.155L353.84 148.445L353.8 148.535L353.69 148.805L353.52 149.255L353.27 149.845L352.96 150.595L352.57 151.475L352.12 152.485L351.61 153.615L351.03 154.845L350.38 156.175L349.67 157.595L348.9 159.085L348.06 160.635L347.16 162.255L346.2 163.915L345.18 165.605L344.1 167.325L342.95 169.065L341.75 170.805L340.49 172.535L339.17 174.255L337.8 175.945L336.36 177.605L334.88 179.215L333.33 180.775L331.73 182.265L330.08 183.675L328.37 185.005L326.61 186.235L324.79 187.355L322.92 188.355L321 189.235V189.235ZM321 189.235C320.8 189.315 320.56 189.215 320.48 189.015C320.39 188.805 320.49 188.565 320.69 188.485L321 189.235Z" fill="#493C46"/>
<path d="M317.35 335.865C317.35 335.865 311.09 337.975 307.98 335.865C303.8 333.035 302.59 316.125 319.5 312.355L332.91 327.375L317.35 335.865Z" fill="#302829"/>
<path d="M315.73 310.805C317.18 319.015 321.99 323.955 325.64 326.605C327.53 323.785 329.33 320.375 330.55 316.465C334.32 304.335 353.19 307.035 353.19 307.035C349.96 301.705 350.6 297.255 351.63 294.535C354.01 296.695 357.24 297.435 359.99 296.145C363.8 294.345 365.21 289.315 363.13 284.895C361.05 280.475 356.27 278.355 352.45 280.155C351.67 280.525 350.99 281.035 350.42 281.645C345.64 278.505 342.96 274.385 341.61 270.145C332.55 263.665 322.48 259.745 315.73 263.375C305.22 269.035 313.3 297.055 315.73 310.805V310.805Z" fill="#FAC9A0"/>
<path d="M325.64 326.605C327.53 323.785 329.33 320.375 330.55 316.465C334.32 304.335 353.19 307.035 353.19 307.035C353.19 307.035 343.08 302.855 334.73 305.545C329.06 307.375 323.26 313.985 318.23 318.125C320.35 322.125 323.24 324.865 325.64 326.605V326.605Z" fill="#E5AC81"/>
<path d="M339.98 341.795C351.57 350.685 379.06 354.465 377.17 330.475C377.17 330.475 386.07 328.585 385.8 319.155C385.53 309.725 379.07 298.405 381.49 290.865C383.91 283.315 399 270.915 399 257.715C399 244.505 390.11 233.185 380.68 229.415C380.68 229.415 375.56 242.625 364.51 242.355C353.46 242.085 344.56 245.585 342.14 252.325C339.72 259.045 338.11 273.555 350.42 281.645C350.99 281.035 351.67 280.525 352.45 280.155C356.27 278.355 361.05 280.475 363.13 284.895C365.21 289.315 363.8 294.345 359.99 296.145C357.24 297.435 354.01 296.695 351.63 294.535C350.6 297.255 349.96 301.705 353.19 307.035C353.19 307.035 334.32 304.335 330.55 316.465C326.78 328.585 317.35 335.865 317.35 335.865C317.35 335.865 328.39 332.905 339.98 341.795V341.795Z" fill="#493C46"/>
<path d="M239.53 156.745C239.74 156.815 239.85 157.045 239.78 157.255C239.7 157.465 239.47 157.575 239.26 157.505L239.53 156.745ZM217.57 148.905L239.53 156.745L239.26 157.505L217.3 149.665L217.57 148.905ZM217.3 149.665C217.09 149.595 216.98 149.365 217.06 149.155C217.13 148.945 217.36 148.835 217.57 148.905L217.3 149.665V149.665Z" fill="#493C46"/>
<path d="M240.73 151.885C240.94 151.955 241.06 152.185 240.99 152.395C240.92 152.605 240.7 152.725 240.48 152.655L240.73 151.885V151.885ZM217.7 144.575L240.73 151.885L240.48 152.655L217.46 145.345L217.7 144.575ZM217.46 145.345C217.24 145.285 217.13 145.055 217.19 144.845C217.26 144.625 217.49 144.515 217.7 144.575L217.46 145.345V145.345Z" fill="#493C46"/>
<path d="M241.54 147.915C241.75 147.985 241.87 148.215 241.8 148.425C241.73 148.635 241.5 148.755 241.29 148.685L241.54 147.915V147.915ZM219.61 140.675L241.54 147.915L241.29 148.685L219.36 141.435L219.61 140.675V140.675ZM219.36 141.435C219.15 141.365 219.03 141.145 219.1 140.925C219.17 140.715 219.4 140.605 219.61 140.675L219.36 141.435Z" fill="#493C46"/>
<path d="M340.72 231.845C340.67 231.635 340.8 231.415 341.02 231.365C341.24 231.315 341.46 231.445 341.51 231.665L340.72 231.845V231.845ZM343.9 245.545L340.72 231.845L341.51 231.665L344.69 245.355L343.9 245.545ZM344.69 245.355C344.74 245.575 344.6 245.795 344.39 245.845C344.17 245.895 343.95 245.755 343.9 245.545L344.69 245.355Z" fill="#493C46"/>
<path d="M297.84 307.545C298.04 307.445 298.28 307.535 298.37 307.735C298.47 307.935 298.38 308.175 298.18 308.275L297.84 307.545ZM287.14 311.895L287.06 311.085L287.45 311.045L287.85 310.985L288.27 310.905L288.69 310.825L289.12 310.725L289.57 310.615L290.01 310.505L290.46 310.375L290.92 310.235L291.37 310.095L291.82 309.945L292.27 309.795L292.71 309.645L293.14 309.485L293.57 309.325L293.99 309.175L294.39 309.015L294.78 308.855L295.15 308.705L295.51 308.565L295.85 308.415L296.17 308.285L296.46 308.155L296.73 308.035L296.98 307.935L297.2 307.835L297.39 307.745L297.55 307.675L297.67 307.615L297.76 307.575L297.82 307.545H297.84L298.18 308.275L298.16 308.285L298.1 308.305L298.01 308.355L297.88 308.415L297.72 308.485L297.53 308.575L297.31 308.665L297.06 308.785L296.78 308.895L296.48 309.025L296.16 309.165L295.82 309.305L295.46 309.455L295.08 309.615L294.68 309.765L294.27 309.925L293.85 310.085L293.42 310.245L292.98 310.405L292.53 310.565L292.07 310.715L291.61 310.865L291.15 311.015L290.69 311.145L290.23 311.275L289.77 311.405L289.31 311.515L288.86 311.615L288.42 311.705L287.98 311.785L287.55 311.845L287.14 311.895V311.895ZM287.14 311.895C286.92 311.915 286.72 311.745 286.7 311.525C286.68 311.305 286.84 311.105 287.06 311.085L287.14 311.895ZM277.98 312.755L277.9 311.955L277.91 311.945H277.96L278.03 311.935L278.13 311.925L278.24 311.915L278.39 311.905L278.56 311.885L278.74 311.875L278.95 311.855L279.18 311.835L279.43 311.805L279.69 311.785L279.97 311.755L280.27 311.725L280.58 311.695L280.91 311.665L281.25 311.635L281.59 311.605L281.95 311.565L282.32 311.535L282.7 311.495L283.08 311.465L283.47 311.425L283.86 311.385L284.26 311.345L284.66 311.315L285.06 311.275L285.46 311.235L285.87 311.195L286.27 311.165L286.67 311.125L287.06 311.085L287.14 311.895L286.74 311.925L286.34 311.965L285.94 312.005L285.54 312.045L285.14 312.075L284.73 312.115L284.33 312.155L283.94 312.195L283.54 312.235L283.15 312.265L282.77 312.305L282.4 312.335L282.03 312.375L281.67 312.405L281.32 312.445L280.98 312.475L280.66 312.505L280.35 312.535L280.05 312.555L279.77 312.585L279.51 312.615L279.26 312.635L279.03 312.655L278.82 312.675L278.63 312.695L278.46 312.705L278.32 312.725L278.2 312.735L278.11 312.745H278.04L278 312.755H277.98ZM277.98 312.755C277.76 312.775 277.56 312.615 277.54 312.395C277.52 312.165 277.68 311.975 277.9 311.955L277.98 312.755Z" fill="#493C46"/>
<path d="M211.85 242.295C211.72 242.115 211.74 241.865 211.92 241.725C212.09 241.585 212.35 241.615 212.48 241.785L211.85 242.295ZM214.98 246.175L211.85 242.295L212.48 241.785L215.61 245.665L214.98 246.175ZM215.61 245.665C215.75 245.835 215.72 246.095 215.55 246.235C215.37 246.375 215.12 246.345 214.98 246.175L215.61 245.665Z" fill="#493C46"/>
<path d="M360.61 290.015C360.78 289.865 361.04 289.895 361.18 290.065C361.32 290.235 361.3 290.485 361.13 290.635L360.61 290.015ZM352.94 288.705L353.44 289.345L353.52 288.795L353.83 289.205L354.13 289.575L354.44 289.895L354.75 290.175L355.05 290.415L355.36 290.615L355.66 290.785L355.96 290.915L356.26 291.025L356.55 291.105L356.84 291.155L357.13 291.185L357.41 291.195L357.68 291.185L357.95 291.155L358.22 291.115L358.47 291.055L358.72 290.985L358.95 290.915L359.18 290.825L359.39 290.735L359.59 290.645L359.77 290.545L359.94 290.455L360.1 290.365L360.23 290.285L360.35 290.205L360.44 290.135L360.52 290.085L360.57 290.035L360.61 290.015L361.13 290.635L361.11 290.645L361.07 290.685L361 290.735L360.91 290.795L360.8 290.875L360.67 290.965L360.52 291.055L360.34 291.155L360.15 291.265L359.95 291.365L359.72 291.475L359.48 291.575L359.22 291.675L358.95 291.765L358.67 291.845L358.37 291.905L358.06 291.955L357.74 291.995L357.41 292.005L357.07 291.995L356.73 291.955L356.38 291.895L356.02 291.795L355.66 291.665L355.3 291.505L354.94 291.305L354.58 291.075L354.22 290.795L353.87 290.475L353.53 290.115L353.19 289.705L352.86 289.255L352.94 288.705V288.705ZM352.86 289.255C352.73 289.075 352.78 288.815 352.96 288.695C353.14 288.565 353.4 288.615 353.52 288.795L352.86 289.255ZM352.96 285.265L353.41 284.595L353.68 284.785L353.92 284.985L354.13 285.185L354.32 285.395L354.47 285.605L354.6 285.825L354.7 286.035L354.77 286.255L354.82 286.475L354.85 286.695V286.905L354.83 287.105L354.8 287.305L354.75 287.495L354.69 287.675L354.62 287.855L354.54 288.015L354.45 288.175L354.36 288.325L354.26 288.465L354.17 288.595L354.07 288.715L353.97 288.825L353.88 288.925L353.79 289.015L353.71 289.095L353.64 289.165L353.57 289.225L353.52 289.275L353.48 289.305L353.45 289.335L353.44 289.345L352.94 288.705L352.96 288.695L352.99 288.665L353.04 288.625L353.09 288.575L353.15 288.515L353.22 288.455L353.29 288.375L353.37 288.285L353.45 288.195L353.53 288.095L353.61 287.995L353.68 287.875L353.76 287.765L353.82 287.645L353.88 287.525L353.93 287.395L353.98 287.265L354.01 287.135L354.03 287.005L354.04 286.875V286.745L354.02 286.615L353.99 286.475L353.95 286.345L353.88 286.195L353.8 286.055L353.69 285.905L353.55 285.745L353.39 285.595L353.19 285.435L352.96 285.265V285.265ZM352.96 285.265C352.78 285.145 352.73 284.895 352.85 284.705C352.98 284.525 353.23 284.475 353.41 284.595L352.96 285.265Z" fill="#493C46"/>
<path d="M321.87 301.845C321.98 302.035 321.92 302.285 321.73 302.395C321.53 302.505 321.29 302.445 321.17 302.245L321.87 301.845V301.845ZM316.1 294.555L316.71 294.025L316.9 294.255L317.09 294.495L317.29 294.755L317.49 295.025L317.7 295.305L317.91 295.595L318.12 295.905L318.33 296.215L318.55 296.525L318.76 296.855L318.98 297.175L319.19 297.505L319.4 297.825L319.61 298.145L319.81 298.475L320.01 298.785L320.21 299.095L320.39 299.395L320.57 299.685L320.74 299.965L320.91 300.235L321.06 300.485L321.2 300.715L321.34 300.935L321.45 301.135L321.56 301.315L321.65 301.465L321.73 301.595L321.79 301.695L321.83 301.775L321.86 301.825L321.87 301.845L321.17 302.245L321.16 302.235L321.14 302.185L321.09 302.115L321.03 302.005L320.95 301.875L320.87 301.725L320.76 301.555L320.64 301.355L320.51 301.135L320.37 300.905L320.22 300.655L320.06 300.385L319.88 300.115L319.71 299.825L319.52 299.525L319.33 299.215L319.13 298.905L318.93 298.585L318.72 298.265L318.51 297.945L318.3 297.615L318.09 297.295L317.88 296.985L317.66 296.665L317.45 296.365L317.25 296.065L317.04 295.775L316.84 295.505L316.64 295.245L316.45 294.995L316.27 294.765L316.1 294.555V294.555ZM316.1 294.555C315.95 294.385 315.97 294.125 316.14 293.985C316.31 293.835 316.57 293.855 316.71 294.025L316.1 294.555ZM316.26 286.035L316.55 286.795L315.96 287.035L315.43 287.285L314.97 287.525L314.58 287.775L314.24 288.015L313.97 288.245L313.74 288.475L313.57 288.695L313.45 288.915L313.36 289.115L313.31 289.315L313.29 289.515L313.3 289.725L313.33 289.925L313.4 290.145L313.49 290.365L313.6 290.585L313.74 290.815L313.9 291.045L314.08 291.285L314.27 291.515L314.48 291.755L314.7 291.985L314.93 292.225L315.16 292.455L315.4 292.685L315.63 292.915L315.86 293.135L316.09 293.365L316.31 293.585L316.52 293.815L316.71 294.025L316.1 294.555L315.92 294.355L315.73 294.145L315.52 293.935L315.29 293.715L315.07 293.495L314.83 293.265L314.59 293.025L314.35 292.785L314.12 292.545L313.88 292.295L313.66 292.045L313.45 291.785L313.24 291.525L313.06 291.255L312.89 290.985L312.75 290.695L312.63 290.415L312.55 290.115L312.49 289.805L312.48 289.495L312.51 289.175L312.59 288.855L312.72 288.545L312.91 288.245L313.13 287.945L313.41 287.655L313.74 287.375L314.13 287.095L314.57 286.825L315.07 286.565L315.63 286.295L316.26 286.035V286.035ZM316.26 286.035C316.46 285.955 316.7 286.055 316.78 286.265C316.86 286.475 316.76 286.705 316.55 286.795L316.26 286.035V286.035Z" fill="#493C46"/>
<path d="M328.13 281.425H318.23C318.23 281.425 318.15 276.575 323.95 276.445C329.74 276.305 328.13 281.425 328.13 281.425V281.425Z" fill="#FAF9FC"/>
<path d="M328.87 293.585C328.87 294.685 328.3 295.575 327.59 295.575C326.89 295.575 326.31 294.685 326.31 293.585C326.31 292.485 326.89 291.595 327.59 291.595C328.3 291.595 328.87 292.485 328.87 293.585Z" fill="#493C46"/>
<path d="M318.23 300.925C318.23 302.025 317.66 302.915 316.95 302.915C316.24 302.915 315.67 302.025 315.67 300.925C315.67 299.835 316.24 298.945 316.95 298.945C317.66 298.945 318.23 299.835 318.23 300.925Z" fill="#493C46"/>
<path d="M333.16 295.825C333.43 295.215 334.15 294.925 334.76 295.195C335.37 295.465 335.66 296.175 335.39 296.785L333.16 295.825ZM328.08 302.765L327.61 300.385L327.97 300.305L328.31 300.205L328.64 300.095L328.95 299.975L329.26 299.835L329.55 299.685L329.83 299.525L330.1 299.355L330.36 299.185L330.61 298.995L330.84 298.805L331.07 298.605L331.28 298.415L331.48 298.205L331.67 298.005L331.85 297.805L332.01 297.615L332.17 297.415L332.32 297.225L332.45 297.035L332.57 296.865L332.68 296.695L332.78 296.535L332.87 296.385L332.94 296.255L333.01 296.145L333.06 296.035L333.1 295.955L333.14 295.885L333.16 295.845L333.17 295.825H333.16L335.39 296.785L335.38 296.825L335.35 296.875L335.32 296.945L335.27 297.045L335.21 297.155L335.14 297.285L335.06 297.445L334.96 297.615L334.85 297.805L334.72 297.995L334.59 298.215L334.43 298.435L334.27 298.665L334.09 298.905L333.9 299.145L333.69 299.395L333.46 299.645L333.22 299.905L332.96 300.155L332.69 300.415L332.4 300.665L332.1 300.915L331.78 301.145L331.43 301.385L331.08 301.605L330.7 301.825L330.31 302.025L329.9 302.205L329.47 302.375L329.03 302.525L328.56 302.655L328.08 302.765V302.765ZM328.08 302.765C327.43 302.895 326.79 302.475 326.66 301.815C326.53 301.155 326.95 300.515 327.61 300.385L328.08 302.765Z" fill="#493C46"/>
<path d="M320 306.365C320.47 305.895 321.24 305.905 321.71 306.385C322.18 306.855 322.18 307.625 321.7 308.095L320 306.365V306.365ZM315.45 311.335L315.77 308.925L315.84 308.935H315.93L316.04 308.915L316.16 308.895L316.3 308.865L316.46 308.815L316.62 308.755L316.8 308.685L316.98 308.595L317.16 308.505L317.35 308.405L317.54 308.285L317.73 308.175L317.91 308.055L318.1 307.925L318.28 307.795L318.46 307.665L318.64 307.535L318.8 307.405L318.97 307.275L319.12 307.155L319.26 307.035L319.4 306.915L319.52 306.815L319.62 306.715L319.72 306.625L319.81 306.545L319.88 306.485L319.93 306.435L319.98 306.385L320 306.375V306.365L321.7 308.095L321.68 308.115L321.65 308.145L321.61 308.185L321.54 308.255L321.45 308.325L321.36 308.415L321.25 308.515L321.12 308.635L320.98 308.755L320.83 308.885L320.66 309.025L320.49 309.165L320.31 309.305L320.11 309.465L319.91 309.615L319.7 309.765L319.48 309.925L319.25 310.075L319.02 310.225L318.78 310.375L318.54 310.515L318.29 310.655L318.04 310.775L317.77 310.905L317.51 311.015L317.24 311.115L316.96 311.195L316.67 311.265L316.38 311.325L316.08 311.355H315.76L315.45 311.335V311.335ZM315.45 311.335C314.79 311.245 314.32 310.635 314.41 309.975C314.49 309.305 315.1 308.835 315.77 308.925L315.45 311.335Z" fill="#493C46"/>
</svg>
