<svg width="250" height="250" viewBox="0 0 250 250" fill="none" xmlns="http://www.w3.org/2000/svg">
<path d="M221.774 181.452H141.129V245.968H221.774V181.452Z" fill="#D3A06C"/>
<path d="M100.806 181.452C105.26 181.452 108.871 177.841 108.871 173.387C108.871 168.933 105.26 165.323 100.806 165.323C96.3526 165.323 92.7419 168.933 92.7419 173.387C92.7419 177.841 96.3526 181.452 100.806 181.452Z" fill="#FF826E"/>
<path d="M68.5484 181.452C73.0023 181.452 76.6129 177.841 76.6129 173.387C76.6129 168.933 73.0023 165.323 68.5484 165.323C64.0945 165.323 60.4839 168.933 60.4839 173.387C60.4839 177.841 64.0945 181.452 68.5484 181.452Z" fill="#FF826E"/>
<path d="M36.2903 181.452C40.7443 181.452 44.3549 177.841 44.3549 173.387C44.3549 168.933 40.7443 165.323 36.2903 165.323C31.8364 165.323 28.2258 168.933 28.2258 173.387C28.2258 177.841 31.8364 181.452 36.2903 181.452Z" fill="#FF826E"/>
<path d="M189.476 20.1613H165.806C160.927 20.1613 156.371 21.8145 152.702 24.6774C149.073 27.5 146.371 31.5323 145.161 36.2903C134.032 36.2903 125 45.3226 125 56.4516V64.3952C125 70 126.129 75.4436 128.266 80.4436C126.25 82.5807 125 85.5242 125 88.75C125 92.0968 126.371 95.0807 128.548 97.2581C130.726 99.4355 133.71 100.806 137.056 100.806H137.097H141.29H141.331C141.936 107.903 144.355 114.597 148.145 120.363C149.234 121.976 150.403 123.548 151.694 125H76.6129V141.734C76.6129 145.847 73.2662 149.194 69.1533 149.194C66.2904 149.194 63.7097 147.581 62.4597 145.081L52.4194 125H29.7178C21.9758 125 15.4436 119.194 14.5565 111.492L4.11293 21.0484C4.07261 20.4435 4.03229 19.879 4.03229 19.2742C4.03229 10.8468 10.8468 4.03226 19.2742 4.03226H174.274C178.468 4.03226 182.298 5.72581 185.04 8.50806C187.823 11.25 189.516 15.0806 189.516 19.2742C189.516 19.5968 189.516 19.879 189.476 20.1613Z" fill="#E6E9ED"/>
<path d="M92.742 44.3548H36.2903V76.6129H92.742V44.3548Z" fill="#F0D0B4"/>
<path d="M76.6129 60.4839H52.4194V76.6129H76.6129V60.4839Z" fill="#AAB2BD"/>
<path d="M100.806 44.3548H92.742H36.2903H28.2258L64.5162 20.1613L100.806 44.3548Z" fill="#FF826E"/>
<path d="M179.194 64.5161C179.395 66.8548 179.274 69.1935 178.669 71.5323L177.419 76.6129L174.355 73.5484C168.427 67.621 161.169 63.1452 153.226 60.4839C146.21 62.8226 141.411 69.2742 141.129 76.6129H137.097C133.629 76.6129 130.484 78.0645 128.266 80.4436C126.129 75.4436 125 70 125 64.3952V56.4516C125 45.3226 134.032 36.2903 145.161 36.2903C146.371 31.5323 149.073 27.5 152.702 24.6774C156.371 21.8145 160.927 20.1613 165.806 20.1613H189.476H195.04C218.71 20.1613 237.903 39.3548 237.903 63.0242C237.903 68.9516 236.653 74.7984 234.355 80.1613C232.177 77.9839 229.153 76.6129 225.806 76.6129H221.774L220.766 76.0081C208.226 68.5081 193.911 64.5161 179.274 64.5161H179.194Z" fill="#656D78"/>
<path d="M129.032 201.613C127.621 201.613 126.25 201.855 125 202.339V202.298V193.548C125 176.613 135.605 161.452 151.532 155.685L169.355 149.194L181.452 173.387L193.548 149.194L211.371 155.685C227.298 161.452 237.903 176.613 237.903 193.548V202.298V202.339C236.653 201.855 235.282 201.613 233.871 201.613H229.839C225.403 201.613 221.774 205.242 221.774 209.677V181.452H173.387H157.258H141.129V209.677C141.129 205.242 137.5 201.613 133.065 201.613H129.032Z" fill="#5CD6B3"/>
<path d="M173.387 181.452H157.258V213.71H173.387V181.452Z" fill="#B27946"/>
<path d="M116.935 221.774V213.71C116.935 208.427 120.282 203.952 125 202.339C126.25 201.855 127.621 201.613 129.032 201.613H133.065C137.5 201.613 141.129 205.242 141.129 209.677V217.742V225.806C141.129 230.242 137.5 233.871 133.065 233.871H129.032C122.339 233.871 116.935 228.468 116.935 221.774Z" fill="#F0D0B4"/>
<path d="M245.968 213.71V221.774C245.968 228.468 240.565 233.871 233.871 233.871H229.839C225.403 233.871 221.774 230.242 221.774 225.806V217.742V209.677C221.774 205.242 225.403 201.613 229.839 201.613H233.871C235.282 201.613 236.653 201.855 237.903 202.339C242.621 203.952 245.968 208.427 245.968 213.71Z" fill="#F0D0B4"/>
<path d="M237.903 88.75C237.903 95.4032 232.5 100.806 225.887 100.806H225.806H221.613H221.573C221.734 99.5161 221.774 98.2258 221.774 96.9355V76.6129H225.806C229.153 76.6129 232.177 77.9839 234.355 80.1613C236.532 82.3387 237.903 85.4032 237.903 88.75Z" fill="#F0D0B4"/>
<path d="M221.774 76.6129V96.9355C221.774 98.2258 221.734 99.5161 221.573 100.806C220.202 116.25 210.444 129.879 196.008 136.048C194.516 136.694 193.548 138.145 193.548 139.758V149.194L181.452 173.387L169.355 149.194V139.758C169.355 138.145 168.387 136.694 166.895 136.048C160.927 133.508 155.766 129.677 151.694 125C150.403 123.548 149.234 121.976 148.145 120.363C144.355 114.597 141.935 107.903 141.331 100.806C141.169 99.5161 141.129 98.2258 141.129 96.9355V77.2581C141.129 77.0565 141.129 76.8145 141.129 76.6129C141.411 69.2742 146.21 62.8226 153.226 60.4839C161.169 63.1452 168.427 67.621 174.355 73.5484L177.419 76.6129L178.669 71.5323C179.274 69.1935 179.395 66.8548 179.194 64.5161H179.274C193.911 64.5161 208.226 68.5081 220.766 76.0081L221.774 76.6129Z" fill="#F0D0B4"/>
<path d="M141.129 96.9355C141.129 98.2258 141.169 99.5161 141.331 100.806H141.29H137.097H137.056C133.71 100.806 130.726 99.4355 128.548 97.2581C126.371 95.0807 125 92.0968 125 88.75C125 85.5242 126.25 82.5807 128.266 80.4436C130.484 78.0645 133.629 76.6129 137.097 76.6129H141.129C141.129 76.8145 141.129 77.0565 141.129 77.2581V96.9355Z" fill="#F0D0B4"/>
<path d="M201.617 88.7097C203.844 88.7097 205.649 86.9044 205.649 84.6774C205.649 82.4504 203.844 80.6451 201.617 80.6451C199.39 80.6451 197.585 82.4504 197.585 84.6774C197.585 86.9044 199.39 88.7097 201.617 88.7097Z" fill="black"/>
<path d="M161.294 88.7097C163.521 88.7097 165.327 86.9044 165.327 84.6774C165.327 82.4504 163.521 80.6451 161.294 80.6451C159.067 80.6451 157.262 82.4504 157.262 84.6774C157.262 86.9044 159.067 88.7097 161.294 88.7097Z" fill="black"/>
<path d="M241.935 199.823V193.565C241.935 174.984 230.202 158.23 212.738 151.879L197.589 146.371L197.593 139.754C212.282 133.46 222.488 120.222 225.121 104.839H225.871C234.73 104.839 241.94 97.629 241.94 88.7702C241.94 85.2742 240.802 82.0524 238.915 79.4032C240.879 74.1532 241.935 68.6653 241.935 63.0242C241.935 37.1653 220.899 16.129 195.04 16.129H193.23C191.714 7 183.819 0 174.266 0H19.2823C8.65323 0 0 8.65323 0 19.2823C0 20.0242 0.0443548 20.7621 0.129032 21.4919L10.5645 111.964C11.6895 121.694 19.9234 129.032 29.7218 129.032H49.9274L58.8427 146.863C60.8065 150.79 64.75 153.226 69.1371 153.226C75.4839 153.226 80.6452 148.065 80.6452 141.718V129.032H149.931C154.202 133.52 159.383 137.214 165.315 139.754L165.319 146.371L150.169 151.879C132.706 158.23 120.972 174.98 120.972 193.565V199.823C116.173 202.617 112.903 207.762 112.903 213.71V221.774C112.903 230.669 120.137 237.903 129.032 237.903H133.065C134.484 237.903 135.831 237.613 137.097 237.161V250H225.806V237.161C227.073 237.613 228.419 237.903 229.839 237.903H233.871C242.766 237.903 250 230.669 250 221.774V213.71C250 207.766 246.734 202.621 241.935 199.823ZM209.98 159.456C224.27 164.653 233.871 178.359 233.871 193.565V197.581H229.839C228.419 197.581 227.073 197.871 225.806 198.323V177.419H183.944L195.552 154.21L209.98 159.456ZM225.815 96.7742L225.806 80.6452C230.254 80.6452 233.875 84.2863 233.875 88.7702C233.875 93.1814 230.286 96.7702 225.815 96.7742ZM233.871 63.0242C233.871 66.7621 233.31 70.4153 232.266 73.9556C230.286 73.0847 228.105 72.5806 225.806 72.5806H225.484C223.516 58.9274 211.77 48.3871 197.581 48.3871V56.4516C206 56.4516 213.23 61.6371 216.242 68.9798C205.718 63.871 194.222 61.0202 182.5 60.5726C181.427 56.4677 179.31 52.6411 176.238 49.5645L170.536 55.2661C174.065 58.7984 175.742 63.8105 175.125 68.7097C169.177 63.3306 162.105 59.1895 154.504 56.6532L153.226 56.2339L151.952 56.6573C144.593 59.1089 139.294 65.2339 137.669 72.5766H137.105C134.694 72.5766 132.427 73.1452 130.371 74.1008C129.508 70.9556 129.032 67.7177 129.032 64.4153V56.4516C129.032 47.5565 136.266 40.3226 145.161 40.3226H148.306L149.069 37.2661C150.996 29.5685 157.883 24.1935 165.819 24.1935H195.04C216.452 24.1935 233.871 41.6129 233.871 63.0242ZM137.04 96.7742C132.625 96.7742 129.036 93.1814 129.036 88.7702C129.036 84.2903 132.649 80.6532 137.097 80.6492L137.093 96.7782H137.04V96.7742ZM72.5806 120.968V141.718C72.5806 143.613 71.0323 145.161 69.1371 145.161C67.8266 145.161 66.6452 144.431 66.0565 143.254L54.9113 120.968H29.7218C24.0242 120.968 19.2298 116.694 18.5726 111.036L8.14113 20.5685C8.09274 20.1411 8.06452 19.7177 8.06452 19.2823C8.06452 13.0968 13.0968 8.06452 19.2823 8.06452H174.266C179.351 8.06452 183.605 11.4839 184.976 16.129H165.819C155.19 16.129 145.843 22.7056 142.149 32.4435C130.226 33.9314 120.968 44.129 120.968 56.4516V64.4153C120.968 69.6855 121.931 74.8185 123.722 79.7419C121.988 82.3226 120.972 85.4274 120.972 88.7702C120.972 97.629 128.181 104.839 137.101 104.839H137.786C138.774 110.605 140.827 116.06 143.782 120.968H72.5806ZM145.157 96.9476L145.161 77.2661C145.161 71.8145 148.379 66.9476 153.29 64.7742C160.097 67.2621 166.363 71.254 171.492 76.3831L179.605 84.496L182.605 72.5242C182.923 71.254 183.093 69.9677 183.198 68.6815C195.351 69.3065 207.194 72.8145 217.746 78.9395L217.754 96.9395C217.762 112.367 208.601 126.262 194.427 132.339C191.456 133.609 189.532 136.516 189.532 139.746L189.524 148.242L181.452 164.375L173.387 148.242L173.379 139.75C173.379 136.516 171.456 133.613 168.488 132.343C154.315 126.266 145.153 112.375 145.157 96.9476ZM152.927 159.456L167.355 154.21L178.96 177.419H137.097V198.323C135.831 197.871 134.484 197.581 133.065 197.581H129.036V193.565C129.036 178.359 138.637 164.653 152.927 159.456ZM161.29 185.484H169.355V209.677H161.29V185.484ZM133.065 229.839H129.032C124.585 229.839 120.968 226.222 120.968 221.774V213.71C120.968 209.262 124.585 205.645 129.032 205.645H133.065C135.29 205.645 137.097 207.452 137.097 209.677V213.71H129.032V221.774H137.097V225.806C137.097 228.032 135.29 229.839 133.065 229.839ZM217.742 241.935H145.161V225.806V209.677V185.484H153.226V217.742H177.419V185.484H217.742V209.677V225.806V241.935ZM241.935 221.774C241.935 226.222 238.319 229.839 233.871 229.839H229.839C227.613 229.839 225.806 228.032 225.806 225.806V221.774H233.871V213.71H225.806V209.677C225.806 207.452 227.613 205.645 229.839 205.645H233.871C238.319 205.645 241.935 209.262 241.935 213.71V221.774Z" fill="black"/>
<path d="M209.677 193.548H185.484V201.613H209.677V193.548Z" fill="black"/>
<path d="M209.677 209.677H185.484V217.742H209.677V209.677Z" fill="black"/>
<path d="M181.452 129.032C187.964 129.032 193.819 125.415 196.73 119.589L197.153 118.738L189.94 115.129L189.516 115.984C187.98 119.056 184.891 120.968 181.452 120.968C178.012 120.968 174.923 119.056 173.387 115.984L172.964 115.133L165.75 118.742L166.173 119.593C169.085 125.415 174.94 129.032 181.452 129.032Z" fill="black"/>
<path d="M179.222 112.48L183.677 110.25C185.605 109.286 187.04 107.633 187.722 105.589C188.403 103.544 188.25 101.355 187.286 99.4315L185.484 95.8226V88.7097H177.419V96.7742C177.419 97.3992 177.565 98.0202 177.843 98.5766L180.073 103.032L175.617 105.262L179.222 112.48Z" fill="black"/>
<path d="M64.5162 15.3145L14.9073 48.3871H32.2581V80.6452H96.7742V48.3871H114.125L64.5162 15.3145ZM64.5162 25.0081L87.4879 40.3226H41.5444L64.5162 25.0081ZM72.5807 72.5806H56.4516V64.5161H72.5807V72.5806ZM88.7097 72.5806H80.6452V56.4516H48.3871V72.5806H40.3226V48.3871H88.7097V72.5806Z" fill="black"/>
<path d="M40.3226 88.7097H32.2581V96.7742H40.3226V88.7097Z" fill="black"/>
<path d="M40.3226 104.839H32.2581V112.903H40.3226V104.839Z" fill="black"/>
<path d="M96.7742 88.7097H48.3871V96.7742H96.7742V88.7097Z" fill="black"/>
<path d="M96.7742 104.839H48.3871V112.903H96.7742V104.839Z" fill="black"/>
<path d="M68.5484 161.29C61.879 161.29 56.4516 166.718 56.4516 173.387C56.4516 180.056 61.879 185.484 68.5484 185.484C75.2177 185.484 80.6452 180.056 80.6452 173.387C80.6452 166.718 75.2177 161.29 68.5484 161.29ZM68.5484 177.419C66.3226 177.419 64.5161 175.613 64.5161 173.387C64.5161 171.161 66.3226 169.355 68.5484 169.355C70.7742 169.355 72.5806 171.161 72.5806 173.387C72.5806 175.613 70.7742 177.419 68.5484 177.419Z" fill="black"/>
<path d="M100.806 161.29C94.1371 161.29 88.7097 166.718 88.7097 173.387C88.7097 180.056 94.1371 185.484 100.806 185.484C107.476 185.484 112.903 180.056 112.903 173.387C112.903 166.718 107.476 161.29 100.806 161.29ZM100.806 177.419C98.5806 177.419 96.7742 175.613 96.7742 173.387C96.7742 171.161 98.5806 169.355 100.806 169.355C103.032 169.355 104.839 171.161 104.839 173.387C104.839 175.613 103.032 177.419 100.806 177.419Z" fill="black"/>
<path d="M36.2903 161.29C29.621 161.29 24.1935 166.718 24.1935 173.387C24.1935 180.056 29.621 185.484 36.2903 185.484C42.9597 185.484 48.3871 180.056 48.3871 173.387C48.3871 166.718 42.9597 161.29 36.2903 161.29ZM36.2903 177.419C34.0645 177.419 32.2581 175.613 32.2581 173.387C32.2581 171.161 34.0645 169.355 36.2903 169.355C38.5161 169.355 40.3226 171.161 40.3226 173.387C40.3226 175.613 38.5161 177.419 36.2903 177.419Z" fill="black"/>
</svg>
