<svg width="110" height="110" viewBox="0 0 110 110" fill="none" xmlns="http://www.w3.org/2000/svg">
<path d="M55 110C85.3757 110 110 85.3757 110 55C110 24.6243 85.3757 0 55 0C24.6243 0 0 24.6243 0 55C0 85.3757 24.6243 110 55 110Z" fill="url(#paint0_linear_2_3)"/>
<path d="M24.0013 42.5174H20.6362V49.2899H24.0013C25.5164 49.2899 26.5879 49.0242 27.2123 48.4931C27.8372 47.9652 28.1509 47.087 28.1509 45.8586C28.1509 44.6754 27.8313 43.8212 27.1944 43.2994C26.5575 42.7771 25.4924 42.5174 24.0013 42.5174V42.5174ZM24.2215 41.2501C25.0817 41.2501 25.797 41.3074 26.3646 41.422C26.9317 41.5367 27.4147 41.721 27.81 41.9742C28.4105 42.3699 28.8814 42.9131 29.2283 43.6009C29.5726 44.2921 29.7446 45.0466 29.7446 45.8645C29.7446 46.7367 29.5757 47.5216 29.2373 48.2213C28.8964 48.9186 28.4224 49.4679 27.81 49.8695C27.4266 50.1168 26.9498 50.298 26.3766 50.4157C25.806 50.5333 25.0878 50.5936 24.2215 50.5936H19.0793V41.2501H24.2215V41.2501ZM33.7132 50.5936V41.2501H42.7124V42.4995H35.2702V45.107H39.8154V46.3385H35.2702V49.3078H42.7847V50.5936H33.7132V50.5936ZM54.4643 42.5174H47.8552V45.125H53.74C54.5729 45.125 55.1435 45.279 55.4511 45.584C55.759 45.8919 55.913 46.4741 55.913 47.3283V48.3784C55.913 49.2416 55.7621 49.8271 55.46 50.1322C55.1585 50.4397 54.5848 50.5936 53.74 50.5936H48.2868C47.4416 50.5936 46.8649 50.4397 46.5575 50.1288C46.2525 49.8181 46.0985 49.2356 46.0985 48.3784V48.1221L47.5473 47.7868V49.2899H54.5006V46.483H48.6337C47.7855 46.483 47.2123 46.3295 46.9104 46.0185C46.6117 45.7106 46.4608 45.1279 46.4608 44.2713V43.4593C46.4608 42.6052 46.6117 42.0225 46.9104 41.715C47.2123 41.404 47.7855 41.2501 48.6337 41.2501H53.6071C54.4403 41.2501 55.0135 41.401 55.3304 41.7061C55.6474 42.0076 55.8044 42.5389 55.8044 43.2994V43.4953L54.4643 43.8756V42.5174V42.5174ZM60.6362 50.5936V41.2501H62.1931V50.5936H60.6362ZM75.792 42.5174H68.4766V49.2899H75.792V46.5557H72.0076V45.3607H77.3493V48.3814C77.3493 49.2356 77.1953 49.8181 76.8908 50.1288C76.5829 50.4397 76.0033 50.5936 75.1554 50.5936H69.1135C68.2564 50.5936 67.6768 50.4367 67.3752 50.1257C67.0703 49.8122 66.9193 49.2296 66.9193 48.3814V43.4593C66.9193 42.6111 67.0703 42.032 67.3752 41.718C67.6768 41.4071 68.2564 41.2501 69.1135 41.2501H75.1554C75.9943 41.2501 76.5678 41.401 76.8814 41.7061C77.1924 42.0076 77.3493 42.5568 77.3493 43.3537V43.583L75.792 43.894V42.5174V42.5174ZM81.8372 50.5936V41.2501H82.818L89.8073 47.5002C89.9673 47.6422 90.1363 47.8112 90.3177 48.0136C90.4956 48.2124 90.6795 48.4327 90.8699 48.6743C90.8215 48.3754 90.7882 48.0614 90.7642 47.7325C90.7399 47.4066 90.7279 46.954 90.7279 46.3774V41.2501H92.1582V50.5936H91.283L84.1064 44.0962C84.0734 44.0659 84.0191 44.0206 83.9495 43.9542C83.5935 43.6373 83.3309 43.3323 83.162 43.0457C83.1983 43.3264 83.2222 43.6283 83.2402 43.9513C83.2585 44.2713 83.2676 44.6514 83.2676 45.086V50.5936H81.8372ZM30.1702 61.7009V61.5199H26.5515V61.7009H26.8355C27.4027 61.7009 27.7624 62.0332 28.0032 62.5247C28.4947 63.5264 28.4682 64.8003 27.9943 65.8778C26.4672 64.6133 25.465 63.677 24.7075 62.9986C22.8434 61.3296 21.8348 60.1738 21.8348 58.6557C21.8348 57.177 22.8426 56.0876 24.225 56.0876C25.767 56.0876 26.7992 57.1531 26.7992 58.8854H26.9801L27.2941 56.8361C26.6572 56.0576 25.4346 55.5503 24.228 55.5444C22.0012 55.5333 20.5854 56.8814 20.5854 58.6557C20.5854 59.5882 20.8206 60.3458 21.2701 61.0733C20.0117 61.7099 19.0793 62.7724 19.0793 64.4201C19.0793 67.1212 21.0803 68.6632 24.6233 68.6632C26.0357 68.6632 27.1675 68.1927 27.9699 67.4078C29.5003 68.6243 31.166 68.4823 31.8692 68.4823V68.3013C30.7195 68.2136 29.6663 67.3111 28.6915 66.4694C29.31 65.3888 29.511 64.0008 29.2258 62.5187C29.1316 62.0306 29.3644 61.7009 29.8956 61.7009H30.1702V61.7009ZM24.6233 68.114C21.922 68.114 20.401 66.6019 20.401 64.4201C20.401 63.3126 20.7299 62.2834 21.5661 61.5109C22.1213 62.2594 22.8999 63.0025 23.8717 63.8951C24.8217 64.7673 25.8303 65.6425 27.3484 66.8979C26.7115 67.6251 25.794 68.114 24.6233 68.114V68.114ZM35.9519 57.6317L35.955 57.8131H36.2056C36.8002 57.8131 37.2558 58.2276 37.2558 58.7696V67.3527C37.2558 67.8861 36.7929 68.3155 36.2056 68.3155H35.955L35.9519 68.4964H39.7153L39.7123 68.3155H39.462C38.8718 68.3155 38.4115 67.8843 38.4115 67.3436V58.1749H40.1653C41.9365 58.1749 43.0218 59.075 43.02 60.5472C43.02 60.8574 42.981 61.2723 42.8934 61.5251C41.9896 64.1202 39.1087 63.3567 39.1087 63.3567V63.5291C41.5682 64.7241 44.3144 63.4888 44.3207 60.7281C44.325 58.8063 42.7112 57.6317 40.1862 57.6317H35.9519V57.6317ZM47.3295 57.6317L47.3325 57.8131H47.5772C48.1534 57.8131 48.6063 58.2182 48.6063 58.7545V67.3586C48.6063 67.889 48.1491 68.3155 47.5772 68.3155H47.3325L47.3295 68.4964H51.0325L51.0295 68.3155H50.7852C50.204 68.3155 49.7561 67.8779 49.7561 67.3346V58.1964C49.928 58.2054 50.8224 58.16 51.8384 58.2113C53.2956 58.2854 54.2081 59.0844 54.2469 60.4386C54.258 60.8364 54.2059 61.2175 54.1199 61.4707C53.6007 62.9939 52.4594 63.0038 51.4581 63.0277C50.867 63.0419 50.4199 63.0371 50.4199 63.0371V63.2031C51.1351 63.2031 51.7639 63.81 52.2549 64.4222C52.3965 64.5993 53.8256 66.6583 54.0297 66.9031C54.5968 67.5835 55.3877 68.4964 57.3913 68.4964H57.962V68.3155C56.9567 68.3065 56.4495 67.7654 55.7132 66.9389C54.966 66.1006 54.1259 64.9653 54.1289 64.9653C53.7397 64.4162 53.1301 63.725 52.7349 63.547C54.3586 63.384 55.5503 62.1013 55.5503 60.5652C55.5503 58.7366 54.149 57.6317 51.8687 57.6317H47.3295V57.6317ZM64.1458 68.4964L64.1398 68.3155H63.8981C63.2356 68.3155 62.6701 67.8873 62.6701 67.3496V58.7606C62.6701 58.2315 63.2403 57.8131 63.8981 57.8131H64.1427V57.6317H60.0412L60.0441 57.8131H60.2858C60.9587 57.8131 61.5168 58.2519 61.5168 58.7939V67.3346C61.5168 67.8766 60.9574 68.3155 60.2858 68.3155H60.0441L60.0412 68.4964H64.1458V68.4964ZM76.5405 57.6317L76.5435 57.8131H76.845C77.3793 57.8131 77.8502 58.2118 77.8502 58.7182V66.2268L68.4553 57.3691L68.2594 57.3602C68.2594 57.3602 68.4343 58.3875 68.4343 59.6237V67.3706C68.4343 67.8915 67.974 68.3155 67.4261 68.3155H67.1246L67.1215 68.4964H70.544V68.3155H70.2419C69.691 68.3155 69.2342 67.8929 69.2342 67.3706V59.8137L78.6501 68.7501H78.822C78.822 68.7501 78.6501 67.6063 78.6501 66.4411V58.7182C78.6501 58.2131 79.1206 57.8131 79.6579 57.8131H79.9599V57.6317H76.5405V57.6317ZM84.239 57.6138C83.5294 57.6138 82.5369 57.4538 82.223 57.3302V59.3671H82.4164V59.0865C82.4164 58.5796 82.7722 58.157 83.3215 58.157H86.6022V67.3346C86.6022 67.8766 86.1181 68.3155 85.5368 68.3155H85.3284L85.3254 68.4964H89.0558L89.0528 68.3155H88.8445C88.2721 68.3155 87.782 67.8903 87.782 67.3556V58.157H91.0593C91.609 58.157 91.9648 58.5809 91.9648 59.0865V59.3671H92.1582V57.3302C91.8443 57.4538 90.8532 57.6138 90.1363 57.6138H84.239V57.6138Z" fill="#79AD9F" fill-opacity="0.301961"/>
<path d="M19.5197 41.0195H15.7509V48.6047H19.5197C21.2166 48.6047 22.4167 48.3072 23.1161 47.7122C23.816 47.121 24.1672 46.1375 24.1672 44.7616C24.1672 43.4365 23.8093 42.4798 23.0959 41.8953C22.3827 41.3104 21.1897 41.0195 19.5197 41.0195ZM19.7664 39.6001C20.7298 39.6001 21.5308 39.6642 22.1665 39.7926C22.8018 39.9211 23.3427 40.1276 23.7854 40.4111C24.4579 40.8543 24.9854 41.4627 25.3739 42.2331C25.7596 43.0072 25.9522 43.8523 25.9522 44.7682C25.9522 45.7451 25.763 46.6243 25.384 47.408C25.0022 48.1889 24.4714 48.804 23.7854 49.2538C23.3561 49.5308 22.8219 49.7339 22.1799 49.8656C21.5408 49.9973 20.7365 50.0649 19.7664 50.0649H14.0071V39.6001H19.7664V39.6001ZM30.3971 50.0649V39.6001H40.4763V40.9994H32.1409V43.9198H37.2315V45.2991H32.1409V48.6248H40.5572V50.0649H30.3971V50.0649ZM53.6382 41.0195H46.2361V43.9399H52.8272C53.76 43.9399 54.3989 44.1124 54.7435 44.454C55.0884 44.7989 55.2608 45.451 55.2608 46.4077V47.5838C55.2608 48.5506 55.0917 49.2064 54.7535 49.5479C54.4158 49.8925 53.7733 50.0649 52.8272 50.0649H46.7195C45.7729 50.0649 45.127 49.8925 44.7825 49.5441C44.441 49.1964 44.2685 48.5439 44.2685 47.5838V47.2968L45.8911 46.9213V48.6047H53.679V45.461H47.108C46.158 45.461 45.516 45.2891 45.1779 44.9407C44.8435 44.5959 44.6743 43.9433 44.6743 42.9837V42.0744C44.6743 41.1178 44.8435 40.4653 45.1779 40.1209C45.516 39.7725 46.158 39.6001 47.108 39.6001H52.6782C53.6113 39.6001 54.2533 39.7692 54.6084 40.1107C54.9634 40.4485 55.1391 41.0435 55.1391 41.8953V42.1147L53.6382 42.5406V41.0195V41.0195ZM60.5507 50.0649V39.6001H62.2945V50.0649H60.5507ZM77.5252 41.0195H69.3321V48.6047H77.5252V45.5424H73.2868V44.2039H79.2695V47.5871C79.2695 48.5439 79.097 49.1964 78.7559 49.5441C78.4111 49.8925 77.7618 50.0649 76.8123 50.0649H70.0455C69.0854 50.0649 68.4363 49.8891 68.0986 49.5408C67.7569 49.1897 67.5878 48.5372 67.5878 47.5871V42.0744C67.5878 41.1245 67.7569 40.4758 68.0986 40.1241C68.4363 39.7759 69.0854 39.6001 70.0455 39.6001H76.8123C77.7518 39.6001 78.3942 39.7692 78.7455 40.1107C79.0937 40.4485 79.2695 41.0637 79.2695 41.9561V42.2129L77.5252 42.5612V41.0195V41.0195ZM84.2959 50.0649V39.6001H85.3944L93.2224 46.6003C93.4016 46.7594 93.5908 46.9485 93.794 47.1751C93.9933 47.3979 94.1993 47.6446 94.4125 47.9153C94.3583 47.5804 94.321 47.2288 94.2942 46.8604C94.2669 46.4953 94.2535 45.9885 94.2535 45.3427V39.6001H95.8554V50.0649H94.8753L86.8374 42.7878C86.8005 42.7538 86.7397 42.703 86.6616 42.6287C86.263 42.2738 85.9688 41.9322 85.7796 41.6112C85.8203 41.9255 85.8472 42.2638 85.8673 42.6254C85.8879 42.9837 85.898 43.4096 85.898 43.8964V50.0649H84.2959V50.0649ZM26.4289 62.505V62.3023H22.376V62.505H22.694C23.3292 62.505 23.7322 62.8772 24.0019 63.4276C24.5523 64.5496 24.5226 65.9764 23.9919 67.1831C22.2816 65.767 21.159 64.7183 20.3106 63.9585C18.2228 62.0892 17.0932 60.7947 17.0932 59.0944C17.0932 57.4383 18.2219 56.2181 19.7703 56.2181C21.4973 56.2181 22.6533 57.4115 22.6533 59.3517H22.8559L23.2076 57.0564C22.4942 56.1846 21.125 55.6164 19.7736 55.6097C17.2796 55.5972 15.6938 57.1073 15.6938 59.0944C15.6938 60.1389 15.9574 60.9873 16.4608 61.8022C15.0514 62.515 14.0071 63.7051 14.0071 65.5504C14.0071 68.5758 16.2481 70.3029 20.2162 70.3029C21.7981 70.3029 23.0658 69.7758 23.9645 68.8967C25.6786 70.2592 27.5441 70.1001 28.3317 70.1001V69.8975C27.044 69.7993 25.8645 68.7885 24.7728 67.8457C25.4654 66.6355 25.6906 65.081 25.371 63.4209C25.2657 62.8744 25.5263 62.505 26.1212 62.505H26.4289V62.505ZM20.2162 69.6876C17.1909 69.6876 15.4873 67.9942 15.4873 65.5504C15.4873 64.3101 15.8557 63.1575 16.7924 62.2922C17.4142 63.1306 18.2861 63.9628 19.3745 64.9626C20.4385 65.9394 21.5682 66.9196 23.2684 68.3257C22.5551 69.14 21.5274 69.6876 20.2162 69.6876ZM32.9045 57.9476L32.9078 58.1507H33.1885C33.8545 58.1507 34.3646 58.6149 34.3646 59.2219V68.8349C34.3646 69.4323 33.8463 69.9133 33.1885 69.9133H32.9078L32.9045 70.116H37.1194L37.116 69.9133H36.8357C36.1746 69.9133 35.6591 69.4305 35.6591 68.8249V58.556H37.6233C39.6071 58.556 40.8225 59.5639 40.8207 61.2129C40.8207 61.5603 40.7771 62.0249 40.6789 62.3081C39.6665 65.2146 36.44 64.3594 36.44 64.3594V64.5525C39.1946 65.8911 42.2704 64.5075 42.2775 61.4155C42.2823 59.263 40.4748 57.9476 37.6468 57.9476H32.9045V57.9476ZM45.6473 57.9476L45.6506 58.1507H45.9247C46.57 58.1507 47.0773 58.6044 47.0773 59.2051V68.8416C47.0773 69.4357 46.5652 69.9133 45.9247 69.9133H45.6506L45.6473 70.116H49.7947L49.7913 69.9133H49.5177C48.8667 69.9133 48.3651 69.4232 48.3651 68.8148V58.5799C48.5576 58.5899 49.5594 58.5393 50.6972 58.5967C52.3294 58.6796 53.3513 59.5745 53.3949 61.0912C53.4073 61.5367 53.3489 61.9637 53.2525 62.2472C52.671 63.9532 51.3929 63.9642 50.2713 63.9911C49.6092 64.0069 49.1086 64.0016 49.1086 64.0016V64.1874C49.9096 64.1874 50.6138 64.8672 51.1638 65.5528C51.3224 65.7512 52.923 68.0574 53.1514 68.3314C53.7867 69.0936 54.6725 70.116 56.9165 70.116H57.5556V69.9133C56.4298 69.9032 55.8616 69.2972 55.0371 68.3717C54.2002 67.4327 53.2592 66.1613 53.2626 66.1613C52.8267 65.5461 52.1439 64.772 51.7013 64.5726C53.5199 64.3901 54.8546 62.9533 54.8546 61.233C54.8546 59.1849 53.2852 57.9476 50.7312 57.9476H45.6473ZM64.4815 70.116L64.4748 69.9133H64.2041C63.4621 69.9133 62.8287 69.4338 62.8287 68.8316V59.2118C62.8287 58.6192 63.4673 58.1507 64.2041 58.1507H64.4781V57.9476H59.8843L59.8877 58.1507H60.1584C60.9119 58.1507 61.5372 58.6422 61.5372 59.2492V68.8148C61.5372 69.4218 60.9105 69.9133 60.1584 69.9133H59.8877L59.8843 70.116H64.4815V70.116ZM78.3635 57.9476L78.367 58.1507H78.7047C79.3031 58.1507 79.8305 58.5972 79.8305 59.1644V67.574L69.3081 57.6534L69.0888 57.6433C69.0888 57.6433 69.2847 58.7941 69.2847 60.1786V68.8551C69.2847 69.4386 68.7692 69.9133 68.1555 69.9133H67.8177L67.8144 70.116H71.6475V69.9133H71.3092C70.6923 69.9133 70.1805 69.44 70.1805 68.8551V60.3913L80.7263 70.4001H80.919C80.919 70.4001 80.7263 69.119 80.7263 67.814V59.1644C80.7263 58.5986 81.2534 58.1507 81.8551 58.1507H82.1933V57.9476H78.3635V57.9476ZM86.9859 57.9274C86.1911 57.9274 85.0797 57.7482 84.728 57.6098V59.8911H84.9446V59.5769C84.9446 59.0092 85.3432 58.5358 85.9583 58.5358H89.6328V68.8148C89.6328 69.4218 89.0905 69.9133 88.4394 69.9133H88.2061L88.2027 70.116H92.3807L92.3774 69.9133H92.1441C91.503 69.9133 90.954 69.4372 90.954 68.8383V58.5358H94.6247C95.2403 58.5358 95.6389 59.0106 95.6389 59.5769V59.8911H95.8554V57.6098C95.5039 57.7482 94.3938 57.9274 93.5908 57.9274H86.9859V57.9274Z" fill="url(#paint1_linear_2_3)"/>
<path d="M55 108.625C84.6163 108.625 108.625 84.6163 108.625 55C108.625 25.3837 84.6163 1.375 55 1.375C25.3837 1.375 1.375 25.3837 1.375 55C1.375 84.6163 25.3837 108.625 55 108.625Z" stroke="#393185" stroke-width="0.25" stroke-miterlimit="22.9256"/>
<path d="M55 108.212C84.3885 108.212 108.213 84.3884 108.213 55C108.213 25.6115 84.3885 1.7875 55 1.7875C25.6116 1.7875 1.78751 25.6115 1.78751 55C1.78751 84.3884 25.6116 108.212 55 108.212Z" stroke="#FEFEFE" stroke-width="0.25" stroke-miterlimit="22.9256"/>
<path d="M55 107.8C84.1606 107.8 107.8 84.1606 107.8 55C107.8 25.8394 84.1606 2.2 55 2.2C25.8394 2.2 2.2 25.8394 2.2 55C2.2 84.1606 25.8394 107.8 55 107.8Z" stroke="#C62223" stroke-width="0.25" stroke-miterlimit="22.9256"/>
<defs>
<linearGradient id="paint0_linear_2_3" x1="0" y1="55" x2="110" y2="55" gradientUnits="userSpaceOnUse">
<stop stop-color="#DBEDE7"/>
<stop offset="0.478431" stop-color="#EBEDED"/>
<stop offset="1" stop-color="#FCECF4"/>
</linearGradient>
<linearGradient id="paint1_linear_2_3" x1="14.0071" y1="54.9998" x2="95.8554" y2="54.9998" gradientUnits="userSpaceOnUse">
<stop stop-color="#41B5A0"/>
<stop offset="1" stop-color="#EC6963"/>
</linearGradient>
</defs>
</svg>
