<svg width="1200" height="1200" viewBox="0 0 1200 1200" fill="none" xmlns="http://www.w3.org/2000/svg">
<g opacity="0.3">
<path d="M600 1200C931.371 1200 1200 931.371 1200 600C1200 268.629 931.371 0 600 0C268.629 0 0 268.629 0 600C0 931.371 268.629 1200 600 1200Z" fill="url(#paint0_linear_2_3)"/>
<path d="M261.833 463.826H225.122V537.708H261.833C278.36 537.708 290.049 534.81 296.862 529.015C303.679 523.256 307.1 513.677 307.1 500.275C307.1 487.368 303.614 478.05 296.666 472.357C289.718 466.659 278.099 463.826 261.833 463.826V463.826ZM264.235 450.001C273.619 450.001 281.421 450.626 287.613 451.877C293.801 453.127 299.07 455.138 303.381 457.901C309.932 462.217 315.069 468.143 318.854 475.646C322.61 483.187 324.487 491.418 324.487 500.34C324.487 509.855 322.644 518.418 318.953 526.051C315.234 533.658 310.063 539.649 303.381 544.031C299.199 546.728 293.997 548.706 287.744 549.99C281.52 551.273 273.685 551.93 264.235 551.93H208.137V450.001H264.235V450.001ZM367.781 551.93V450.001H465.954V463.631H384.765V492.077H434.349V505.511H384.765V537.903H466.742V551.93H367.781V551.93ZM594.156 463.826H522.056V492.272H586.255C595.34 492.272 601.566 493.952 604.921 497.28C608.28 500.639 609.96 506.99 609.96 516.308V527.765C609.96 537.181 608.313 543.569 605.018 546.896C601.729 550.251 595.471 551.93 586.255 551.93H526.765C517.544 551.93 511.254 550.251 507.9 546.859C504.572 543.47 502.892 537.115 502.892 527.765V524.969L518.697 521.311V537.708H594.552V507.087H530.55C521.297 507.087 515.043 505.412 511.749 502.02C508.491 498.661 506.845 492.305 506.845 482.959V474.102C506.845 464.784 508.491 458.427 511.749 455.072C515.043 451.68 521.297 450.001 530.55 450.001H584.804C593.894 450.001 600.147 451.647 603.605 454.975C607.063 458.264 608.775 464.06 608.775 472.357V474.494L594.156 478.643V463.826V463.826ZM661.485 551.93V450.001H678.47V551.93H661.485ZM826.821 463.826H747.018V537.708H826.821V507.881H785.538V494.844H843.811V527.797C843.811 537.115 842.131 543.47 838.808 546.859C835.449 550.251 829.127 551.93 819.877 551.93H753.966C744.615 551.93 738.292 550.218 735.002 546.825C731.676 543.405 730.028 537.05 730.028 527.797V474.102C730.028 464.849 731.676 458.531 735.002 455.106C738.292 451.713 744.615 450.001 753.966 450.001H819.877C829.028 450.001 835.285 451.647 838.706 454.975C842.099 458.264 843.811 464.256 843.811 472.95V475.451L826.821 478.843V463.826V463.826ZM892.77 551.93V450.001H903.469L979.716 518.184C981.462 519.733 983.305 521.576 985.284 523.784C987.224 525.954 989.23 528.356 991.308 530.993C990.78 527.731 990.416 524.306 990.155 520.718C989.889 517.163 989.759 512.226 989.759 505.935V450.001H1005.36V551.93H995.815L917.525 481.05C917.165 480.719 916.572 480.224 915.812 479.501C911.929 476.043 909.065 472.716 907.221 469.59C907.617 472.651 907.879 475.945 908.075 479.468C908.275 482.959 908.373 487.106 908.373 491.847V551.93H892.77ZM329.13 673.1V671.126H289.652V673.1H292.751C298.939 673.1 302.863 676.725 305.49 682.087C310.851 693.015 310.562 706.913 305.393 718.667C288.733 704.873 277.8 694.658 269.536 687.258C249.2 669.05 238.197 656.442 238.197 639.881C238.197 623.749 249.192 611.864 264.272 611.864C281.095 611.864 292.355 623.489 292.355 642.386H294.329L297.753 620.03C290.805 611.538 277.469 606.003 264.306 605.939C240.013 605.817 224.568 620.525 224.568 639.881C224.568 650.053 227.133 658.318 232.038 666.254C218.31 673.199 208.137 684.79 208.137 702.764C208.137 732.231 229.967 749.053 268.617 749.053C284.025 749.053 296.372 743.921 305.126 735.357C321.822 748.628 339.992 747.079 347.664 747.079V745.105C335.121 744.149 323.633 734.303 312.998 725.12C319.746 713.333 321.938 698.191 318.826 682.022C317.799 676.698 320.339 673.1 326.133 673.1H329.13V673.1ZM268.617 743.061C239.149 743.061 222.556 726.566 222.556 702.764C222.556 690.683 226.145 679.455 235.267 671.028C241.323 679.194 249.817 687.3 260.419 697.038C270.782 706.553 281.785 716.1 298.346 729.795C291.398 737.729 281.389 743.061 268.617 743.061V743.061ZM392.203 628.71L392.236 630.689H394.97C401.456 630.689 406.426 635.21 406.426 641.123V734.756C406.426 740.575 401.377 745.26 394.97 745.26H392.236L392.203 747.234H433.257L433.225 745.26H430.495C424.056 745.26 419.035 740.556 419.035 734.658V634.635H438.166C457.489 634.635 469.328 644.454 469.309 660.515C469.309 663.899 468.884 668.425 467.928 671.183C458.068 699.493 426.641 691.164 426.641 691.164V693.044C453.471 706.081 483.429 692.605 483.499 662.489C483.546 641.523 465.941 628.71 438.395 628.71H392.203V628.71ZM516.321 628.71L516.355 630.689H519.024C525.309 630.689 530.251 635.107 530.251 640.958V734.821C530.251 740.607 525.263 745.26 519.024 745.26H516.355L516.321 747.234H556.718L556.686 745.26H554.021C547.68 745.26 542.793 740.486 542.793 734.559V634.869C544.669 634.968 554.426 634.472 565.509 635.033C581.407 635.84 591.361 644.557 591.785 659.33C591.906 663.669 591.337 667.827 590.399 670.59C584.735 687.206 572.285 687.314 561.361 687.575C554.912 687.729 550.035 687.678 550.035 687.678V689.489C557.838 689.489 564.697 696.109 570.054 702.787C571.598 704.719 587.189 727.182 589.415 729.852C595.602 737.275 604.23 747.234 626.087 747.234H632.312V745.26C621.345 745.161 615.812 739.258 607.781 730.243C599.629 721.098 590.464 708.713 590.497 708.713C586.251 702.722 579.601 695.181 575.289 693.24C593.003 691.461 606.003 677.468 606.003 660.711C606.003 640.763 590.717 628.71 565.841 628.71H516.321V628.71ZM699.772 747.234L699.707 745.26H697.07C689.843 745.26 683.673 740.588 683.673 734.723V641.024C683.673 635.252 689.894 630.689 697.07 630.689H699.739V628.71H654.995L655.027 630.689H657.663C665.004 630.689 671.092 635.475 671.092 641.388V734.559C671.092 740.472 664.989 745.26 657.663 745.26H655.027L654.995 747.234H699.772V747.234ZM834.987 628.71L835.02 630.689H838.309C844.137 630.689 849.275 635.037 849.275 640.562V722.474L746.785 625.844L744.648 625.747C744.648 625.747 746.556 636.955 746.556 650.441V734.952C746.556 740.635 741.535 745.26 735.558 745.26H732.269L732.235 747.234H769.571V745.26H766.275C760.266 745.26 755.282 740.649 755.282 734.952V652.513L858.001 750.001H859.877C859.877 750.001 858.001 737.523 858.001 724.812V640.562C858.001 635.052 863.133 630.689 868.995 630.689H872.289V628.71H834.987V628.71ZM918.971 628.514C911.229 628.514 900.403 626.768 896.978 625.421V647.641H899.088V644.58C899.088 639.05 902.97 634.44 908.961 634.44H944.751V734.559C944.751 740.472 939.47 745.26 933.128 745.26H930.855L930.823 747.234H971.517L971.485 745.26H969.212C962.969 745.26 957.621 740.622 957.621 734.789V634.44H993.374C999.371 634.44 1003.25 639.065 1003.25 644.58V647.641H1005.36V625.421C1001.94 626.768 991.125 628.514 983.305 628.514H918.971V628.514Z" fill="#79AD9F" fill-opacity="0.301961"/>
<path d="M212.942 447.486H171.828V530.233H212.942C231.453 530.233 244.545 526.987 252.175 520.496C259.811 514.047 263.642 503.318 263.642 488.309C263.642 473.852 259.737 463.416 251.955 457.039C244.175 450.659 231.161 447.486 212.942 447.486ZM215.634 432.001C226.143 432.001 234.882 432.701 241.817 434.101C248.747 435.503 254.647 437.755 259.477 440.849C266.814 445.684 272.568 452.321 276.806 460.724C281.013 469.17 283.115 478.388 283.115 488.381C283.115 499.038 281.051 508.628 276.917 517.178C272.751 525.697 266.96 532.408 259.477 537.314C254.793 540.336 248.966 542.551 241.963 543.989C234.991 545.425 226.217 546.163 215.634 546.163H152.804V432.001H215.634V432.001ZM331.604 546.163V432.001H441.559V447.266H350.628V479.125H406.161V494.172H350.628V530.453H442.442V546.163H331.604V546.163ZM585.144 447.486H504.393V479.345H576.296C586.472 479.345 593.443 481.226 597.201 484.952C600.965 488.716 602.845 495.829 602.845 506.265V519.096C602.845 529.643 601.001 536.797 597.311 540.523C593.627 544.281 586.617 546.163 576.296 546.163H509.667C499.34 546.163 492.295 544.281 488.537 540.481C484.811 536.688 482.929 529.569 482.929 519.096V515.965L500.63 511.868V530.233H585.589V495.938H513.906C503.541 495.938 496.538 494.063 492.849 490.262C489.201 486.5 487.356 479.382 487.356 468.913V458.994C487.356 448.558 489.201 441.439 492.849 437.682C496.538 433.882 503.541 432.001 513.906 432.001H574.671C584.851 432.001 591.854 433.845 595.728 437.571C599.6 441.257 601.518 447.748 601.518 457.039V459.433L585.144 464.08V447.486V447.486ZM660.553 546.163V432.001H679.577V546.163H660.553ZM845.73 447.486H756.35V530.233H845.73V496.826H799.493V482.225H864.758V519.132C864.758 529.57 862.877 536.688 859.155 540.481C855.393 544.281 848.311 546.163 837.953 546.163H764.132C753.659 546.163 746.577 544.244 742.893 540.445C739.166 536.615 737.322 529.496 737.322 519.132V458.994C737.322 448.631 739.166 441.554 742.893 437.718C746.577 433.919 753.659 432.001 764.132 432.001H837.953C848.202 432.001 855.21 433.845 859.041 437.571C862.841 441.257 864.758 447.967 864.758 457.703V460.505L845.73 464.304V447.486V447.486ZM919.592 546.163V432.001H931.575L1016.97 508.367C1018.93 510.102 1020.99 512.166 1023.21 514.638C1025.38 517.068 1027.63 519.76 1029.95 522.713C1029.36 519.059 1028.96 515.223 1028.66 511.205C1028.37 507.222 1028.22 501.692 1028.22 494.647V432.001H1045.7V546.163H1035L947.317 466.776C946.915 466.405 946.251 465.851 945.399 465.041C941.051 461.168 937.842 457.442 935.778 453.941C936.222 457.369 936.515 461.059 936.734 465.005C936.959 468.913 937.069 473.56 937.069 478.87V546.163H919.592V546.163ZM288.315 681.872V679.662H244.101V681.872H247.571C254.501 681.872 258.896 685.933 261.839 691.938C267.843 704.178 267.519 719.742 261.729 732.906C243.072 717.458 230.826 706.017 221.57 697.729C198.794 677.336 186.471 663.215 186.471 644.666C186.471 626.599 198.785 613.289 215.676 613.289C234.516 613.289 247.127 626.307 247.127 647.473H249.337L253.173 622.434C245.391 612.923 230.455 606.725 215.712 606.651C188.504 606.515 171.205 622.988 171.205 644.666C171.205 656.06 174.08 665.316 179.573 674.206C164.197 681.982 152.804 694.964 152.804 715.096C152.804 748.099 177.252 766.94 220.541 766.94C237.798 766.94 251.627 761.191 261.431 751.601C280.13 766.464 300.481 764.729 309.073 764.729V762.518C295.026 761.447 282.158 750.42 270.248 740.135C277.805 726.932 280.261 709.974 276.775 691.865C275.625 685.902 278.468 681.872 284.959 681.872H288.315V681.872ZM220.541 760.229C187.537 760.229 168.953 741.755 168.953 715.096C168.953 701.564 172.971 688.991 183.189 679.551C189.973 688.698 199.484 697.776 211.358 708.683C222.966 719.339 235.29 730.032 253.837 745.371C246.055 754.255 234.845 760.229 220.541 760.229ZM358.958 632.155L358.994 634.371H362.057C369.321 634.371 374.887 639.436 374.887 646.057V750.926C374.887 757.444 369.233 762.691 362.057 762.691H358.994L358.958 764.901H404.939L404.901 762.691H401.844C394.632 762.691 389.009 757.423 389.009 750.817V638.792H410.436C432.078 638.792 445.337 649.788 445.316 667.777C445.316 671.567 444.841 676.636 443.769 679.724C432.726 711.432 397.527 702.103 397.527 702.103V704.209C427.578 718.812 461.131 703.718 461.209 669.988C461.262 646.506 441.543 632.155 410.693 632.155H358.958V632.155ZM497.971 632.155L498.007 634.371H500.996C508.037 634.371 513.571 639.32 513.571 645.873V750.999C513.571 757.481 507.984 762.691 500.996 762.691H498.007L497.971 764.901H543.215L543.177 762.691H540.193C533.091 762.691 527.619 757.344 527.619 750.707V639.054C529.719 639.163 540.648 638.61 553.061 639.236C570.866 640.141 582.014 649.903 582.489 666.45C582.625 671.31 581.988 675.967 580.937 679.061C574.592 697.671 560.649 697.792 548.414 698.084C541.191 698.257 535.73 698.199 535.73 698.199V700.226C544.469 700.226 552.151 707.642 558.151 715.122C559.88 717.285 577.341 742.445 579.834 745.434C586.764 753.749 596.427 764.901 620.907 764.901H627.879V762.691C615.597 762.581 609.399 755.97 600.404 745.873C591.275 735.63 581.01 721.759 581.047 721.759C576.291 715.049 568.843 706.603 564.014 704.429C583.854 702.438 598.413 686.764 598.413 667.997C598.413 645.654 581.293 632.155 553.431 632.155H497.971ZM703.435 764.901L703.362 762.691H700.409C692.313 762.691 685.404 757.459 685.404 750.89V645.947C685.404 639.482 692.371 634.371 700.409 634.371H703.398V632.155H653.283L653.321 634.371H656.274C664.494 634.371 671.315 639.733 671.315 646.355V750.707C671.315 757.328 664.478 762.691 656.274 762.691H653.321L653.283 764.901H703.435V764.901ZM854.875 632.155L854.912 634.371H858.596C865.124 634.371 870.878 639.242 870.878 645.429V737.171L756.089 628.946L753.696 628.836C753.696 628.836 755.833 641.39 755.833 656.493V751.146C755.833 757.512 750.21 762.691 743.515 762.691H739.83L739.794 764.901H781.609V762.691H777.919C771.188 762.691 765.606 757.528 765.606 751.146V658.814L880.651 768.001H882.752C882.752 768.001 880.651 754.026 880.651 739.789V645.429C880.651 639.258 886.4 634.371 892.964 634.371H896.654V632.155H854.875V632.155ZM948.937 631.936C940.267 631.936 928.142 629.981 924.306 628.471V653.358H926.669V649.929C926.669 643.736 931.016 638.573 937.727 638.573H977.813V750.707C977.813 757.328 971.897 762.691 964.794 762.691H962.249L962.211 764.901H1007.79L1007.75 762.691H1005.21C998.215 762.691 992.226 757.496 992.226 750.963V638.573H1032.27C1038.98 638.573 1043.33 643.752 1043.33 649.929V653.358H1045.7V628.471C1041.86 629.981 1029.75 631.936 1020.99 631.936H948.937V631.936Z" fill="url(#paint1_linear_2_3)"/>
<path d="M600 1185C923.087 1185 1185 923.087 1185 600C1185 276.913 923.087 15 600 15C276.913 15 15 276.913 15 600C15 923.087 276.913 1185 600 1185Z" stroke="#393185" stroke-width="0.25" stroke-miterlimit="22.9256"/>
<path d="M600 1180.5C920.601 1180.5 1180.5 920.601 1180.5 600C1180.5 279.399 920.601 19.5001 600 19.5001C279.399 19.5001 19.5 279.399 19.5 600C19.5 920.601 279.399 1180.5 600 1180.5Z" stroke="#FEFEFE" stroke-width="0.25" stroke-miterlimit="22.9256"/>
<path d="M600 1176C918.116 1176 1176 918.116 1176 600C1176 281.884 918.116 24.0002 600 24.0002C281.884 24.0002 24.0001 281.884 24.0001 600C24.0001 918.116 281.884 1176 600 1176Z" stroke="#C62223" stroke-width="0.25" stroke-miterlimit="22.9256"/>
</g>
<defs>
<linearGradient id="paint0_linear_2_3" x1="0" y1="600" x2="1200" y2="600" gradientUnits="userSpaceOnUse">
<stop stop-color="#DBEDE7"/>
<stop offset="0.478431" stop-color="#EBEDED"/>
<stop offset="1" stop-color="#FCECF4"/>
</linearGradient>
<linearGradient id="paint1_linear_2_3" x1="152.804" y1="599.997" x2="1045.7" y2="599.997" gradientUnits="userSpaceOnUse">
<stop stop-color="#41B5A0"/>
<stop offset="1" stop-color="#EC6963"/>
</linearGradient>
</defs>
</svg>
