<svg width="90" height="90" viewBox="0 0 90 90" fill="none" xmlns="http://www.w3.org/2000/svg">
<path d="M45 90C69.8528 90 90 69.8528 90 45C90 20.1472 69.8528 0 45 0C20.1472 0 0 20.1472 0 45C0 69.8528 20.1472 90 45 90Z" fill="url(#paint0_linear_2_3)"/>
<path d="M19.6374 34.787H16.8842V40.3281H19.6374C20.877 40.3281 21.7537 40.1107 22.2646 39.6761C22.7759 39.2442 23.0325 38.5258 23.0325 37.5206C23.0325 36.5526 22.7711 35.8537 22.25 35.4268C21.7289 34.9995 20.8574 34.787 19.6374 34.787V34.787ZM19.8176 33.7501C20.5214 33.7501 21.1066 33.797 21.571 33.8908C22.035 33.9845 22.4302 34.1354 22.7536 34.3426C23.2449 34.6663 23.6302 35.1107 23.9141 35.6735C24.1958 36.239 24.3365 36.8563 24.3365 37.5255C24.3365 38.2391 24.1983 38.8813 23.9214 39.4538C23.6425 40.0243 23.2547 40.4737 22.7536 40.8023C22.44 41.0046 22.0498 41.1529 21.5808 41.2492C21.114 41.3455 20.5264 41.3948 19.8176 41.3948H15.6103V33.7501H19.8176V33.7501ZM27.5835 41.3948V33.7501H34.9465V34.7723H28.8574V36.9058H32.5762V37.9133H28.8574V40.3428H35.0057V41.3948H27.5835V41.3948ZM44.5617 34.787H39.1542V36.9204H43.9691C44.6505 36.9204 45.1174 37.0464 45.3691 37.296C45.621 37.5479 45.747 38.0243 45.747 38.7231V39.5824C45.747 40.2886 45.6235 40.7677 45.3764 41.0172C45.1297 41.2689 44.6603 41.3948 43.9691 41.3948H39.5074C38.8158 41.3948 38.344 41.2689 38.0925 41.0144C37.8429 40.7603 37.7169 40.2836 37.7169 39.5824V39.3727L38.9023 39.0983V40.3281H44.5914V38.0316H39.7912C39.0972 38.0316 38.6283 37.9059 38.3812 37.6515C38.1369 37.3996 38.0134 36.9229 38.0134 36.2219V35.5576C38.0134 34.8588 38.1369 34.3821 38.3812 34.1304C38.6283 33.876 39.0972 33.7501 39.7912 33.7501H43.8603C44.5421 33.7501 45.0111 33.8736 45.2703 34.1231C45.5297 34.3698 45.6582 34.8045 45.6582 35.4268V35.5871L44.5617 35.8982V34.787V34.787ZM49.6114 41.3948V33.7501H50.8853V41.3948H49.6114ZM62.0116 34.787H56.0263V40.3281H62.0116V38.0911H58.9153V37.1133H63.2858V39.5848C63.2858 40.2836 63.1598 40.7603 62.9106 41.0144C62.6587 41.2689 62.1845 41.3948 61.4908 41.3948H56.5474C55.8462 41.3948 55.3719 41.2663 55.1252 41.0119C54.8757 40.7554 54.7521 40.2788 54.7521 39.5848V35.5576C54.7521 34.8637 54.8757 34.3898 55.1252 34.1329C55.3719 33.8785 55.8462 33.7501 56.5474 33.7501H61.4908C62.1771 33.7501 62.6464 33.8736 62.903 34.1231C63.1574 34.3698 63.2858 34.8192 63.2858 35.4712V35.6588L62.0116 35.9132V34.787V34.787ZM66.9577 41.3948V33.7501H67.7602L73.4787 38.8638C73.6096 38.98 73.7479 39.1182 73.8963 39.2838C74.0418 39.4465 74.1923 39.6267 74.3481 39.8245C74.3085 39.5798 74.2812 39.323 74.2616 39.0539C74.2417 38.7872 74.2319 38.4169 74.2319 37.9452V33.7501H75.4022V41.3948H74.6861L68.8143 36.0787C68.7873 36.0539 68.7429 36.0168 68.6859 35.9626C68.3947 35.7033 68.1798 35.4537 68.0416 35.2192C68.0713 35.4488 68.0909 35.6959 68.1056 35.9601C68.1206 36.2219 68.128 36.533 68.128 36.8886V41.3948H66.9577ZM24.6847 50.4825V50.3345H21.7239V50.4825H21.9563C22.4204 50.4825 22.7147 50.7544 22.9117 51.1565C23.3139 51.9762 23.2922 53.0185 22.9044 53.9C21.655 52.8655 20.835 52.0994 20.2152 51.5443C18.69 50.1788 17.8648 49.2331 17.8648 47.9911C17.8648 46.7812 18.6894 45.8898 19.8204 45.8898C21.0821 45.8898 21.9266 46.7617 21.9266 48.179H22.0746L22.3315 46.5023C21.8104 45.8653 20.8101 45.4503 19.8229 45.4454C18.001 45.4363 16.8426 46.5394 16.8426 47.9911C16.8426 48.754 17.035 49.3738 17.4028 49.9691C16.3732 50.4899 15.6103 51.3592 15.6103 52.7073C15.6103 54.9174 17.2475 56.179 20.1463 56.179C21.3019 56.179 22.2279 55.7941 22.8845 55.1518C24.1366 56.1471 25.4994 56.0309 26.0748 56.0309V55.8829C25.1341 55.8112 24.2724 55.0727 23.4749 54.384C23.9809 53.5 24.1454 52.3643 23.912 51.1517C23.835 50.7523 24.0254 50.4825 24.46 50.4825H24.6847V50.4825ZM20.1463 55.7296C17.9362 55.7296 16.6917 54.4925 16.6917 52.7073C16.6917 51.8012 16.9609 50.9592 17.645 50.3271C18.0993 50.9395 18.7363 51.5475 19.5314 52.2778C20.3087 52.9915 21.1339 53.7075 22.376 54.7347C21.8549 55.3297 21.1042 55.7296 20.1463 55.7296V55.7296ZM29.4152 47.1532L29.4177 47.3017H29.6228C30.1092 47.3017 30.482 47.6408 30.482 48.0842V55.1067C30.482 55.5431 30.1033 55.8945 29.6228 55.8945H29.4177L29.4152 56.0425H32.4943L32.4919 55.8945H32.2871C31.8042 55.8945 31.4276 55.5417 31.4276 55.0993V47.5977H32.8625C34.3117 47.5977 35.1996 48.3341 35.1982 49.5386C35.1982 49.7924 35.1663 50.1319 35.0946 50.3387C34.3551 52.462 31.998 51.8373 31.998 51.8373V51.9783C34.0104 52.9561 36.2572 51.9454 36.2624 49.6867C36.2659 48.1143 34.9455 47.1532 32.8796 47.1532H29.4152V47.1532ZM38.7241 47.1532L38.7266 47.3017H38.9268C39.3982 47.3017 39.7688 47.633 39.7688 48.0719V55.1116C39.7688 55.5456 39.3947 55.8945 38.9268 55.8945H38.7266L38.7241 56.0425H41.7539L41.7514 55.8945H41.5515C41.076 55.8945 40.7095 55.5365 40.7095 55.092V47.6152C40.8502 47.6226 41.582 47.5854 42.4132 47.6274C43.6055 47.688 44.3521 48.3418 44.3838 49.4498C44.3929 49.7752 44.3503 50.0871 44.2799 50.2942C43.8551 51.5405 42.9213 51.5486 42.1021 51.5681C41.6184 51.5797 41.2527 51.5758 41.2527 51.5758V51.7117C41.8378 51.7117 42.3523 52.2082 42.754 52.709C42.8699 52.8539 44.0391 54.5386 44.2061 54.7389C44.6701 55.2956 45.3172 56.0425 46.9565 56.0425H47.4234V55.8945C46.6009 55.8871 46.1859 55.4444 45.5835 54.7682C44.9722 54.0823 44.2848 53.1534 44.2873 53.1534C43.9689 52.7042 43.4701 52.1386 43.1467 51.993C44.4752 51.8596 45.4503 50.8101 45.4503 49.5534C45.4503 48.0572 44.3037 47.1532 42.438 47.1532H38.7241V47.1532ZM52.4829 56.0425L52.478 55.8945H52.2803C51.7382 55.8945 51.2755 55.5441 51.2755 55.1042V48.0768C51.2755 47.6439 51.7421 47.3017 52.2803 47.3017H52.4804V47.1532H49.1246L49.127 47.3017H49.3248C49.8753 47.3017 50.3319 47.6607 50.3319 48.1041V55.092C50.3319 55.5354 49.8742 55.8945 49.3248 55.8945H49.127L49.1246 56.0425H52.4829V56.0425ZM62.6241 47.1532L62.6265 47.3017H62.8732C63.3103 47.3017 63.6956 47.6278 63.6956 48.0422V54.1856L56.0089 46.9383L55.8486 46.931C55.8486 46.931 55.9917 47.7716 55.9917 48.7831V55.1214C55.9917 55.5476 55.6151 55.8945 55.1668 55.8945H54.9202L54.9176 56.0425H57.7178V55.8945H57.4707C57.0199 55.8945 56.6462 55.5487 56.6462 55.1214V48.9385L64.3501 56.2501H64.4907C64.4907 56.2501 64.3501 55.3143 64.3501 54.3609V48.0422C64.3501 47.6289 64.735 47.3017 65.1747 47.3017H65.4217V47.1532H62.6241V47.1532ZM68.9228 47.1386C68.3422 47.1386 67.5302 47.0076 67.2734 46.9066V48.5731H67.4316V48.3435C67.4316 47.9288 67.7227 47.583 68.1721 47.583H70.8564V55.092C70.8564 55.5354 70.4603 55.8945 69.9846 55.8945H69.8142L69.8117 56.0425H72.8638L72.8614 55.8945H72.6909C72.2226 55.8945 71.8216 55.5466 71.8216 55.1092V47.583H74.5031C74.9528 47.583 75.2439 47.9299 75.2439 48.3435V48.5731H75.4022V46.9066C75.1453 47.0076 74.3344 47.1386 73.7479 47.1386H68.9228V47.1386Z" fill="#79AD9F" fill-opacity="0.301961"/>
<path d="M15.9707 33.5614H12.8871V39.7675H15.9707C17.359 39.7675 18.3409 39.524 18.9131 39.0372C19.4858 38.5536 19.7732 37.7489 19.7732 36.6232C19.7732 35.5389 19.4803 34.7562 18.8967 34.2779C18.3131 33.7994 17.3371 33.5614 15.9707 33.5614ZM16.1725 32.4001C16.9608 32.4001 17.6161 32.4526 18.1362 32.5576C18.656 32.6627 19.0985 32.8316 19.4608 33.0637C20.011 33.4263 20.4426 33.9241 20.7605 34.5543C21.076 35.1877 21.2336 35.8791 21.2336 36.6286C21.2336 37.4278 21.0788 38.1471 20.7687 38.7884C20.4564 39.4273 20.022 39.9306 19.4608 40.2986C19.1095 40.5252 18.6725 40.6913 18.1472 40.7992C17.6243 40.9069 16.9662 40.9622 16.1725 40.9622H11.4603V32.4001H16.1725V32.4001ZM24.8703 40.9622V32.4001H33.1169V33.545H26.2971V35.9344H30.4621V37.0629H26.2971V39.784H33.1832V40.9622H24.8703V40.9622ZM43.8858 33.5614H37.8295V35.9509H43.2222C43.9854 35.9509 44.5082 36.092 44.7901 36.3714C45.0723 36.6537 45.2134 37.1872 45.2134 37.9699V38.9322C45.2134 39.7232 45.075 40.2598 44.7983 40.5392C44.522 40.8211 43.9963 40.9622 43.2222 40.9622H38.2251C37.4505 40.9622 36.9221 40.8211 36.6402 40.5361C36.3608 40.2516 36.2197 39.7177 36.2197 38.9322V38.6974L37.5473 38.3901V39.7675H43.9192V37.1954H38.5429C37.7656 37.1954 37.2404 37.0547 36.9637 36.7697C36.6901 36.4875 36.5517 35.9536 36.5517 35.1685V34.4245C36.5517 33.6418 36.6901 33.1079 36.9637 32.8261C37.2404 32.5411 37.7656 32.4001 38.5429 32.4001H43.1004C43.8638 32.4001 44.3891 32.5384 44.6796 32.8179C44.97 33.0943 45.1138 33.5811 45.1138 34.2779V34.4575L43.8858 34.806V33.5614V33.5614ZM49.5415 40.9622V32.4001H50.9682V40.9622H49.5415ZM63.4297 33.5614H56.7263V39.7675H63.4297V37.262H59.9619V36.1669H64.8569V38.9349C64.8569 39.7177 64.7157 40.2516 64.4367 40.5361C64.1545 40.8211 63.6233 40.9622 62.8464 40.9622H57.3099C56.5244 40.9622 55.9933 40.8183 55.717 40.5334C55.4375 40.2461 55.2991 39.7122 55.2991 38.9349V34.4245C55.2991 33.6473 55.4375 33.1166 55.717 32.8288C55.9933 32.5439 56.5244 32.4001 57.3099 32.4001H62.8464C63.6151 32.4001 64.1407 32.5384 64.4281 32.8179C64.713 33.0943 64.8569 33.5975 64.8569 34.3277V34.5379L63.4297 34.8228V33.5614V33.5614ZM68.9694 40.9622V32.4001H69.8682L76.2729 38.1275C76.4195 38.2576 76.5743 38.4124 76.7405 38.5978C76.9036 38.7801 77.0721 38.982 77.2466 39.2035C77.2023 38.9294 77.1717 38.6418 77.1498 38.3404C77.1275 38.0416 77.1165 37.6269 77.1165 37.0985V32.4001H78.4272V40.9622H77.6253L71.0488 35.0082C71.0186 34.9804 70.9689 34.9388 70.905 34.8781C70.5788 34.5876 70.3381 34.3082 70.1833 34.0456C70.2166 34.3027 70.2386 34.5794 70.2551 34.8754C70.2719 35.1685 70.2802 35.517 70.2802 35.9152V40.9622H68.9694V40.9622ZM21.6237 51.1404V50.9746H18.3076V51.1404H18.5678C19.0876 51.1404 19.4172 51.445 19.6379 51.8953C20.0883 52.8133 20.064 53.9806 19.6297 54.9679C18.2304 53.8094 17.3119 52.9513 16.6178 52.3297C14.9096 50.8002 13.9854 49.7411 13.9854 48.35C13.9854 46.9949 14.9089 45.9967 16.1757 45.9967C17.5887 45.9967 18.5345 46.9731 18.5345 48.5605H18.7003L18.988 46.6825C18.4044 45.9692 17.2841 45.5043 16.1784 45.4989C14.1378 45.4886 12.8404 46.7241 12.8404 48.35C12.8404 49.2045 13.056 49.8987 13.468 50.5654C12.3148 51.1486 11.4603 52.1223 11.4603 53.6322C11.4603 56.1074 13.2939 57.5205 16.5406 57.5205C17.8348 57.5205 18.872 57.0893 19.6073 56.37C21.0098 57.4848 22.5361 57.3547 23.1805 57.3547V57.1889C22.1269 57.1085 21.1619 56.2815 20.2686 55.5101C20.8353 54.5199 21.0196 53.248 20.7581 51.8899C20.6719 51.4427 20.8851 51.1404 21.3719 51.1404H21.6237V51.1404ZM16.5406 57.0172C14.0653 57.0172 12.6715 55.6316 12.6715 53.6322C12.6715 52.6173 12.9729 51.6743 13.7392 50.9664C14.248 51.6523 14.9613 52.3332 15.8519 53.1512C16.7224 53.9504 17.6467 54.7524 19.0378 55.9029C18.4541 56.5691 17.6134 57.0172 16.5406 57.0172ZM26.9219 47.4116L26.9246 47.5779H27.1542C27.6991 47.5779 28.1165 47.9577 28.1165 48.4543V56.3195C28.1165 56.8083 27.6924 57.2018 27.1542 57.2018H26.9246L26.9219 57.3676H30.3704L30.3676 57.2018H30.1383C29.5974 57.2018 29.1757 56.8067 29.1757 56.3113V47.9094H30.7827C32.4058 47.9094 33.4002 48.7341 33.3987 50.0833C33.3987 50.3675 33.3631 50.7477 33.2827 50.9793C32.4544 53.3574 29.8146 52.6577 29.8146 52.6577V52.8157C32.0683 53.9109 34.5848 52.7789 34.5907 50.2491C34.5946 48.4879 33.1158 47.4116 30.8019 47.4116H26.9219V47.4116ZM37.3478 47.4116L37.3505 47.5779H37.5747C38.1027 47.5779 38.5178 47.949 38.5178 48.4405V56.325C38.5178 56.8111 38.0988 57.2018 37.5747 57.2018H37.3505L37.3478 57.3676H40.7411L40.7383 57.2018H40.5145C39.9819 57.2018 39.5715 56.8008 39.5715 56.303V47.929C39.729 47.9372 40.5486 47.8957 41.4795 47.9427C42.815 48.0106 43.6511 48.7427 43.6867 49.9837C43.6969 50.3482 43.6491 50.6975 43.5702 50.9295C43.0944 52.3254 42.0487 52.3344 41.1311 52.3563C40.5894 52.3693 40.1798 52.365 40.1798 52.365V52.517C40.8351 52.517 41.4113 53.0732 41.8613 53.6341C41.991 53.7964 43.3006 55.6833 43.4875 55.9075C44.0073 56.5311 44.7321 57.3676 46.5681 57.3676H47.091V57.2018C46.1698 57.1935 45.705 56.6977 45.0303 55.9405C44.3456 55.1722 43.5757 54.1319 43.5785 54.1319C43.2219 53.6287 42.6632 52.9952 42.3011 52.8322C43.789 52.6828 44.881 51.5073 44.881 50.0998C44.881 48.424 43.597 47.4116 41.5074 47.4116H37.3478ZM52.7576 57.3676L52.7521 57.2018H52.5306C51.9235 57.2018 51.4053 56.8094 51.4053 56.3168V48.446C51.4053 47.9612 51.9278 47.5779 52.5306 47.5779H52.7548V47.4116H48.9963L48.999 47.5779H49.2205C49.837 47.5779 50.3486 47.98 50.3486 48.4766V56.303C50.3486 56.7996 49.8359 57.2018 49.2205 57.2018H48.999L48.9963 57.3676H52.7576V57.3676ZM64.1156 47.4116L64.1184 47.5779H64.3947C64.8843 47.5779 65.3159 47.9432 65.3159 48.4072V55.2878L56.7066 47.171L56.5272 47.1627C56.5272 47.1627 56.6875 48.1043 56.6875 49.237V56.3359C56.6875 56.8134 56.2657 57.2018 55.7636 57.2018H55.4872L55.4845 57.3676H58.6207V57.2018H58.3439C57.8391 57.2018 57.4204 56.8146 57.4204 56.3359V49.4111L66.0488 57.6001H66.2064C66.2064 57.6001 66.0488 56.5519 66.0488 55.4842V48.4072C66.0488 47.9443 66.48 47.5779 66.9723 47.5779H67.2491V47.4116H64.1156V47.4116ZM71.1703 47.3952C70.52 47.3952 69.6107 47.2485 69.3229 47.1353V49.0018H69.5001V48.7447C69.5001 48.2802 69.8262 47.8929 70.3295 47.8929H73.3359V56.303C73.3359 56.7996 72.8922 57.2018 72.3595 57.2018H72.1686L72.1659 57.3676H75.5842L75.5815 57.2018H75.3906C74.8661 57.2018 74.4169 56.8122 74.4169 56.3223V47.8929H77.4202C77.9239 47.8929 78.25 48.2814 78.25 48.7447V49.0018H78.4272V47.1353C78.1395 47.2485 77.2313 47.3952 76.5743 47.3952H71.1703V47.3952Z" fill="url(#paint1_linear_2_3)"/>
<path d="M45 88.875C69.2315 88.875 88.875 69.2315 88.875 45C88.875 20.7685 69.2315 1.125 45 1.125C20.7685 1.125 1.125 20.7685 1.125 45C1.125 69.2315 20.7685 88.875 45 88.875Z" stroke="#393185" stroke-width="0.25" stroke-miterlimit="22.9256"/>
<path d="M45 88.5375C69.0451 88.5375 88.5375 69.0451 88.5375 45C88.5375 20.9549 69.0451 1.4625 45 1.4625C20.9549 1.4625 1.46251 20.9549 1.46251 45C1.46251 69.0451 20.9549 88.5375 45 88.5375Z" stroke="#FEFEFE" stroke-width="0.25" stroke-miterlimit="22.9256"/>
<path d="M45 88.2C68.8587 88.2 88.2 68.8587 88.2 45C88.2 21.1413 68.8587 1.8 45 1.8C21.1413 1.8 1.8 21.1413 1.8 45C1.8 68.8587 21.1413 88.2 45 88.2Z" stroke="#C62223" stroke-width="0.25" stroke-miterlimit="22.9256"/>
<defs>
<linearGradient id="paint0_linear_2_3" x1="0" y1="45" x2="90" y2="45" gradientUnits="userSpaceOnUse">
<stop stop-color="#DBEDE7"/>
<stop offset="0.478431" stop-color="#EBEDED"/>
<stop offset="1" stop-color="#FCECF4"/>
</linearGradient>
<linearGradient id="paint1_linear_2_3" x1="11.4603" y1="44.9998" x2="78.4272" y2="44.9998" gradientUnits="userSpaceOnUse">
<stop stop-color="#41B5A0"/>
<stop offset="1" stop-color="#EC6963"/>
</linearGradient>
</defs>
</svg>
